<?xml version="1.0" encoding="utf-8"?>
<!-- Generator: Adobe Illustrator 21.0.0, SVG Export Plug-In . SVG Version: 6.00 Build 0)  -->
<svg version="1.1" id="Capa_1" xmlns="http://www.w3.org/2000/svg" xmlns:xlink="http://www.w3.org/1999/xlink" x="0px" y="0px"
	 viewBox="0 0 447 363" style="enable-background:new 0 0 447 363;" xml:space="preserve">
<style type="text/css">
	.st0{fill:#FFFFFF;stroke:#CCCCCC;stroke-miterlimit:10;}
	.st1{fill:#FFFFFF;stroke:#D6D6D6;stroke-miterlimit:10;}
	.st2{fill:#17DE8B;}
	.st3{fill:#EAEAEA;}
	.st4{fill:none;stroke:#17DE8B;stroke-width:1.5;stroke-miterlimit:10;}
	.st5{fill:#D6D6D6;}
</style>
<path class="st0" d="M404.5,284.5c0,7.2-5.8,13-13,13H56.5c-7.2,0-13-5.8-13-13V92.5c0-7.2,5.8-13,13-13h335.1c7.2,0,13,5.8,13,13
	V284.5z"/>
<path class="st1" d="M391.5,277.7c0,6.6-3.9,11.8-10.6,11.8H69.9c-6.6,0-13.4-5.2-13.4-11.8V101.8c0-6.6,6.7-11.3,13.4-11.3h311.1
	c6.6,0,10.6,4.8,10.6,11.3V277.7z"/>
<path class="st0" d="M425.7,293.5c0,4-4.1,8-9.2,8H36.4c-5.1,0-9.2-4-9.2-8l0,0c0-4,4.1-8,9.2-8h380.1
	C421.6,285.5,425.7,289.5,425.7,293.5L425.7,293.5z"/>
<rect x="56.5" y="90.5" class="st1" width="61" height="195"/>
<rect x="272.5" y="90.5" class="st1" width="120" height="195"/>
<rect x="279.5" y="245.5" class="st1" width="106" height="13"/>
<rect x="279.5" y="245.5" class="st1" width="53" height="13"/>
<rect x="279.5" y="230.5" class="st1" width="51" height="11"/>
<rect x="335.5" y="230.5" class="st1" width="50" height="11"/>
<rect x="279" y="262" class="st2" width="107" height="17"/>
<circle class="st2" cx="285.4" cy="252.4" r="3.1"/>
<circle class="st3" cx="338.5" cy="252.4" r="3.1"/>
<g>
	<g>
		<path class="st2" d="M84.8,109.7c0-0.1,0.1-0.1,0.1-0.1H88c0.1,0,0.1,0.1,0.1,0.1v0.4c0,0.1-0.1,0.1-0.1,0.1h-2.4v1.6h2.1
			c0.1,0,0.1,0.1,0.1,0.1v0.4c0,0.1-0.1,0.1-0.1,0.1h-2.1v1.7H88c0.1,0,0.1,0.1,0.1,0.1v0.4c0,0.1-0.1,0.1-0.1,0.1h-3.1
			c-0.1,0-0.1-0.1-0.1-0.1V109.7z"/>
		<path class="st2" d="M90,113c0.3,0,0.6,0.1,0.6,0.1c0-0.5-0.1-0.7-0.5-0.7c-0.4,0-0.7,0.1-0.9,0.1c-0.1,0-0.1,0-0.2-0.1l-0.1-0.3
			c0-0.1,0-0.2,0.1-0.2c0.1,0,0.5-0.2,1.1-0.2c1,0,1.1,0.6,1.1,1.4v1.6c0,0.1-0.1,0.1-0.1,0.1h-0.2c-0.1,0-0.1,0-0.1-0.1l-0.1-0.2
			c-0.2,0.2-0.5,0.4-0.9,0.4c-0.6,0-1-0.4-1-1C88.8,113.4,89.2,113,90,113z M89.9,114.5c0.3,0,0.6-0.2,0.7-0.4v-0.5
			c0,0-0.3-0.1-0.5-0.1c-0.4,0-0.6,0.2-0.6,0.5C89.4,114.2,89.6,114.5,89.9,114.5z"/>
		<path class="st2" d="M92.1,114.5l0.2-0.3c0-0.1,0.1-0.1,0.2,0c0,0,0.3,0.2,0.7,0.2c0.2,0,0.4-0.1,0.4-0.3c0-0.2-0.2-0.3-0.6-0.5
			c-0.5-0.2-0.9-0.5-0.9-1c0-0.4,0.3-0.8,1.1-0.8c0.4,0,0.8,0.1,0.9,0.2c0.1,0,0.1,0.1,0.1,0.2l-0.1,0.3c0,0.1-0.1,0.1-0.2,0.1
			c0,0-0.3-0.2-0.6-0.2c-0.3,0-0.3,0.1-0.3,0.2c0,0.2,0.2,0.3,0.5,0.4c0.6,0.2,1,0.5,1,1.1c0,0.5-0.5,0.9-1.1,0.9
			c-0.5,0-0.9-0.2-1-0.3C92.1,114.7,92,114.6,92.1,114.5z"/>
		<path class="st2" d="M94.6,112.1c0-0.1,0-0.2,0.1-0.2h0.5c0,0,0.1,0,0.1,0.1l1,2.1h0l0.9-2.1c0-0.1,0.1-0.1,0.2-0.1h0.4
			c0.1,0,0.2,0.1,0.1,0.2l-2.4,5.1c0,0-0.1,0.1-0.1,0.1H95c-0.1,0-0.2-0.1-0.1-0.2l1-2.2L94.6,112.1z"/>
		<path class="st2" d="M98.6,109.7c0-0.1,0.1-0.1,0.1-0.1h0.4c0.1,0,0.1,0.1,0.1,0.1v2.3c0.1,0,0.3-0.2,0.7-0.2
			c0.9,0,1.5,0.7,1.5,1.6c0,0.9-0.6,1.6-1.4,1.6c-0.6,0-1-0.4-1-0.4l-0.1,0.2c0,0.1-0.1,0.1-0.1,0.1h-0.2c-0.1,0-0.1-0.1-0.1-0.1
			V109.7z M100,114.3c0.5,0,0.8-0.4,0.8-1c0-0.5-0.4-0.9-0.9-0.9c-0.4,0-0.7,0.2-0.7,0.2v1.3C99.4,114,99.6,114.3,100,114.3z"/>
		<path class="st2" d="M102.3,110.1c0-0.3,0.2-0.5,0.4-0.5c0.3,0,0.5,0.2,0.5,0.5c0,0.2-0.2,0.4-0.5,0.4
			C102.5,110.6,102.3,110.4,102.3,110.1z M102.4,112c0-0.1,0.1-0.1,0.1-0.1h0.4c0.1,0,0.1,0.1,0.1,0.1v2.8c0,0.1-0.1,0.1-0.1,0.1
			h-0.4c-0.1,0-0.1-0.1-0.1-0.1V112z"/>
		<path class="st2" d="M104.1,109.7c0-0.1,0.1-0.1,0.1-0.1h0.4c0.1,0,0.1,0.1,0.1,0.1v5.1c0,0.1-0.1,0.1-0.1,0.1h-0.4
			c-0.1,0-0.1-0.1-0.1-0.1V109.7z"/>
		<path class="st2" d="M105.8,109.7c0-0.1,0.1-0.1,0.1-0.1h0.4c0.1,0,0.1,0.1,0.1,0.1v5.1c0,0.1-0.1,0.1-0.1,0.1H106
			c-0.1,0-0.1-0.1-0.1-0.1V109.7z"/>
	</g>
	<g>
		<g>
			<g>
				<path class="st2" d="M70,111.2c0.5,0.1,0.8,0.2,1.2,0.3c0.4,0.1,0.4,0.1,0.7-0.3c0.2-0.3,0.7-0.6,1.1-0.2
					c0.1,0.1,0.3,0.2,0.3,0.4c0.1,0.1,0.2,0.2,0.3,0.2c0.4,0,0.8,0,1.2-0.1c0.7-0.1,1.2-0.5,1.8-0.8c0.7-0.6,1.3-1.2,1.9-2
					c0,0.2,0,0.2-0.1,0.6l0,0c-0.2,0.8-0.6,1.5-1.1,2.2c-0.5,0.6-1,1-1.6,1.4c-0.3,0.2-0.2,0.3,0.1,0.5c0.2,0.1,0.4,0.1,0.5,0.2l0,0
					c0.6,0.2,1.1,0.5,1.7,0.8c0.6,0.3,1,0.8,1.3,1.3c0.1,0.2,0.1,0.3,0.3,0.6c0-0.1-0.1-0.1-0.1-0.2c-0.2-0.5-1.2-1.3-2.3-1.5
					c-0.6-0.2-1.3-0.1-1.9-0.2c-1.1-0.1-2-0.4-2.7-1.4c-0.2-0.2-0.3-0.4-0.4-0.6c-0.1-0.3-0.4-0.6-0.7-0.7c-0.5-0.2-1-0.4-1.6-0.5
					c-0.5-0.1,0.2,0-0.4-0.1C69.6,111.1,69.8,111.1,70,111.2z"/>
				<path class="st2" d="M74.3,111.5c0.7-0.6,1.4-1.3,1.9-2.1c0,0.2,0,0.2-0.1,0.6l0,0c-0.2,0.8-0.4,1-0.4,1.1c0,0-0.3,0.2-0.9,0.3
					C74.5,111.5,74.3,111.5,74.3,111.5z"/>
			</g>
			<g>
				<path class="st2" d="M76.9,114c0.2,0.1,0.5,0.3,0.7,0.5c0.2,0.2,0.4,0.4,0.5,0.7c0,0.1,0,0.1,0.1,0.3c0-0.1,0-0.1,0-0.1
					c-0.1-0.3-0.5-0.6-0.9-0.9c-0.3-0.1-0.6-0.1-0.8-0.2"/>
			</g>
		</g>
		<g>
			<path class="st2" d="M69,116.1c-0.8-1.2-1.3-2.6-1.2-4.2c0.1-3.5,3.2-6.6,6.7-6.7c1.6,0,3,0.4,4.2,1.2c0.1,0.1,0.3,0.1,0.4,0l0,0
				c0.1-0.1,0.1-0.4,0-0.5c-1.2-0.9-2.7-1.4-4.4-1.4c-4.2,0-7.6,3.4-7.6,7.6c0,1.6,0.5,3.1,1.4,4.4c0.1,0.2,0.4,0.2,0.5,0l0,0
				C69.1,116.4,69.1,116.2,69,116.1z"/>
			<path class="st2" d="M80.4,107.7L80.4,107.7c-0.1,0.1-0.1,0.3,0,0.4c0.8,1.2,1.3,2.6,1.2,4.2c-0.1,3.5-3.2,6.6-6.7,6.7
				c-1.6,0-3-0.4-4.2-1.2c-0.1-0.1-0.3-0.1-0.4,0v0c-0.1,0.1-0.1,0.4,0,0.5c1.2,0.9,2.7,1.4,4.4,1.4c4.2,0,7.6-3.4,7.6-7.6
				c0-1.6-0.5-3.1-1.4-4.4C80.8,107.6,80.6,107.6,80.4,107.7z"/>
		</g>
		<circle class="st2" cx="69.6" cy="117.3" r="0.4"/>
		<circle class="st2" cx="79.9" cy="107.1" r="0.4"/>
	</g>
</g>
<g>
	<ellipse class="st4" cx="431.1" cy="262.4" rx="4.1" ry="4.2"/>
	<ellipse class="st4" cx="15.7" cy="197.6" rx="3" ry="3"/>
	<rect x="210.8" y="38.6" class="st4" width="6.2" height="6.3"/>
</g>
<polygon class="st4" points="155.2,332.5 164.9,334 158.7,341.6 "/>
<polygon class="st4" points="424.9,54.8 415.2,56.3 421.4,63.9 "/>
<polygon class="st4" points="31.5,53.3 22,51 24.7,60.4 "/>
<path class="st4" d="M343.2,267c3.1,0,3.1,2.3,6.3,2.3c3.1,0,3.1-2.3,6.3-2.3c3.1,0,3.1,2.3,6.3,2.3c3.1,0,3.1-2.3,6.3-2.3
	c3.1,0,3.1,2.3,6.3,2.3c3.1,0,3.1-2.3,6.3-2.3"/>
<path class="st4" d="M296.7,332.9c3.2,0,3.2,2.4,6.4,2.4c3.2,0,3.2-2.4,6.4-2.4s3.2,2.4,6.4,2.4c3.2,0,3.2-2.4,6.4-2.4
	c3.2,0,3.2,2.4,6.4,2.4c3.2,0,3.2-2.4,6.4-2.4"/>
<path class="st4" d="M286.4,57.9c0-3.2,2.4-3.2,2.4-6.4c0-3.2-2.4-3.2-2.4-6.4s2.4-3.2,2.4-6.4c0-3.2-2.4-3.2-2.4-6.4
	c0-3.2,2.4-3.2,2.4-6.4c0-3.2-2.4-3.2-2.4-6.4"/>
<rect x="280.5" y="99.5" class="st1" width="105" height="14"/>
<rect x="280.5" y="118.5" class="st1" width="105" height="16"/>
<rect x="280.5" y="138.5" class="st1" width="105" height="16"/>
<rect x="122.5" y="96.5" class="st1" width="46" height="41"/>
<rect x="122.5" y="96.5" class="st1" width="46" height="27"/>
<path class="st5" d="M318,106c0,0.6-0.3,1-0.8,1h-30.7c-0.5,0-0.5-0.5-0.5-1v0c0-0.6,0-1,0.5-1h30.7C317.7,105,318,105.4,318,106
	L318,106z"/>
<path class="st5" d="M381,106.1c0,0.6-0.3,0.9-0.6,0.9h-15.3c-0.3,0-1.1-0.3-1.1-0.9v-0.1c0-0.6,0.9-0.9,1.1-0.9h15.3
	c0.3,0,0.6,0.4,0.6,0.9V106.1z"/>
<path class="st5" d="M317.6,126.7c0,0.6-0.3,1.3-0.8,1.3h-29.9c-0.5,0-0.5-0.7-0.5-1.3v0c0-0.6,0-0.6,0.5-0.6h29.9
	C317.3,126,317.6,126.1,317.6,126.7L317.6,126.7z"/>
<path class="st5" d="M381,126.8c0,0.6-0.3,1.2-0.6,1.2h-15.3c-0.3,0-1.1-0.6-1.1-1.2v-0.1c0-0.6,0.9-0.7,1.1-0.7h15.3
	c0.3,0,0.6,0.1,0.6,0.7V126.8z"/>
<path class="st5" d="M317.6,145.8c0,0.6-0.3,0.6-0.8,0.6h-29.9c-0.5,0-0.5-0.1-0.5-0.6v0c0-0.6,0-1.3,0.5-1.3h29.9
	C317.3,144.5,317.6,145.3,317.6,145.8L317.6,145.8z"/>
<path class="st5" d="M381,146.5c0,0.6-0.3,0.5-0.6,0.5h-15.3c-0.3,0-1.1,0.1-1.1-0.5v-0.1c0-0.6,0.9-1.4,1.1-1.4h15.3
	c0.3,0,0.6,0.8,0.6,1.4V146.5z"/>
<path class="st5" d="M156,127.9c0,0.5-0.1,1.1-0.6,1.1h-28.6c-0.5,0-0.8-0.7-0.8-1.1v0c0-0.5,0.3-0.9,0.8-0.9h28.6
	C155.9,127,156,127.4,156,127.9L156,127.9z"/>
<path class="st5" d="M144,131.9c0,0.6-0.9,1.1-1.2,1.1h-16.4c-0.3,0-0.4-0.6-0.4-1.1v0c0-0.6,0.1-0.8,0.4-0.8h16.4
	C143.1,131,144,131.3,144,131.9L144,131.9z"/>
<rect x="172.5" y="96.5" class="st1" width="44" height="41"/>
<rect x="172.5" y="96.5" class="st1" width="44" height="27"/>
<path class="st5" d="M205,127.9c0,0.5,0.1,1.1-0.3,1.1H176c-0.5,0-1-0.7-1-1.1v0c0-0.5,0.6-0.9,1-0.9h28.6
	C205.1,127,205,127.4,205,127.9L205,127.9z"/>
<path class="st5" d="M192,131.9c0,0.6,0.3,1.1,0,1.1h-16.4c-0.3,0-0.7-0.6-0.7-1.1v0c0-0.6,0.4-0.8,0.7-0.8H192
	C192.3,131,192,131.3,192,131.9L192,131.9z"/>
<rect x="220.5" y="96.5" class="st1" width="46" height="41"/>
<rect x="220.5" y="96.5" class="st1" width="46" height="27"/>
<path class="st5" d="M254,127.9c0,0.5,0.4,1.1-0.1,1.1h-28.6c-0.5,0-1.3-0.7-1.3-1.1v0c0-0.5,0.8-0.9,1.3-0.9h28.6
	C254.4,127,254,127.4,254,127.9L254,127.9z"/>
<path class="st5" d="M242,131.9c0,0.6-0.4,1.1-0.7,1.1h-16.4c-0.3,0-0.9-0.6-0.9-1.1v0c0-0.6,0.6-0.8,0.9-0.8h16.4
	C241.6,131,242,131.3,242,131.9L242,131.9z"/>
<rect x="122.5" y="142.5" class="st1" width="46" height="42"/>
<rect x="122.5" y="142.5" class="st1" width="46" height="27"/>
<path class="st5" d="M156,174.5c0,0.5-0.1,0.5-0.6,0.5h-28.6c-0.5,0-0.8-0.1-0.8-0.5v0c0-0.5,0.3-1.4,0.8-1.4h28.6
	C155.9,173,156,174,156,174.5L156,174.5z"/>
<path class="st5" d="M144,178.4c0,0.6-0.9,0.6-1.2,0.6h-16.4c-0.3,0-0.4,0-0.4-0.6v0c0-0.6,0.1-1.4,0.4-1.4h16.4
	C143.1,177,144,177.9,144,178.4L144,178.4z"/>
<rect x="172.5" y="142.5" class="st1" width="44" height="42"/>
<rect x="172.5" y="142.5" class="st1" width="44" height="27"/>
<path class="st5" d="M205,174.5c0,0.5,0.1,0.5-0.3,0.5H176c-0.5,0-1-0.1-1-0.5v0c0-0.5,0.6-1.4,1-1.4h28.6
	C205.1,173,205,174,205,174.5L205,174.5z"/>
<path class="st5" d="M192,178.4c0,0.6,0.3,0.6,0,0.6h-16.4c-0.3,0-0.7,0-0.7-0.6v0c0-0.6,0.4-1.4,0.7-1.4H192
	C192.3,177,192,177.9,192,178.4L192,178.4z"/>
<rect x="220.5" y="142.5" class="st1" width="46" height="42"/>
<rect x="220.5" y="142.5" class="st1" width="46" height="27"/>
<path class="st5" d="M254,174.5c0,0.5,0.4,0.5-0.1,0.5h-28.6c-0.5,0-1.3-0.1-1.3-0.5v0c0-0.5,0.8-1.4,1.3-1.4h28.6
	C254.4,173,254,174,254,174.5L254,174.5z"/>
<path class="st5" d="M242,178.4c0,0.6-0.4,0.6-0.7,0.6h-16.4c-0.3,0-0.9,0-0.9-0.6v0c0-0.6,0.6-1.4,0.9-1.4h16.4
	C241.6,177,242,177.9,242,178.4L242,178.4z"/>
<rect x="122.5" y="188.5" class="st1" width="46" height="41"/>
<rect x="122.5" y="188.5" class="st1" width="46" height="27"/>
<path class="st5" d="M156,220c0,0.5-0.1,1-0.6,1h-28.6c-0.5,0-0.8-0.5-0.8-1v0c0-0.5,0.3-1,0.8-1h28.6C155.9,219,156,219.5,156,220
	L156,220z"/>
<path class="st5" d="M144,224c0,0.6-0.9,1-1.2,1h-16.4c-0.3,0-0.4-0.4-0.4-1v0c0-0.6,0.1-1,0.4-1h16.4C143.1,223,144,223.4,144,224
	L144,224z"/>
<rect x="172.5" y="188.5" class="st1" width="44" height="41"/>
<rect x="172.5" y="188.5" class="st1" width="44" height="27"/>
<path class="st5" d="M205,220c0,0.5,0.1,1-0.3,1H176c-0.5,0-1-0.5-1-1v0c0-0.5,0.6-1,1-1h28.6C205.1,219,205,219.5,205,220L205,220z
	"/>
<path class="st5" d="M192,224c0,0.6,0.3,1,0,1h-16.4c-0.3,0-0.7-0.4-0.7-1v0c0-0.6,0.4-1,0.7-1H192C192.3,223,192,223.4,192,224
	L192,224z"/>
<rect x="220.5" y="188.5" class="st1" width="46" height="41"/>
<rect x="220.5" y="188.5" class="st1" width="46" height="27"/>
<path class="st5" d="M254,220c0,0.5,0.4,1-0.1,1h-28.6c-0.5,0-1.3-0.5-1.3-1v0c0-0.5,0.8-1,1.3-1h28.6C254.4,219,254,219.5,254,220
	L254,220z"/>
<path class="st5" d="M242,224c0,0.6-0.4,1-0.7,1h-16.4c-0.3,0-0.9-0.4-0.9-1v0c0-0.6,0.6-1,0.9-1h16.4C241.6,223,242,223.4,242,224
	L242,224z"/>
<rect x="122.5" y="233.5" class="st1" width="46" height="42"/>
<rect x="122.5" y="233.5" class="st1" width="46" height="27"/>
<path class="st5" d="M156,265.6c0,0.5-0.1,0.4-0.6,0.4h-28.6c-0.5,0-0.8,0-0.8-0.4v0c0-0.5,0.3-1.6,0.8-1.6h28.6
	C155.9,264,156,265.1,156,265.6L156,265.6z"/>
<path class="st5" d="M144,269.5c0,0.6-0.9,1.5-1.2,1.5h-16.4c-0.3,0-0.4-0.9-0.4-1.5v0c0-0.6,0.1-0.5,0.4-0.5h16.4
	C143.1,269,144,269,144,269.5L144,269.5z"/>
<rect x="172.5" y="233.5" class="st1" width="44" height="42"/>
<rect x="172.5" y="233.5" class="st1" width="44" height="27"/>
<path class="st5" d="M205,265.6c0,0.5,0.1,0.4-0.3,0.4H176c-0.5,0-1,0-1-0.4v0c0-0.5,0.6-1.6,1-1.6h28.6
	C205.1,264,205,265.1,205,265.6L205,265.6z"/>
<path class="st5" d="M192,269.5c0,0.6,0.3,1.5,0,1.5h-16.4c-0.3,0-0.7-0.9-0.7-1.5v0c0-0.6,0.4-0.5,0.7-0.5H192
	C192.3,269,192,269,192,269.5L192,269.5z"/>
<rect x="220.5" y="233.5" class="st1" width="46" height="42"/>
<rect x="220.5" y="233.5" class="st1" width="46" height="27"/>
<path class="st5" d="M254,265.6c0,0.5,0.4,0.4-0.1,0.4h-28.6c-0.5,0-1.3,0-1.3-0.4v0c0-0.5,0.8-1.6,1.3-1.6h28.6
	C254.4,264,254,265.1,254,265.6L254,265.6z"/>
<path class="st5" d="M242,269.5c0,0.6-0.4,1.5-0.7,1.5h-16.4c-0.3,0-0.9-0.9-0.9-1.5v0c0-0.6,0.6-0.5,0.9-0.5h16.4
	C241.6,269,242,269,242,269.5L242,269.5z"/>
<rect x="280.5" y="158.5" class="st1" width="105" height="15"/>
<path class="st5" d="M317.6,165c0,0.6-0.3,1-0.8,1h-29.9c-0.5,0-0.5-0.4-0.5-1v0c0-0.6,0-1,0.5-1h29.9
	C317.3,164,317.6,164.5,317.6,165L317.6,165z"/>
<path class="st5" d="M381,166.3c0,0.6-0.3,0.7-0.6,0.7h-15.3c-0.3,0-1.1-0.2-1.1-0.7v-0.1c0-0.6,0.9-1.1,1.1-1.1h15.3
	c0.3,0,0.6,0.6,0.6,1.1V166.3z"/>
<rect x="352" y="103" class="st2" width="7" height="7"/>
<rect x="352" y="123" class="st2" width="7" height="7"/>
<rect x="352" y="143" class="st2" width="7" height="7"/>
<rect x="352" y="162" class="st2" width="7" height="7"/>
<circle class="st5" cx="203.3" cy="84.8" r="2.9"/>
<circle class="st5" cx="60.8" cy="293" r="3.1"/>
<circle class="st5" cx="70.6" cy="293" r="3.1"/>
<circle class="st5" cx="80.4" cy="293" r="3.1"/>
<path class="st5" d="M240,84.8c0,0.8-0.7,1.5-1.5,1.5h-25c-0.8,0-1.5-0.7-1.5-1.5l0,0c0-0.8,0.7-1.5,1.5-1.5h25
	C239.3,83.3,240,83.9,240,84.8L240,84.8z"/>
<path class="st5" d="M104,136c0,0.6-0.4,1-1,1H69c-0.6,0-1-0.4-1-1l0,0c0-0.6,0.4-1,1-1h34C103.6,135,104,135.4,104,136L104,136z"/>
<path class="st5" d="M104,146c0,0.6-0.4,1-1,1H69c-0.6,0-1-0.4-1-1l0,0c0-0.6,0.4-1,1-1h34C103.6,145,104,145.4,104,146L104,146z"/>
<path class="st5" d="M93,157.1c0,0.6-0.2,0.9-0.6,0.9H68.6c-0.4,0-0.6-0.3-0.6-0.9v-0.1c0-0.6,0.2-0.9,0.6-0.9h23.8
	c0.4,0,0.6,0.4,0.6,0.9V157.1z"/>
<path class="st5" d="M104,168c0,0.6-0.4,1-1,1H69c-0.6,0-1-0.4-1-1l0,0c0-0.6,0.4-1,1-1h34C103.6,167,104,167.4,104,168L104,168z"/>
</svg>
