<?xml version="1.0" encoding="utf-8"?>
<!-- Generator: Adobe Illustrator 21.0.0, SVG Export Plug-In . SVG Version: 6.00 Build 0)  -->
<svg version="1.1" id="Capa_1" xmlns="http://www.w3.org/2000/svg" xmlns:xlink="http://www.w3.org/1999/xlink" x="0px" y="0px"
	 viewBox="0 0 60 48.3" style="enable-background:new 0 0 60 48.3;" xml:space="preserve">
<style type="text/css">
	.st0{fill:#17DE8B;stroke:#17DE8B;stroke-width:0.3;stroke-miterlimit:10;}
</style>
<g>
	<path class="st0" d="M54.1,30.8H6c-0.2,0-0.4,0.1-0.5,0.2c-0.1,0.2-0.2,0.4-0.1,0.5l4.9,16.2c0.1,0.3,0.3,0.4,0.6,0.4h38.3
		c0.3,0,0.5-0.2,0.6-0.4l4.9-16.2c0.1-0.2,0-0.4-0.1-0.5C54.5,30.9,54.3,30.8,54.1,30.8z M48.7,47H11.3L6.8,32h46.4L48.7,47z
		 M29.5,0.1L10.1,28.6c-0.1,0.2-0.1,0.4,0,0.6c0.1,0.2,0.3,0.3,0.5,0.3H30c0.3,0,0.6-0.3,0.6-0.6V0.5c0-0.3-0.2-0.5-0.4-0.6
		C30-0.2,29.7-0.1,29.5,0.1z M29.4,28.4H11.7L29.4,2.5V28.4z M32.7,9.9c-0.2,0.1-0.4,0.3-0.4,0.6V29c0,0.3,0.3,0.6,0.6,0.6h14.6
		c0.2,0,0.4-0.1,0.6-0.3c0.1-0.2,0.1-0.5-0.1-0.6L33.4,10.1C33.3,9.9,33,9.8,32.7,9.9z M33.6,12.2l12.7,16.1H33.6V12.2z"/>
</g>
</svg>
