<?xml version="1.0" encoding="utf-8"?>
<svg version="1.1" xmlns="http://www.w3.org/2000/svg" xmlns:xlink="http://www.w3.org/1999/xlink" x="0px" y="0px"
	 viewBox="0 0 1213.7 490" style="enable-background:new 0 0 1213.7 490;" xml:space="preserve">
<style type="text/css">
	.st0{fill:transparent;}
	.st1{fill:#17DE8B;}
</style>
<g id="Capa_2">
	<rect class="st0" width="1213.7" height="490"/>
</g>
<g id="Capa_1">
	<g>
		<path class="st1" d="M552.9,178.5c0-2.1,1.7-4,4-4h85.2c2.3,0,4,1.9,4,4v11.9c0,2.1-1.7,4-4,4h-67.3v43.5h56.9c2.1,0,4,1.9,4,4
			v11.9c0,2.3-1.9,4-4,4h-56.9v45.8h67.3c2.3,0,4,1.9,4,4v11.7c0,2.1-1.7,4-4,4h-85.2c-2.3,0-4-1.9-4-4V178.5L552.9,178.5z"/>
		<path class="st1" d="M696.9,269.7c8.9,0,16.8,2.6,16.8,2.6c0.2-13.4-2.3-18.7-13.2-18.7c-9.8,0-19.4,2.6-23.9,3.8
			c-2.6,0.6-4-1.1-4.7-3.4l-1.6-8c-0.6-2.8,0.9-4.3,2.8-4.9c1.5-0.6,13.6-4.9,29.4-4.9c27.3,0,29.8,16.6,29.8,37.9v45.4
			c0,2.1-1.9,4-4,4h-6c-1.9,0-2.8-0.9-3.6-3l-2.1-5.8c-4.7,4.5-13,10.9-26.2,10.9c-16,0-27.5-10.9-27.5-28.5
			C662.8,281.6,675.2,269.7,696.9,269.7z M694.3,310.6c8.5,0,16.6-6.4,19.2-10.6v-13.6c-1.3-0.9-7.2-3.4-14.9-3.4
			c-10.2,0-17.3,5.3-17.3,14.1C681.3,304.6,686.5,310.6,694.3,310.6z"/>
		<path class="st1" d="M754,312.5l4.5-8.3c0.9-1.7,3.2-2.3,5.3-1.1c0,0,9.4,5.5,19.8,5.5c6.4,0,10.4-2.6,10.4-7.2
			c0-5.8-4.7-8.5-16.4-13.8c-13.2-5.8-24.3-13.8-24.3-27.9c0-10.6,8.7-23.4,29.2-23.4c11.9,0,20.9,3.8,25.1,6.6c1.9,1.3,3,4,1.7,6.2
			l-3.8,7.2c-1.1,1.9-3.8,2.6-5.5,1.7c0,0-9.4-4.5-17.5-4.5c-7.2,0-9.6,3.2-9.6,6.4c0,5.5,5.3,7.9,13.6,11.5
			c15.5,6.8,28.3,13.4,28.3,29.4c0,13.2-12.6,24.9-31.5,24.9c-14.3,0-23.6-5.1-28.1-8.7C754,316.1,753.1,314.2,754,312.5z"/>
		<path class="st1" d="M823.8,243.9c-1.3-2.8,0.4-5.5,3.6-5.5h14.1c1.3,0,3,1.1,3.6,2.3l26.4,56.7h0.2l25.6-56.7
			c0.9-1.9,2.6-2.3,4.5-2.3h12.1c3.4,0,5.1,2.8,3.6,5.5l-65.2,141c-0.6,1.3-1.9,2.6-3.6,2.6h-12.8c-3.2,0-5.1-2.8-3.6-5.8l28.5-61.1
			L823.8,243.9z"/>
		<path class="st1" d="M934,178.5c0-2.1,1.9-4,4-4h12.4c2.1,0,4,1.9,4,4v62.4c1.9-0.6,9.6-4.7,20.4-4.7c23.6,0,42,19.8,42,44.7
			c0,24.5-17.3,44.7-39.8,44.7c-16.8,0-27-11.9-27-11.9l-1.7,6.2c-0.6,2.1-1.9,3.6-3.8,3.6h-6.4c-2.1,0-4-1.9-4-4v-141H934z
			 M974.4,307.4c13.6,0,22.6-12.1,22.6-26.4c0-14.5-10-26.2-24.3-26.2c-11.1,0-18.5,4.9-18.5,4.9v34.9
			C955.3,296.9,961.4,307.4,974.4,307.4z"/>
		<path class="st1" d="M1036,213.4c0-7,5.3-12.6,12.1-12.6c7,0,12.6,5.5,12.6,12.6c0,6.8-5.5,12.4-12.6,12.4
			C1041.3,225.7,1036,220.2,1036,213.4z"/>
		<path class="st1" d="M1038.3,242.4c0-2.1,1.9-4,4-4h12.1c2.1,0,4,1.9,4,4v77.1c0,2.1-1.9,4-4,4h-12.1c-2.1,0-4-1.9-4-4V242.4z"/>
		<path class="st1" d="M1086.3,178.5c0-2.1,1.9-4,4-4h12.1c2.1,0,4,1.9,4,4v141c0,2.1-1.9,4-4,4h-12.1c-2.1,0-4-1.9-4-4V178.5z"/>
		<path class="st1" d="M1134.2,178.5c0-2.1,1.9-4,4-4h12.1c2.1,0,4,1.9,4,4v141c0,2.1-1.9,4-4,4h-12.1c-2.1,0-4-1.9-4-4V178.5z"/>
		<g>
			<g>
				<g>
					<path class="st1" d="M146.1,219.5c14,1.9,23.1,4.6,32.5,7.2c11.8,3.2,11.8,2.8,18.8-7.1c6.2-8.7,18.4-15.6,31.5-5.9
						c4.1,3.1,6.9,6.8,9.1,11.2c1.8,3.6,4.2,6.2,8.5,6.2c10.7,0.1,21.4,0.2,32.1-2.1c18.3-3.9,34.3-12.7,49.5-23.1
						c20.1-15.7,37.1-34.3,51.5-55.3c-0.6,5.7-1,6.9-3.5,16.5l0,0c-5.3,22.5-16.3,42.1-31.4,59.5c-13.2,15.2-28.9,27.7-44.9,39.8
						c-7.3,5.5-6.6,8.9,1.7,12.7c4.8,2.2,9.7,3.9,14.5,6.4l0,0c16.2,5.2,31.3,13,45.9,21.6c15.6,9.1,28.7,22.4,37.1,37
						c3.7,6.4,4.1,7.5,7.1,17.2c-1.2-3.4-1.6-3.9-2-5c-6.6-14.8-33.7-34.6-64.5-42.1c-17.2-4.2-34.8-2.8-52.2-4.6
						c-30-3-56.4-12.3-74.7-37.7c-4.9-5-8.6-10.9-11.3-17.3c-4-9.5-11.1-15.6-20.4-19.8c-13.9-6.2-28.5-10-43.2-13.3
						c-14.8-3.4,4.7,0.7-11.6-2.6C134.6,218.2,138.1,218.4,146.1,219.5z"/>
					<path class="st1" d="M263.5,229.4c20.1-15.7,38-36,52.5-57.1c-0.6,5.7-1,6.9-3.5,16.5l0,0c-5.3,22.5-11.2,28.9-12.3,31.3
						c0,0-9.6,4.7-23.6,7.5C268.5,229.2,263.5,229.4,263.5,229.4z"/>
				</g>
				<g>
					<path class="st1" d="M336.4,298.4c6.9,3.5,13,8.1,18.9,13c6.3,5.2,11.2,12.1,13.9,19.2c1.2,3.1,1.3,3.6,1.9,8.2
						c-0.3-1.6-0.4-1.9-0.6-2.4c-1.9-7.1-12.5-17.9-25.8-23.5c-7.4-3.1-15.4-3.8-23-5.8"/>
				</g>
			</g>
			<g>
				<path class="st1" d="M117.4,355.9c-22.9-32.7-35.9-72.8-34.5-116c3.1-98,87.6-182.6,185.7-185.7c43.2-1.4,83.3,11.6,116,34.5
					c3.6,2.6,8.6,2.2,11.7-1l0,0c4-4,3.4-10.7-1.2-13.9C360.9,50,319.4,36,274.7,36C158.3,36,64.5,129.7,64.5,246.1
					c0,44.7,14.1,86.2,38,120.3c3.2,4.6,9.9,5.2,13.9,1.2l0,0C119.6,364.5,119.9,359.6,117.4,355.9z"/>
				<path class="st1" d="M433,124.6L433,124.6c-3.1,3.1-3.5,8.1-1,11.7c22.9,32.7,35.8,72.8,34.5,115.9
					c-3.1,98-87.6,182.5-185.6,185.6c-43.1,1.4-83.3-11.6-115.9-34.5c-3.6-2.6-8.6-2.2-11.7,1l0,0c-4,4-3.4,10.7,1.2,13.9
					c34.1,23.9,75.6,37.9,120.3,37.9c116.4,0,210.1-93.8,210.1-210.1c0-44.7-14-86.2-37.9-120.3C443.6,121.2,437,120.6,433,124.6z"
					/>
			</g>
			<circle class="st1" cx="132.9" cy="389.2" r="12.1"/>
			<circle class="st1" cx="416.8" cy="107.2" r="12.1"/>
		</g>
	</g>
</g>
</svg>
