<?xml version="1.0" encoding="utf-8"?>
<!-- Generator: Adobe Illustrator 21.0.0, SVG Export Plug-In . SVG Version: 6.00 Build 0)  -->
<svg version="1.1" id="Capa_1" xmlns="http://www.w3.org/2000/svg" xmlns:xlink="http://www.w3.org/1999/xlink" x="0px" y="0px"
	 viewBox="0 0 60 48.3" style="enable-background:new 0 0 60 48.3;" xml:space="preserve">
<style type="text/css">
	.st0{fill:#17DE8B;}
</style>
<g>
	<g>
		<g>
			<g>
				<path class="st0" d="M54.5,0c-0.5,0.1-1,0.4-1.3,0.5C51.7,1.3,50,1.7,48.5,2c-1,0.3-2,0.5-2.9,0.9c-3,1.1-6.2,2-9.2,3.2
					c-3,1-5.9,2.1-9,3.2s-5.9,2.3-9,3.4c-3,1-6.2,2-9.2,3.2c-1.5,0.5-3,0.9-4.5,1.5c-0.6,0.3-1.6,0.5-1.8,1.3c0,0.8,0.8,1.3,1.3,1.6
					c1.3,1,2.5,1.9,3.8,2.8c1.1,0.9,2.4,1.4,3.5,2.1c1.3,0.6,2.5,1.4,2.8,2.8c0.9,3.7,0.9,7.4,1.4,11.1c0.3,1.9,0.5,3.8,0.6,5.7
					c0.1,1-0.1,2.6,0.8,3.4c0.1,0.1,0.4,0.3,0.6,0.1c0.1,0,0.4,0,0.5-0.1c1-1,1.8-2.3,2.6-3.3c1-1.3,2-2.6,3-4c1-1.4,1.9-2.8,2.9-4
					c0.3-0.4,0.8-0.9,1.1-1.5c1.8,1.1,3.5,2,5.3,3c1.4,0.8,3.3,2.5,4.5,0.8c1.5-2.1,2.5-4.9,3.7-7.3c2.3-4.8,4.3-9.7,6.6-14.5
					c1.3-2.8,2.8-5.4,4-8.1c0.6-1.4,1.3-2.6,1.8-4c0.5-1.4,1.4-2.8,1.8-4.3C55.5,0,55-0.1,54.5,0z M14.7,25.6c-1-0.9-2-1.4-3.2-2
					c-1.4-0.8-2.5-1.5-3.8-2.4C7.2,20.8,6.7,20.3,6,20c-0.4-0.3-1.1-0.6-1.5-1.1c0.6-0.4,1.8-0.6,2.4-0.8c1.1-0.4,2.3-0.8,3.5-1.1
					c2.3-0.8,4.4-1.5,6.7-2.3c4.4-1.5,8.7-3.2,13.1-4.8c4.2-1.5,8.4-2.9,12.6-4.3C45,4.8,47,4.1,49.2,3.3c-1.6,0.8-3,1.6-4.4,2.5
					c-3.2,1.9-6.3,3.9-9.3,5.9c-3.4,2.4-6.9,4.5-10.2,6.9C21.8,21.2,18.4,23.6,14.7,25.6C14.9,25.8,14.7,25.6,14.7,25.6z M17.8,44.5
					c0-0.5-0.1-1-0.1-1.6c-0.3-1.6-0.5-3.3-0.6-4.9c-0.4-3.2-0.6-6.3-1.1-9.5c-0.1-0.6-0.3-1.4-0.5-2c1.6-0.5,3.2-1.6,4.5-2.6
					c1.8-1.3,3.7-2.4,5.5-3.7c3.4-2.4,6.9-4.5,10.3-7.1c1.5-1.1,3.3-2.3,4.9-3.2c1.5-0.9,2.9-2,4.4-2.9c0.5-0.3,1-0.6,1.5-0.9
					c-1,0.9-2,1.8-3,2.6c-1.6,1.4-3.4,2.8-5,4.2c-1.8,1.5-3.5,3.2-5.3,4.7c-2.9,2.5-5.5,5.3-8.4,7.8c-0.6,0.6-1.3,1.3-2,1.9
					c-0.6,0.6-1.4,1.3-1.9,2c-0.5,0.8-0.6,1.6-0.6,2.5c-0.1,0.6-0.1,1.1-0.3,1.6c-0.3,1.5-0.5,2.9-0.8,4.4c-0.3,1.6-0.6,3.3-1.1,4.8
					C18,43.3,17.9,43.9,17.8,44.5z M25.4,36.3c-1,1.3-1.9,2.5-2.8,3.9c-0.9,1.4-1.9,2.6-2.9,3.9c-0.3,0.3-0.4,0.5-0.6,0.9
					c0.4-1.4,0.8-2.8,1-4.3c0.6-2.8,0.9-5.5,1.6-8.3c0-0.3,0.1-0.8,0.3-1v-0.1c0,0,0,0,0.1,0c0.3,0.1,0.8,0.6,1,0.9
					c0.9,0.6,1.9,1.3,2.9,2c0.3,0.1,0.4,0.3,0.6,0.4C26.2,35,25.8,35.8,25.4,36.3z M52.6,3.8c-0.5,1.4-1.1,2.6-1.8,4
					c-1.1,2.5-2.3,5-3.7,7.4c-2.4,4.3-4.2,9.1-6.2,13.6c-1.1,2.5-2.3,4.9-3.5,7.3c-0.3,0.5-0.5,1.1-0.9,1.6c-0.6,0.6-1,0.5-1.8,0.1
					c-1-0.6-2.1-1.1-3.2-1.8c-2.3-1.4-4.4-2.6-6.6-4.2c-0.9-0.6-1.6-1.3-2.5-1.9c-0.1-0.1-0.4-0.3-0.5-0.3c0-0.1,0.1-0.1,0.1-0.3
					c1.1-1.4,2.5-2.5,3.9-3.7c1.3-1,2.3-2.3,3.5-3.4c1.5-1.4,3-2.9,4.7-4.3c1.6-1.4,3.3-2.9,4.9-4.4c1.6-1.4,3.4-2.6,5-4
					c2.8-2.4,5.7-4.7,8.4-7.1c0.1-0.1,0.4-0.3,0.5-0.3C52.9,2.8,52.7,3.3,52.6,3.8z"/>
			</g>
		</g>
	</g>
</g>
</svg>
