<?xml version="1.0" encoding="utf-8"?>
<!-- Generator: Adobe Illustrator 21.0.0, SVG Export Plug-In . SVG Version: 6.00 Build 0)  -->
<svg version="1.1" id="Capa_1" xmlns="http://www.w3.org/2000/svg" xmlns:xlink="http://www.w3.org/1999/xlink" x="0px" y="0px"
	 viewBox="0 0 149 72" style="enable-background:new 0 0 149 72;" xml:space="preserve">
<style type="text/css">
	.st0{fill:#C1C1C1;}
</style>
<g>
	<path class="st0" d="M128.6,34.7c-0.1,6.3-0.9,11.5-3.6,16.3c-2,3.5-4.8,6.2-8.8,7.3c-2.4,0.7-2.9-0.6-2.8-2.5
		c0-0.8,0.5-1.4,1.4-1.4c4.4,0.3,6.5-2.8,8.3-6c2.6-4.8,3.3-10,2.9-15.5c-0.2-2.2-0.7-4.4-1.8-6.3c-1.5-2.5-3.7-3.9-6.7-4
		c-0.1,0-0.1,0-0.2,0c-1.5-0.1-2.3-0.7-2.2-1.5c0.3-1.9,1.4-3,3-2.6c4.9,1.4,8.1,4.7,9.6,9.5C128.3,30.5,128.7,33,128.6,34.7z"/>
	<path class="st0" d="M99.3,33.8c-1.3,3.8-1.3,7.9-2.8,11.5c-0.3,0.7-0.6,1.4-0.9,2.2c-0.2,0.4-0.4,1,0.3,0.9c3-0.1,6-0.5,8-3.1
		c2-2.5,2.3-5.6,1.3-8.4c-0.9-2.6-3.7-4.6-7-4.2c-3.1,0.4-5.5,1.8-7.3,4.3c-1.1,1.6-1.1,3.5-0.9,5.4c0.1,0.8,0.8,1.1,1.4,1.5
		c0.4,0.2,1,0.3,0.6,1c-0.3,0.6-0.9,0.9-1.5,0.5c-0.8-0.4-1.3-1.2-1.5-2.1c-0.9-5,2.1-9.9,7.1-11.6c4.3-1.5,9.3,0.3,11.4,4
		c1.2,2.3,1,4.6,0.2,6.9c-1.2,3.4-3.2,6-6.9,6.9c-1.8,0.5-3.7,0.1-5.5-0.2c-1.1-0.2-2.3-0.3-3.4,0c-0.3,0.1-0.7,0.2-0.8-0.3
		c-0.1-0.4,0.2-0.7,0.6-0.7c1.6,0.1,2-1,2.4-2.1c1.1-2.9,1.7-6,2.3-9.1c0.1-0.6,0.2-1.3,0.3-1.9c0-0.2,0.2-0.4-0.1-0.5
		c-0.3-0.1-0.7,0-0.5-0.4c0.1-0.3,0.4-0.2,0.7-0.2C97.4,34.1,98.3,33.9,99.3,33.8z"/>
	<path class="st0" d="M4,41c-0.2,1,0.3,1.8,1.3,2.5c0.5,0.4,0.9,1,0.3,1.7c-0.6,0.7-1.3,0.5-1.9,0c-0.3-0.3-0.5-0.6-0.6-1
		c-1.2-3.9-0.4-7.4,2.9-10c3.1-2.5,6.5-3.6,10.5-2.3c2.5,0.8,3.5,2.7,2.6,5.3c-1.1,3.3-3.5,5-7.4,5.1c-0.7,0-1,0.3-1.1,0.9
		c-0.4,1.6-0.7,3.2-1.1,4.7c-0.2,0.6,0,0.7,0.5,0.8c0.8,0.1,1.5,0.3,2.3-0.1c0.3-0.1,0.8-0.3,0.9,0.1c0.2,0.5-0.2,0.7-0.6,0.9
		c-0.8,0.4-1.7,0.6-2.6,0.4c-1.6-0.4-3.2-0.5-4.9-0.3c-0.3,0-0.6,0-0.7-0.3c-0.1-0.3,0.2-0.4,0.4-0.4c2-0.4,2.7-1.8,3-3.5
		c0.6-3,1.3-6,1.9-8.9c0.1-0.3,0.2-0.6,0-0.8c-0.9-1.1-0.2-1.1,0.7-1.3c2.4-0.5,2.4-0.5,1.8,1.8c-0.3,1.3-0.5,2.6-0.8,4
		c-0.1,0.5-0.1,0.7,0.5,0.7c3.3,0.2,5.9-3.5,4.5-6.5c-0.4-0.9-1.2-1.4-2.1-1.5c-2.6-0.3-7.3,1-9.1,3.9C4.4,37.8,4,38.9,4,41z"/>
	<path class="st0" d="M29.7,39.7c-0.2-0.4,0-0.7,0.3-0.9c1-1,2.2-1.7,3.6-2.3c0.7-0.3,1.1,0.2,1,1.1c0,0.4-0.1,0.8-0.2,1.2
		c0,0.1,0,0.2,0.1,0.5c0.9-1.1,1.7-2,2.7-2.7c1.1-0.9,1.4-0.8,1.8,0.6c0,0.2,0.1,0.3,0.3,0.4c1,0.4,2-0.1,2.2-1.2
		c0.1-0.3,0.1-0.6,0.2-0.8c0.5-1.6,0.8-1.8,2.7-1.7c-0.3,1-0.7,1.9-1,2.9c-0.2,0.5-0.2,0.9,0.6,0.8c0.4,0,0.9,0,1.3,0
		c0.2,0,0.6-0.1,0.6,0.3c0,0.4,0,0.8-0.6,0.9c-0.1,0-0.3,0-0.4,0c-2.1,0.1-2.1,0-2.7,2c-0.5,1.7-1.1,3.4-1.2,5.2
		c0,0.5-0.1,1,0.3,1.3c0.5,0.3,1,0.1,1.4-0.2c0.6-0.4,1.1-0.8,1.6-1.2c0.4-0.3,0.8-0.5,1.1-0.1c0.4,0.5-0.1,0.7-0.4,0.9
		c-1.3,1.2-2.7,2.2-4.4,2.8c-1.2,0.4-1.9,0.1-2-1.2c-0.2-1.7,0.3-3.4,0.7-5c0.4-1.3,0.9-2.5,1.3-3.8c0.2-0.5,0.1-0.7-0.5-0.7
		c-0.7-0.1-1.5,0.5-1.9-0.7c-0.1-0.3-0.7,0.1-1,0.3c-2.2,1.4-3.6,3.5-4.3,5.9c-0.4,1.3-0.8,2.6-0.8,3.9c0,1-0.9,0.6-1.4,0.7
		C30,49,30,48.6,30.1,48.1c0.2-2.1,0.9-4.1,1.4-6.2c0.2-0.9,0.7-1.8,0.6-2.8c0-0.2,0.3-0.5-0.1-0.7c-0.3-0.1-0.6,0-0.8,0.1
		C30.7,38.9,30.2,39.4,29.7,39.7z"/>
	<path class="st0" d="M73.9,28c-1.5,0.3-3,0.7-4.2,1.8c-1.7,1.6-2.4,3.7-2.8,6c-0.1,0.6,0,0.9-0.8,0.9c-1.1-0.1-2.1,0.4-3,1.1
		c-2.1,1.6-3.5,3.6-4.3,6.1c-0.4,1.2-0.6,2.3-0.5,3.6c0.1,1.9,1.4,2.7,3.1,2.1c1.2-0.4,2-1.4,3-2.1c-0.2,0.3-0.2,0.6-0.2,1
		c0,1.3,0.2,1.5,1.4,1.3c1.7-0.4,2.8-1.6,3.9-2.8c0.2-0.2,0.2-0.5,0-0.7c-0.2-0.3-0.5-0.1-0.7,0c-0.3,0.2-0.6,0.5-0.9,0.7
		c-0.4,0.3-0.8,0.9-1.2,0.6c-0.4-0.3-0.1-0.9-0.1-1.4c0,0,0-0.1,0-0.1c0.9-3,1.1-6.1,1.7-9.2c0.4-1.7,0.6-3.3,1.3-4.9
		c0.6-1.4,1.3-1.8,2.8-1.4c0.4,0.1,0.9,0.3,1.3,0.3c0.9,0,1.2-0.5,1.2-1.6C75,28.4,74.7,27.8,73.9,28z M66.2,39.9
		c-0.2,2.1-0.8,4.1-2,5.9c-0.3,0.5-0.7,0.9-1.2,1.2c-0.7,0.5-1.4,0.7-2.1,0.3c-0.6-0.3-0.6-1.1-0.6-1.7c0.3-2.4,1-4.7,2.7-6.5
		c0.5-0.5,1-0.7,1.7-0.8C66.3,38.3,66.4,38.4,66.2,39.9z"/>
	<path class="st0" d="M79.8,47.3c-0.3,0.2-0.5,0.5-0.8,0.3c-0.4-0.2-0.3-0.6-0.3-1c0-0.2,0.1-0.3,0.1-0.5c0.5-3,1.5-6,2.4-9
		c0.1-0.3,0.5-0.6,0-0.8c-0.3-0.1-0.8-0.2-1,0.3c-0.2,0.3-0.5,0.3-0.8,0.2c-1.8-0.3-3.4,0.3-4.7,1.5c-2,1.8-3,4.1-3.8,6.6
		c-0.3,0.9-0.4,1.8-0.3,2.7c0.2,1.3,0.8,1.8,2.1,1.7c0.7,0,1.3-0.3,1.9-0.6c0.6-0.4,1.2-0.9,1.9-1.4v0.8c0,1.5,0.4,1.8,1.7,1.2
		c1.6-0.6,2.9-1.7,3.8-3.3C80.8,46,80.4,46.8,79.8,47.3z M78.4,39.1c-0.3,2.2-0.9,4.3-1.9,6.3c-0.4,0.8-0.9,1.5-1.7,1.9
		c-1.2,0.7-2,0.2-2.1-1.1c0-0.3,0-0.6,0-1c0.2-2,0.5-4,2-5.5c0.9-0.9,2-1.3,3.2-1.2C78.3,38.6,78.5,38.5,78.4,39.1z"/>
	<path class="st0" d="M56,47.1c-0.3,0.2-0.6,0.7-1,0.5c-0.4-0.2-0.4-0.7-0.3-1.1c0.2-0.8,0.3-1.6,0.5-2.4c0.7-2.6,1.4-5.1,2.1-7.7
		c-0.5-0.1-1-0.2-1.3,0.4c-0.1,0.2-0.3,0.2-0.6,0.2c-2.1-0.4-3.8,0.4-5.3,1.9c-1.5,1.5-2.4,3.4-3.1,5.4c-0.4,1.2-0.7,2.4-0.5,3.7
		c0.2,1,0.7,1.5,1.7,1.6c1.4,0,2.5-0.6,3.4-1.5c0.3-0.2,0.5-0.5,0.7-0.8c0.1,0.6,0,1,0,1.4c0,1,0.4,1.4,1.3,1
		c1.7-0.6,3.2-1.7,4.2-3.4C56.9,46,56.5,46.7,56,47.1z M54.4,39c-0.3,2.5-1,4.8-2.3,7c-0.4,0.6-0.8,1.1-1.5,1.4
		c-1.1,0.5-1.8,0.1-2-1.1c0-0.3-0.1-0.6-0.1-0.7c0.1-1.9,0.4-3.5,1.3-4.8c0.9-1.5,2.2-2.3,4-2.1C54.2,38.6,54.5,38.5,54.4,39z"/>
	<path class="st0" d="M28.1,40c-0.4-2.2-2-4-4.8-3.3c-1.5,0.4-2.4,1.4-3.2,2.5c-1.4,1.9-2,4.1-2,6.4c0,2.2,0.7,4.2,3.5,4.1
		c0.8,0.1,1.7-0.1,2.4-0.7C26.9,46.7,28.8,43.9,28.1,40z M24.3,46.8c-0.3,0.5-0.7,0.8-1.1,1.1c-0.8,0.5-1.9,0.1-2.2-0.9
		c-0.3-1-0.7-2-0.6-3.1c0.2-1.9,0.3-3.9,1.8-5.4c0.6-0.6,1.3-1,2.2-0.7c1,0.3,1.2,1.1,1.3,1.9C25.9,42.2,25.8,44.7,24.3,46.8z"/>
	<path class="st0" d="M135.6,35.8c1.6-0.1,3.3-0.1,4.9-0.2c0.6,0,0.8,0.1,1,0.7c0.5,1.8-0.1,3.4-0.9,4.9c-0.1,0.3-0.3,0.3-0.6,0.2
		c-3.2-0.7-6.5-1.4-9.7-2.1c-0.5-0.1-0.7-0.3-0.7-0.8c0-2.4,0-2.4,2.4-2.5C133.1,35.9,134.3,35.9,135.6,35.8
		C135.6,35.8,135.6,35.8,135.6,35.8z"/>
	<path class="st0" d="M126.4,52.5c0.3,0,0.6,0,0.8,0.4c1.3,2.7,2.9,5.2,3.4,8.2c0.1,0.9,0,1.4-0.6,2c-0.3,0.3-0.6,0.6-0.9,0.8
		c-0.7,0.6-1.7,0.3-1.9-0.6c-0.9-3.1-1.8-6.1-2.7-9.2C124.2,53.1,125,52.4,126.4,52.5z"/>
	<path class="st0" d="M133.9,16.8c0.1,0.6,0,1-0.4,1.4c-1.5,2-3.1,4-4.6,6c-0.4,0.5-0.7,0.7-1.3,0.6c-0.6-0.1-0.6-0.6-0.8-1
		c-0.3-0.8-0.3-1.6,0.2-2.3c1.4-2.2,2.7-4.4,4-6.6c0.2-0.4,0.4-1,1-0.9c0.7,0.1,1.2,0.5,1.5,1.1C133.8,15.6,134,16.2,133.9,16.8z"/>
	<path class="st0" d="M118.7,15.8c0.4-3.4,0.7-6.6,1-9.8c0.1-0.9,1-1.2,1.7-0.7c0.3,0.2,0.5,0.4,0.8,0.6c0.6,0.4,0.8,0.9,0.6,1.7
		c-0.6,2.8-1.2,5.7-1.7,8.5c-0.2,1.1-0.8,1-1.5,1C118.8,17,118.4,16.5,118.7,15.8z"/>
	<path class="st0" d="M115.5,64.3c0-0.9,0-1.9,0-2.8c0-0.6,0.2-0.9,0.8-0.8c0.4,0,0.7,0,1.1,0c0.5,0,0.6,0.2,0.6,0.6
		c0,2,0.1,3.9,0.1,5.9c0,1-0.8,1.2-1.5,1.2c-0.6,0-1.2-0.4-1.2-1.2C115.4,66.2,115.4,65.2,115.5,64.3
		C115.4,64.3,115.5,64.3,115.5,64.3z"/>
	<path class="st0" d="M118.5,30.6c-1.6,1.5-3,2.8-4.4,4.1c-0.2,0.2-0.5,0.5-0.8,0.2c-0.3-0.3-0.1-0.6,0.1-0.9
		c0.6-1.1,1.3-2.1,1.9-3.2c0.2-0.3,0.4-0.6,0.7-0.5C116.8,30.6,117.5,30.4,118.5,30.6z"/>
</g>
</svg>
