<?xml version="1.0" encoding="utf-8"?>
<!-- Generator: Adobe Illustrator 21.0.0, SVG Export Plug-In . SVG Version: 6.00 Build 0)  -->
<svg version="1.1" id="Capa_1" xmlns="http://www.w3.org/2000/svg" xmlns:xlink="http://www.w3.org/1999/xlink" x="0px" y="0px"
	 viewBox="0 0 60 48.3" style="enable-background:new 0 0 60 48.3;" xml:space="preserve">
<style type="text/css">
	.st0{fill:#17DE8B;}
</style>
<path class="st0" d="M58.6,13.1c-1-0.7-1.9-1.5-2.8-2.2c-1.4-1.1-2.8-2.2-4.2-3.3c-0.4-0.3-0.7-0.3-1.2-0.1
	c-0.8,0.4-1.5,0.8-2.3,1.2c-1,0.5-1.9,1-2.9,1.5c-1.5,0.8-3,1.6-4.6,2.4c-1,0.5-1.9,1-2.9,1.6c-0.3,0.1-0.3,0.2-0.5-0.1
	c-1.4-1.7-2.8-3.4-4.2-5.1c-1.1-1.3-2.2-2.7-3.3-4c-0.2-0.2-0.4-0.4-0.7-0.4c-1.5-0.3-3-0.5-4.5-0.8c-3.7-0.7-7.4-1.3-11.1-2
	C10.2,1.1,7,0.5,3.7,0H3.3C3.2,0,3.1,0,3,0.1C2.6,0.4,2.5,0.9,2.7,1.3C2.8,1.4,2.9,1.5,3,1.7C4.7,3.7,6.3,5.9,8,8
	c0.1,0.2,0.1,0.2-0.1,0.2C5.9,8.6,3.8,9,1.7,9.3c-0.5,0.1-0.8,0.3-0.9,0.8v0.3c0.1,0,0.1,0.1,0.1,0.1C0.9,10.7,1,10.9,1.2,11
	c0.1,0,0.1,0.1,0.2,0.1c2.5,1.7,5.1,3.4,7.6,5.1c3.9,2.6,7.7,5.1,11.6,7.7c0,0,0.1,0.1,0.1,0.1c0.1,0,0.1,0.1,0.1,0.2
	c0,0.3-0.1,0.6-0.1,0.8c-0.1,0.5-0.2,1.1-0.2,1.6c-0.1,0.5-0.2,1.1-0.2,1.6c-0.1,0.7-0.2,1.3-0.3,2c-0.1,0.5-0.2,1.1-0.2,1.6
	c-0.1,0.6-0.2,1.3-0.3,1.9c-0.1,0.5-0.2,1.1-0.2,1.6c-0.1,0.6-0.2,1.3-0.3,1.9c-0.1,0.6-0.2,1.3-0.3,1.9c-0.1,0.6-0.2,1.3-0.3,1.9
	c-0.1,0.5-0.2,1.1-0.3,1.6c-0.1,0.5-0.2,1.1-0.2,1.6c-0.1,0.5-0.2,1.1-0.3,1.6c-0.1,0.4-0.1,0.8-0.2,1.3c0,0.2,0,0.3,0,0.5
	c0.1,0.3,0.3,0.5,0.6,0.5c0.1,0,0.1,0,0.2,0.1h0.1c0-0.1,0.1,0,0.2-0.1c0.2-0.1,0.4-0.2,0.5-0.4c0-0.1,0.1-0.1,0.1-0.2
	c0.3-0.6,0.6-1.1,0.9-1.7c1.4-2.9,2.9-5.8,4.3-8.6c0.3-0.6,0.6-1.2,0.9-1.8c0.1-0.1,0.2-0.2,0.3-0.3c0.3-0.1,0.5-0.2,0.8-0.3
	c2-0.9,4-1.8,6.1-2.6c1.9-0.8,3.9-1.7,5.8-2.5c1.7-0.7,3.4-1.5,5-2.2c0.9-0.4,1.8-0.8,2.8-1.2c0.2-0.1,0.4-0.3,0.5-0.5
	c0-0.1,0-0.1,0.1-0.2l3.4-10.9c0.1-0.3,0.2-0.6,0.3-1c0-0.1,0.1-0.1,0.2-0.1c0.1,0,0.3,0,0.4,0.1c0.5,0.1,1.1,0.2,1.6,0.2
	c0.5,0.1,1.1,0.2,1.6,0.2c0.7,0.1,1.3,0.2,2,0.3c0.6,0.1,1.1,0.2,1.7,0.3c0.2,0,0.4,0.1,0.6,0.1c0.2,0,0.4-0.1,0.5-0.2
	c0.1-0.1,0.3-0.3,0.3-0.5c0,0,0-0.1,0-0.1v-0.2C59,13.4,58.8,13.2,58.6,13.1z M16.9,19.1c-4.2-2.6-8.4-5.3-12.5-7.9c0,0,0,0,0-0.1
	c0.1,0,0.1,0,0.2,0c1.7-0.4,3.3-0.7,5-1.1c0,0,0.1,0,0.1,0c0,0,0.1,0,0.1,0c0,0,0.1,0.1,0.1,0.1c2.4,2.9,4.7,5.9,7.1,8.8
	C16.9,19,16.9,19,16.9,19.1C16.9,19.1,16.9,19.1,16.9,19.1z M16.2,15.4c-3.2-4-6.4-8-9.7-12.1C6.3,3,6,2.6,5.7,2.3
	c0,0-0.1-0.1-0.1-0.1c0.1,0,0.2,0,0.3,0c1.5,0.3,2.9,0.5,4.4,0.8c1.4,0.2,2.8,0.5,4.2,0.7c1.2,0.2,2.4,0.4,3.7,0.7
	c1.4,0.2,2.7,0.5,4.1,0.7c1.4,0.2,2.8,0.5,4.2,0.7C26.9,5.9,27.3,6,27.7,6c0.1,0,0.1,0,0.1,0.1c0,0,0,0.1,0,0.1
	c-0.1,0.3-0.2,0.6-0.4,0.9c-1.2,3.1-2.5,6.2-3.7,9.3c-0.7,1.7-1.4,3.5-2.1,5.2c0,0.1,0,0.1-0.1,0.2c0,0,0,0-0.1,0
	c0,0-0.1-0.1-0.1-0.1C19.6,19.6,17.9,17.5,16.2,15.4z M23.5,34.6c-1,1.9-1.9,3.9-2.9,5.8c-0.2,0.4-0.4,0.9-0.6,1.3
	c0,0.1-0.1,0.1-0.1,0.2c0-0.1,0-0.2,0-0.4c0.1-0.7,0.2-1.3,0.3-2c0.1-0.6,0.2-1.2,0.3-1.9c0.1-0.5,0.2-1.1,0.2-1.6
	c0.1-0.6,0.2-1.3,0.3-1.9c0.1-0.6,0.2-1.2,0.3-1.9c0.1-0.6,0.2-1.3,0.3-1.9c0.1-0.5,0.2-1.1,0.2-1.6c0-0.2,0.1-0.4,0.1-0.6
	c0,0,0,0,0,0c0,0,0,0,0,0c0.1,0.2,0.1,0.5,0.2,0.7c0.4,1.8,0.9,3.6,1.3,5.4c0,0,0,0,0,0C23.5,34.4,23.5,34.5,23.5,34.6z M41.8,26.1
	c-0.1,0-0.1,0.1-0.2,0.1c-1.3,0.6-2.7,1.2-4,1.7c-1.9,0.8-3.7,1.6-5.6,2.4c-2.2,1-4.5,1.9-6.7,2.9c-0.1,0-0.1,0-0.2,0.1
	c0-0.1-0.1-0.1-0.1-0.2c-0.7-2.6-1.3-5.3-2-7.9c0-0.2-0.1-0.3-0.1-0.5c0-0.1,0-0.2,0.1-0.1c0.2,0,0.4,0,0.6,0c0.3,0,0.5,0,0.8,0.1
	c0.5,0,1,0.1,1.5,0.1c0.7,0.1,1.3,0.1,2,0.2c0.5,0,1,0.1,1.5,0.1c0.5,0,0.9,0.1,1.4,0.1c0.2,0,0.4,0,0.7,0c0.7,0.1,1.4,0.1,2.1,0.2
	c0.8,0.1,1.6,0.1,2.4,0.2c0.6,0,1.2,0.1,1.8,0.1c0.6,0,1.2,0.1,1.7,0.1C40.2,25.9,40.9,26,41.8,26.1C41.7,26,41.8,26,41.8,26.1
	C41.8,26,41.8,26,41.8,26.1C41.8,26.1,41.8,26.1,41.8,26.1z M43.3,24.4c-0.3,0-0.5,0-0.8-0.1c-0.3,0-0.5,0-0.8-0.1
	c-0.5,0-1-0.1-1.5-0.1c-0.8-0.1-1.6-0.1-2.4-0.2c-0.6,0-1.1-0.1-1.7-0.1c-0.7-0.1-1.3-0.1-2-0.2c-0.5,0-1-0.1-1.4-0.1
	c-0.5,0-1-0.1-1.5-0.1c-0.2,0-0.4,0-0.7-0.1c-0.7-0.1-1.4-0.1-2.1-0.2c-0.6,0-1.2-0.1-1.8-0.1c-0.6,0-1.2-0.1-1.8-0.1
	c-0.6,0-1.2-0.1-1.7-0.1c-0.1,0-0.2,0-0.3-0.1c2.1-5.2,4.2-10.5,6.3-15.7c0.1,0,0.1,0.1,0.1,0.1c0.4,0.5,0.8,1,1.2,1.4
	c2,2.4,3.9,4.8,5.9,7.2c2.3,2.8,4.6,5.6,6.9,8.4C43.3,24.3,43.4,24.3,43.3,24.4C43.4,24.4,43.4,24.4,43.3,24.4z M49.4,10
	c-1.4,4.5-2.9,9.1-4.3,13.7c-0.1-0.1-0.1-0.1-0.2-0.2c-2.1-2.5-4.1-5.1-6.2-7.6c0,0-0.1-0.1-0.1-0.1c0,0,0,0,0-0.1
	c0,0,0.1-0.1,0.2-0.1c0.7-0.4,1.4-0.8,2.1-1.1c2.5-1.3,4.9-2.6,7.4-3.9c0.3-0.2,0.7-0.4,1-0.6C49.3,9.9,49.3,9.9,49.4,10
	C49.4,9.9,49.4,10,49.4,10z M54.9,13c-0.9-0.2-1.9-0.5-2.8-0.7c-0.4-0.1-0.9-0.2-1.3-0.3c-0.1,0-0.1,0-0.2,0c0,0-0.1,0,0-0.1
	c0,0,0,0,0,0c0.2-0.7,0.5-1.5,0.7-2.2c0,0,0,0,0-0.1c0.2,0.1,3.6,3.3,3.7,3.5C55,13,55,13,54.9,13z"/>
</svg>
