<?xml version="1.0" encoding="utf-8"?>
<!-- Generator: Adobe Illustrator 21.0.0, SVG Export Plug-In . SVG Version: 6.00 Build 0)  -->
<svg version="1.1" id="Capa_1" xmlns="http://www.w3.org/2000/svg" xmlns:xlink="http://www.w3.org/1999/xlink" x="0px" y="0px"
	 viewBox="0 0 149 72" style="enable-background:new 0 0 149 72;" xml:space="preserve">
<style type="text/css">
	.st0{fill:#C1C1C1;}
</style>
<g>
	<path class="st0" d="M371.4,3841.1c0.2,0.2,0.4,0.4,0.6,0.5c0.2,0.1,0.4,0.3,0.6,0.6c0,0.1,0.1,0.1,0.2,0.2
		c0.2,0.2,0.5,0.3,0.7,0.5c0.1,0,0.3,0.1,0.4,0.2c1,0.8,2.1,1.5,3.1,2.3c0.3,0.2,0.7,0.5,1,0.7c0.1,0,0.2,0.1,0.3,0.2
		c0.9,0.8,2.1,1.3,3.2,1.8c1.2,0.6,2.4,0.9,3.7,1c0.7,0.1,1.5,0,2.2-0.1c1.2-0.2,2.3-0.7,3.3-1.4c0.1-0.1,0.2-0.1,0.2-0.1
		c0,0,0.1,0,0.1-0.1c0.1-0.2,0.4-0.2,0.6-0.4c0.2-0.2,0.5-0.4,0.7-0.6c0.1-0.1,0.3-0.2,0.5,0c0.2,0.1,0.2,0.3,0.1,0.4
		c-0.1,0.3-0.2,0.7-0.4,0.9c-0.2,0.3-0.3,0.6-0.4,0.9c-0.2,0.5-0.5,0.9-0.9,1.3c0,0-0.1,0-0.1,0.1c-0.2,0.6-0.7,0.8-1.1,1.3
		c-0.4,0.5-0.9,0.8-1.4,1.1c-0.4,0.2-0.8,0.5-1.2,0.7c-0.8,0.2-1.7,0.4-2.6,0.4c-1,0-1.9-0.1-2.9-0.3c-0.8-0.2-1.6-0.5-2.4-0.8
		c-0.6-0.3-1.2-0.6-1.8-0.9c-0.6-0.2-1.1-0.6-1.7-0.9c-0.7-0.3-1.4-0.8-2.1-1.2c-1-0.6-2.1-1.2-3-2.1c-0.1-0.1-0.3-0.1-0.4-0.2
		c-1.7-1-3.2-2.3-4.9-3.2c-1.6-0.8-3.4-1.4-5.1-1.8c-0.6-0.2-1.2-0.1-1.8-0.2c-1-0.2-2-0.1-2.9,0c-0.9,0-1.7,0.2-2.6,0.4
		c-1.6,0.4-3.1,1.1-4.5,2.1c-0.1,0.1-0.2,0.2-0.4,0.3c-0.1,0-0.1,0.1-0.2,0.1c-0.1,0,0-0.1,0-0.2c0.4-0.8,0.6-1.7,1.3-2.3
		c0.4-0.3,0.6-0.8,0.9-1.2c0.2-0.2,0.3-0.4,0.4-0.6c0.6-0.4,1.1-1,1.8-1.4c0.7-0.4,1.4-0.7,2.2-1c0.1,0,0.2,0,0.4-0.1
		c0.4,0,0.8-0.2,1.2-0.3c0.4-0.1,0.8-0.2,1.2-0.2c0.5-0.1,1.1-0.1,1.6-0.2c0.8-0.1,1.5-0.1,2.3,0c0.8,0.1,1.6,0.2,2.4,0.3
		c1.4,0.2,2.6,0.8,3.9,1.3c0,0,0.1,0,0.1,0.1c0.6,0.4,1.4,0.7,2,1.1C370.4,3840.4,370.9,3840.7,371.4,3841.1z"/>
	<path class="st0" d="M347.8,3851.2c0.4,0.4,0.7,0.8,1,1.1c1.3,1.4,2.8,2.4,4.4,3.2c2.2,1.1,4.6,1.6,7.1,1.8
		c2.4,0.2,4.7-0.2,7.1-0.6c1.6-0.3,3.3-0.5,5-0.7c1.7-0.2,3.3-0.4,5-0.4c1.8,0,3.5,0.1,5.2,0.5c0.7,0.2,1.3,0.4,1.9,0.6
		c0.3,0.1,0.6,0.3,0.8,0.5c1.3,0.9,2.2,2.1,2.7,3.5c0.6,1.4,0.7,2.9,0.7,4.4c0,0.2-0.1,0.4-0.1,0.6c0,0.1,0,0.2-0.1,0.2
		c-0.1,0-0.2-0.1-0.2-0.1c-0.1-0.1-0.1-0.3-0.2-0.4c-0.2-0.5-0.5-0.9-0.7-1.4c-0.2-0.4-0.4-0.8-0.8-1c-0.1-0.1-0.2-0.3-0.3-0.4
		c-1.3-1.5-3-2.4-4.9-2.7c-2.2-0.3-4.4-0.1-6.6,0.3c-2.3,0.5-4.5,1.1-6.8,1.6c-1.9,0.4-3.7,0.8-5.6,0.8c-2.9,0.1-5.6-0.6-8.1-1.9
		c-0.9-0.4-1.8-0.9-2.6-1.6c-1.9-1.6-3.5-3.4-4.1-5.8c-0.1-0.3-0.1-0.6-0.2-1c-0.1-0.5-0.1-1-0.2-1.5c0-0.1,0-0.2,0-0.2
		c0-0.1,0.1-0.2,0.2-0.2c0.1,0,0.2,0.1,0.2,0.2C347.5,3850.8,347.6,3851,347.8,3851.2z"/>
	<path class="st0" d="M440.7,3853.3c-0.1-0.7-0.1-1.5-0.3-2.2c-0.2-1.3-0.4-2.6-0.6-3.9c-0.1-0.7-0.3-1.3-0.7-1.9
		c-0.1-0.2-0.3-0.3-0.6-0.4c-0.2,0-0.3-0.1-0.2-0.3c0.1-0.1,0.1-0.1,0.2-0.2c0.4-0.3,0.8-0.7,1.1-1.2c0.2-0.3,0.3-0.8,0.4-1.2
		c0.1-0.9,0.2-1.7,0.1-2.5c-0.1-0.9-0.2-1.8-0.9-2.5c-0.5-0.4-0.8-0.9-1.5-1.1c-0.3-0.1-0.6-0.1-0.8-0.2c-0.2-0.1-0.3-0.1-0.5-0.1
		c-0.2,0-0.4-0.1-0.6-0.1c-1.2,0-2.4,0-3.6,0c-0.2,0-0.3,0-0.4,0.1c-0.2,0.1-0.3,0.3-0.3,0.6c0,3.9,0,7.9,0,11.8
		c0,1.5,0.1,3.1-0.1,4.6c-0.1,0.4,0,0.8,0.4,1l2.8,0c0.1-0.1,0.1-0.2,0.1-0.5c0-1.2,0-2.3,0-3.5c0-1.2,0-2.4,0-3.6
		c0-0.5,0.2-0.7,0.7-0.5c0.7,0.1,1,0.7,1.2,1.3c0.2,0.8,0.3,1.6,0.4,2.4c0.2,1.2,0.3,2.4,0.5,3.6c0.1,0.3,0.1,0.6,0.3,0.8l2.6,0
		C440.6,3853.7,440.7,3853.5,440.7,3853.3z M436.8,3841.6c0,0.9-0.6,1.6-1.5,1.8c-0.4,0.1-0.7-0.2-0.7-0.7c0-0.7,0-1.5,0-2.2h0
		c0-0.6,0-1.3,0-1.9c0-0.5,0.2-0.7,0.7-0.7c1-0.1,1.3,0.6,1.4,1.4C436.8,3840,436.8,3840.8,436.8,3841.6z"/>
	<path class="st0" d="M451.1,3843.2c0-0.9,0-1.8-0.1-2.8c-0.1-0.5,0-1-0.3-1.4c0-0.1-0.1-0.1-0.1-0.2c-0.3-1-0.8-1.9-1.7-2.5
		c-0.6-0.4-1.2-0.7-1.9-0.8c-0.5-0.1-1-0.1-1.5,0c-0.2,0-0.3,0.1-0.5,0.1c-0.9,0.2-1.6,0.6-2.2,1.2c-0.5,0.6-0.9,1.3-1.1,2.1
		c-0.3,1.4-0.3,2.7-0.4,4.1c0,1.6,0.1,3.1,0.1,4.7c0,0.9,0.1,1.7,0.3,2.5c0.2,0.9,0.6,1.7,1.2,2.3c0.7,0.7,1.5,1,2.5,1.1l1.2,0
		c0.5-0.1,1-0.2,1.5-0.3c0.6-0.1,1.1-0.4,1.5-0.8c0.1-0.1,0.3-0.2,0.4-0.4c0.2-0.1,0.2-0.2,0.3-0.4c0.6-1.2,0.9-2.5,0.9-3.8
		C451.1,3846.5,451.1,3844.9,451.1,3843.2z M447.8,3847.8c0,0.8,0,1.7-0.3,2.5c-0.1,0.2-0.2,0.4-0.3,0.7c-0.4,0.7-1,0.7-1.6,0.5
		c-0.1,0-0.2-0.1-0.3-0.2c-0.3-0.5-0.5-1.1-0.6-1.7c-0.2-2.1-0.1-4.2-0.1-6.3c0-1.1,0.1-2.2,0.1-3.3c0-0.7,0.2-1.3,0.7-1.7
		c0.4-0.4,0.7-0.4,1.2-0.2c0.6,0.3,0.8,0.8,0.9,1.3c0.1,0.5,0.1,1,0.1,1.5c0,0.5,0,1.1,0,1.6C447.9,3844.2,447.8,3846,447.8,3847.8z
		"/>
	<path class="st0" d="M421.9,3853.5c-0.1-0.4-0.1-0.9-0.1-1.3c0-0.5-0.2-0.9-0.2-1.3c-0.1-0.8-0.2-1.6-0.4-2.4
		c-0.1-0.5-0.2-1-0.3-1.5c-0.1-0.8-0.2-1.6-0.4-2.3c-0.1-0.6-0.1-1.3-0.3-1.9c-0.1-0.6-0.1-1.2-0.2-1.7c-0.1-0.7-0.3-1.3-0.3-2
		c-0.1-0.8-0.1-1.6-0.3-2.4c-0.2-0.7-0.1-0.9-0.5-1c-0.1,0-0.3-0.1-0.6-0.1c-0.5-0.1-1,0-1.4,0c0,0,0,0,0,0c-0.3,0-0.6,0-0.9,0
		c-0.2,0-0.3,0-0.4,0.1c-0.4,0.1-0.6,0.2-0.7,0.9c-0.1,0.6-0.2,1.3-0.2,1.9c-0.1,0.6-0.2,1.2-0.3,1.7c-0.1,0.8-0.2,1.6-0.4,2.4
		c-0.1,0.5-0.2,1-0.2,1.6c-0.1,0.7-0.2,1.3-0.3,2c-0.1,0.7-0.3,1.5-0.4,2.2c-0.1,0.6-0.1,1.3-0.3,1.9c-0.1,0.6-0.2,1.2-0.3,1.8
		c-0.1,0.4,0,0.8-0.2,1.2c-0.1,0.2-0.1,0.3-0.1,0.4l2.7,0c0,0,0-0.1,0-0.1c0-0.6,0.1-1.2,0.2-1.9c0.1-0.8,0.2-1.7,0.3-2.5
		c0-0.5,0.1-0.6,0.6-0.6c0.5,0,0.9,0,1.4,0c0.5,0,0.6,0.1,0.7,0.6c0.1,1.3,0.5,2.6,0.5,4c0,0.3,0.1,0.4,0.2,0.5l3,0
		C421.9,3853.6,421.9,3853.5,421.9,3853.5z M415.9,3846.2l0.8-7.6l0.9,7.6H415.9z"/>
	<path class="st0" d="M396,3854c-0.3-0.3-0.6-0.5-0.9-0.8c-0.1-0.1-0.1-0.3-0.1-0.4c0-0.6,0-1.2,0-1.7c0-0.1,0-0.2,0.1-0.3
		c0.1-0.1,0-0.2,0-0.2c0.2-0.1,0.3,0,0.4,0.1c0.4,0.4,0.8,0.6,1.3,0.8c1.1,0.6,2.4,0.2,2.8-1.2c0.3-1.3,0-2.4-0.6-3.4
		c-0.7-1.2-1.6-2.3-2.4-3.5c-0.5-0.8-1-1.6-1.2-2.6c-0.2-0.8-0.3-1.7-0.2-2.6c0.1-0.6,0.2-1.1,0.4-1.7c0.5-1.3,1.5-2.2,2.7-2.7
		c1.2-0.5,2.4-0.4,3.6-0.1c0.1,0,0.2,0,0.2,0c0.5,0,0.8,0.3,0.8,0.8c0,0.6,0,1.2,0,1.8c0,0.2,0,0.3-0.3,0.2
		c-0.6-0.2-1.2-0.4-1.8-0.4c-0.6,0-1,0.2-1.3,0.7c-0.8,1.2-0.7,2.5-0.2,3.8c0.4,0.9,0.9,1.7,1.5,2.5c0.2,0.2,0.3,0.4,0.4,0.7
		c0.1,0.3,0.4,0.4,0.5,0.7c0.7,1,1.3,2.1,1.5,3.4c0.3,1.4,0.1,2.8-0.4,4.1c-0.2,0.6-0.5,1.1-0.9,1.5c-0.2,0.2-0.4,0.4-0.6,0.6
		c0,0.1-0.1,0.2-0.2,0.2c-0.6,0.4-1.2,0.6-1.9,0.6c-0.6,0-1.3,0-1.9-0.1C396.8,3854.4,396.4,3854.3,396,3854z"/>
	<path class="st0" d="M462.5,3845.3c0-2.9,0-5.8,0-8.8c0-0.3-0.1-0.4-0.4-0.4c-0.6,0-1.2,0-1.8,0c-0.1,0-0.2,0-0.2-0.1
		c-0.1-0.6-0.2-1.2-0.1-1.7c0.1-0.5,0.2-0.5,0.7-0.5c2.4,0,4.8,0,7.2-0.1c0.6,0,0.8,0.3,0.9,0.9c0.1,0.5-0.1,0.9-0.1,1.4
		c0,0.2-0.2,0.2-0.3,0.2c-0.6,0-1.1,0-1.7,0c-0.3,0-0.4,0.1-0.4,0.4c0,5.8,0,11.6,0,17.4c0,0.5-0.1,0.6-0.6,0.6c-0.9,0-1.8,0-2.7,0
		c-0.3,0-0.4-0.1-0.4-0.4c0-0.5,0-0.9,0-1.4C462.6,3850.2,462.6,3847.7,462.5,3845.3C462.6,3845.3,462.5,3845.3,462.5,3845.3z"/>
	<path class="st0" d="M411.7,3853.1c0,0.2-0.1,0.3-0.2,0.4l-6.7,0c0-0.1,0-0.2,0-0.3c0-1.2,0-2.5,0-3.7v-4.7c0-2.8,0-5.6,0-8.4
		c0-0.2,0-0.4,0.1-0.5c0-0.1,0.1-0.1,0.2-0.2c0,0,0,0,0,0c0.1,0,0.1-0.1,0.2-0.1c0.3,0,0.5,0,0.8,0c1.7,0,3.4,0,5.1,0
		c0.1,0,0.2,0,0.3,0.1c0.2,0.1,0.2,0.2,0.2,0.5c0,0.4,0,0.9,0,1.3c-0.1,0.3-0.3,0.4-0.5,0.5c-0.7,0.1-1.5,0.1-2.2,0
		c-0.9-0.1-0.9-0.1-0.9,0.8c0,1.3,0,2.6,0,3.9c0,0.4,0.1,0.6,0.6,0.6c0.8,0,1.6,0,2.4,0c0.3,0,0.4,0.1,0.3,0.3
		c0,0.4,0.1,0.8,0.1,1.2c0,0.5-0.2,0.7-0.7,0.7c-0.7,0-1.4,0-2.2,0c-0.4,0-0.5,0.1-0.5,0.5c0,1.4,0,2.7,0,4.1c0,0.3,0,0.5,0,0.8
		c0,0.3,0.2,0.5,0.5,0.5c0.5,0,0.9,0,1.4,0c0.5,0,1.1,0,1.6,0.1c0.1,0,0.2,0,0.2,0.1C411.8,3852.1,411.8,3852.6,411.7,3853.1z"/>
	<path class="st0" d="M430,3835.8c0,0.6,0,1.1,0,1.7c0,0.2-0.1,0.3-0.3,0.3c-0.8,0.1-1.5,0.1-2.3,0c-1,0-1.1,0.1-1,1.1
		c0.1,1.2,0,2.5,0,3.7c0,0.4,0.1,0.5,0.5,0.5c0.8,0,1.7,0,2.5,0c0.4,0,0.4,0.1,0.4,0.4c0,0.5,0,0.9,0,1.4c0,0.4-0.1,0.5-0.5,0.5
		c-0.8,0-1.6,0-2.5,0c-0.4,0-0.4,0-0.4,0.4c0,1.2,0,2.4,0,3.5h0c0,1.1,0,2.2,0,3.3c0,0.2,0,0.3,0,0.5c0,0.2-0.1,0.3-0.1,0.4l-2.9,0
		c-0.2-0.2-0.3-0.5-0.3-0.9c0.2-3.9,0-7.7,0.1-11.6c0-1.6,0-3.2,0-4.8c0-0.4,0.1-0.6,0.3-0.7c0.1,0,0.3-0.1,0.5-0.1
		c1.9,0,3.9,0,5.8,0c0.1,0,0.2,0,0.3,0.1C430,3835.6,430,3835.7,430,3835.8z"/>
	<path class="st0" d="M458.1,3852.8c-0.1,0.2-0.3,0.3-0.5,0.4c-0.4,0.3-0.8,0.4-1.2,0.5c0,0-0.1,0-0.1,0c-0.3,0-0.5,0.1-0.8,0.1
		c-0.2,0-0.3,0-0.5,0c-0.6,0-1.2-0.2-1.8-0.5c-0.7-0.4-1-1-0.9-1.7c0-0.3,0-0.6,0.1-1c0.1-0.2,0.2-0.3,0.4-0.1
		c0.2,0.1,0.5,0.2,0.7,0.4c0.3,0.1,0.6,0.2,1,0.2c0.5,0,1-0.1,1.3-0.5c0.6-0.8,0.6-1.7,0.2-2.7c-0.3-0.9-0.9-1.7-1.4-2.5
		c-0.5-0.7-1.1-1.4-1.5-2.3c-0.5-1.1-0.8-2.2-0.7-3.4c0.1-1.9,1.2-3.6,3.4-4.1c0.7-0.2,1.5-0.1,2.3,0c0.9,0.2,1.2,0.6,1.1,1.7
		c0,0.2,0,0.4-0.1,0.6c-0.1,0.2-0.1,0.3-0.4,0.2c-0.4-0.2-0.8-0.3-1.2-0.3c-0.7,0-1.2,0.3-1.5,0.9c-0.5,1.1-0.4,2.2,0.1,3.2
		c0.3,0.7,0.7,1.3,1.2,1.9c0.4,0.5,0.8,1.1,1.1,1.7c0.4,0.6,0.7,1.2,0.9,1.9C459.8,3849.4,459.4,3851.2,458.1,3852.8z"/>
	<path class="st0" d="M432,3856.7c-7.8,0-15.5,0-23.3,0c-0.3,0-0.5,0-0.8-0.1c-0.1,0-0.2-0.1-0.2-0.2c0-0.2,0.1-0.3,0.2-0.3
		c0.4,0,0.7,0,1.1,0c3.3,0,6.6,0,10,0c12,0,24,0,35.9,0c0.3,0,0.6,0,0.9,0.1c0.1,0.1,0.2,0.1,0.2,0.3c0,0.1-0.2,0.2-0.3,0.2
		c-0.2,0-0.4,0-0.6,0C447.4,3856.7,439.7,3856.7,432,3856.7L432,3856.7z"/>
	<path class="st0" d="M444.2,3860.9c0-0.2-0.1-0.4-0.2-0.6c-0.1,0-0.1-0.1-0.1-0.1c-0.3-0.6-0.6-0.9-1.3-0.9c-0.5,0-1.1,0-1.6,0
		c-0.7,0-0.8,0.2-0.8,0.8c0,2.1,0,4.2,0,6.2c0,0.4,0,0.8,0,1.2c0,0.2,0,0.3,0.2,0.4c0.7,0.1,1.4,0.1,2.1,0.1c0.4,0,0.9-0.2,1.2-0.5
		c0.1-0.2,0.3-0.4,0.3-0.6c0.2-0.8,0.3-1.6,0.3-2.4C444.5,3863.3,444.4,3862.1,444.2,3860.9z M443.1,3864.3c0,0.6,0,1.2-0.2,1.8
		c-0.1,0.4-0.3,0.5-0.8,0.4c-0.3,0-0.4-0.2-0.5-0.5c-0.1-0.3,0-0.7,0-1c0-1.3,0-2.6,0-4c0-0.4,0.2-0.5,0.5-0.5
		c0.5,0,0.8,0.3,0.9,0.8c0.1,0.3,0,0.5,0,0.8C443,3862.9,443.1,3863.6,443.1,3864.3z"/>
	<path class="st0" d="M454.5,3867.6c-0.1-0.5-0.1-1.1-0.1-1.6c0-0.6-0.1-1.2-0.1-1.8c0-0.2-0.1-0.3-0.3-0.4
		c-0.4-0.3-0.5-0.4-0.1-0.7c0.5-0.6,0.6-1.3,0.5-2.1c-0.1-0.5-0.4-1-0.7-1.4c-0.2-0.2-0.5-0.3-0.7-0.3c-0.7-0.1-1.5-0.1-2.2,0
		c-0.2,0-0.3,0.2-0.3,0.4c-0.1,0.4,0,0.8,0,1.1c0,2.3,0,4.6,0,6.9c0.9,0.3,1.3,0.1,1.2-0.7c0-0.5,0-1.1,0-1.6c0-0.3,0-0.6,0.1-0.9
		c0-0.1,0.1-0.2,0.2-0.2c0.2,0,0.4-0.1,0.6,0c0,0,0.1,0.1,0.1,0.1c0.3,0.2,0.5,0.4,0.5,0.8c0,0.7,0,1.4,0.1,2c0,0.4,0.2,0.5,0.6,0.6
		c0.2,0,0.4,0,0.6,0C454.4,3867.8,454.5,3867.8,454.5,3867.6z M453,3862.3c-0.1,0.4-0.3,0.6-0.7,0.6c-0.7,0-0.7,0.1-0.8-0.7
		c-0.1-0.4,0.1-0.7,0-1.1c-0.1-0.2,0.1-0.4,0.4-0.4c0.2,0,0.3,0,0.5,0c0.5,0.1,0.7,0.3,0.7,0.8C453.1,3861.7,453.1,3862,453,3862.3z
		"/>
	<path class="st0" d="M449.3,3861.2c0-0.2,0-0.5-0.3-0.6c-0.1,0,0-0.1,0-0.1c0-0.8-0.5-1.2-1.1-1.4c-0.1,0-0.3,0-0.4-0.1
		c-0.8-0.2-1.8,0.5-2,1.4c-0.2,1-0.3,2-0.3,3.1c0,1.1,0.1,2.1,0.3,3.2c0.1,0.8,0.6,1.2,1.2,1.4c0.6,0.2,1.1,0.2,1.6-0.1
		c0.3-0.4,0.8-0.8,0.9-1.4c0.1-0.4,0.1-0.8,0.1-1.2C449.4,3864,449.4,3862.6,449.3,3861.2z M448.1,3862c0,0.6,0,1.2,0,1.8h0
		c0,0.7,0,1.4,0,2.1c0,0.3-0.2,0.5-0.4,0.7c-0.3,0.2-0.7,0.2-0.9-0.2c-0.2-0.3-0.2-0.5-0.2-0.8c0-1.3-0.1-2.5,0-3.8
		c0-0.3,0-0.7,0.2-1c0.2-0.2,0.4-0.3,0.7-0.3c0.3,0,0.4,0.2,0.5,0.5C448,3861.3,448.1,3861.6,448.1,3862z"/>
	<path class="st0" d="M408.9,3862.2c-0.1-0.5,0-1.1-0.2-1.6c-0.2-0.7-0.7-1.1-1.4-1.3c-0.6-0.1-1.2,0-1.9,0c-0.4,0-0.5,0.1-0.5,0.5
		c0,1.3,0,2.6,0,3.8h0.1c0,1.3,0,2.6,0,3.9c0,0.2,0,0.3,0.2,0.3c0.7,0,1.4,0.1,2,0c0.7-0.1,1.2-0.4,1.3-1.2c0.2-0.8,0.3-1.7,0.3-2.5
		C408.9,3863.5,409,3862.8,408.9,3862.2z M407.7,3864.9c0,0.3-0.1,0.6-0.1,0.9c-0.1,0.5-0.4,0.7-0.8,0.7c-0.6,0-0.6,0-0.6-0.6v-2.4
		c0-0.9,0-1.7,0-2.6c0-0.2,0-0.3,0.3-0.3c0.1,0,0.2,0,0.3,0c0.6,0,0.8,0.2,0.9,0.8C407.8,3862.6,407.7,3863.7,407.7,3864.9z"/>
	<path class="st0" d="M459.4,3867.5c-0.2-0.5-0.2-1-0.3-1.5c-0.2-1.1-0.3-2.2-0.6-3.2c-0.1-0.4,0-0.9-0.2-1.3
		c-0.2-0.4-0.2-0.9-0.2-1.3c0-0.5-0.2-0.6-0.6-0.8c-0.7-0.2-1.3,0.1-1.2,0.7c0,0.5-0.2,0.9-0.3,1.3c-0.1,0.7-0.2,1.3-0.4,2
		c-0.2,1-0.4,2-0.5,3.1c0,0.4-0.1,0.7-0.2,1.1c0,0.1,0,0.3,0.1,0.3c0.2,0,0.4,0.1,0.6,0.1c0.2,0,0.4-0.1,0.4-0.3
		c0-0.4,0.2-0.7,0.2-1.1c0-0.8,0.1-0.8,0.8-0.8c0,0,0,0,0.1,0c0.3,0,0.4,0.1,0.5,0.4c0.1,0.3,0.1,0.7,0.2,1c0.1,0.3,0,0.6,0.3,0.7
		c0.3,0.1,0.5-0.1,0.8,0c0,0,0,0,0.1,0C459.4,3867.8,459.4,3867.6,459.4,3867.5z M456.7,3864.4l0.4-3.1l0.6,3.1H456.7z"/>
	<path class="st0" d="M415.7,3860.5C415.7,3860.5,415.7,3860.6,415.7,3860.5c0.2,0.4,0.1,0.8,0,1.1c-0.1,0.2-0.3,0.3-0.5,0.3
		c-0.2,0-0.4,0-0.6-0.1c-0.1-0.3,0-0.7-0.2-1c-0.2-0.4-0.6-0.5-0.9-0.2c-0.2,0.2-0.3,0.5-0.2,0.8c0.1,0.6,0.5,1,0.9,1.4
		c0.4,0.3,0.8,0.7,1.1,1c0.3,0.4,0.5,0.9,0.6,1.4c0.1,0.7,0,1.4-0.4,2c-0.8,1.2-2.6,1-3.2-0.1c0-0.1-0.1-0.1-0.1-0.2
		c-0.1-0.1-0.1-0.1-0.1-0.2c0-0.4-0.1-0.8-0.1-1.2c0-0.3,0.1-0.5,0.4-0.6c0.3-0.1,0.6-0.1,0.9,0.1c0.1,0.1,0.1,0.3,0.1,0.4
		c0,0.3,0,0.6,0.1,0.9c0.1,0.2,0.2,0.3,0.3,0.4c0.2,0.1,0.5,0.1,0.6-0.2c0.2-0.4,0.2-0.7,0.1-1.1c-0.2-0.5-0.6-0.9-1.1-1.3
		c-0.6-0.5-1.1-1.1-1.3-1.9c-0.2-0.8-0.1-1.5,0.2-2.2c0.1-0.2,0.3-0.4,0.5-0.5h0c0.6-0.4,1.2-0.5,1.8-0.1
		C415.2,3859.5,415.6,3859.9,415.7,3860.5z"/>
	<path class="st0" d="M419,3864.2c0,1.1,0,2.1,0,3.2c0,0.3-0.2,0.5-0.7,0.5c-0.3,0-0.4-0.1-0.4-0.5c0-0.7-0.1-1.3-0.1-2
		c0-1.4,0-2.8,0-4.2c0-0.5-0.2-0.6-0.6-0.6c-0.6,0-0.6,0-0.7-0.6c0-0.5,0.1-0.6,0.6-0.6c0.8,0,1.6,0,2.3-0.1c0.2,0,0.4,0,0.6,0
		c0.3,0,0.4,0.2,0.4,0.5c0,0.2,0,0.3-0.1,0.5c0,0.2-0.2,0.3-0.4,0.3c-0.2,0-0.4,0-0.6,0c-0.2,0-0.3,0.1-0.3,0.3
		C419,3862,419,3863.1,419,3864.2C419,3864.2,419,3864.2,419,3864.2z"/>
	<path class="st0" d="M426,3859.5c0-0.1,0-0.1,0-0.2c0.4-0.2,0.9-0.2,1.3,0.1c0.1,0.1,0.1,0.2,0.1,0.3c-0.1,2,0,4.1,0,6.1
		c0,0.6,0.1,1.3-0.1,1.9c-0.3,0.3-0.6,0.1-0.9,0.2c-0.4-0.1-0.4-0.1-0.5-0.5c0-2.4,0-4.9,0-7.3C426,3859.9,426,3859.7,426,3859.5z"
		/>
	<path class="st0" d="M438,3863.7c0-1.2,0-2.5,0-3.7c0-0.7,0.3-0.8,0.9-0.6c0.3,0.1,0.3,0.4,0.3,0.6c0,0.9,0,1.8,0,2.7
		c0,1.6,0,3.2,0,4.8c0,0.3-0.1,0.4-0.4,0.4c-0.7,0-0.7,0-0.7-0.8C438,3865.9,438,3864.8,438,3863.7
		C438,3863.7,438,3863.7,438,3863.7z"/>
	<path class="st0" d="M347.8,3851.2c-0.3-0.2-0.4-0.4-0.5-0.8c-0.2,0.2-0.2,0.5-0.1,0.7c0.1,0.4,0.2,0.9,0.2,1.3
		c-0.1,0-0.1-0.1-0.1-0.2c0-0.7-0.3-1.4-0.2-2c0-0.1,0-0.2,0.1-0.2c0.1,0,0.1,0,0.2,0.1C347.3,3850.5,347.7,3850.8,347.8,3851.2z"/>
	<polygon class="st0" points="416.9,3840.2 416.9,3840.2 416.9,3840.2 	"/>
	<polygon class="st0" points="416.9,3840.2 416.9,3840.2 416.9,3840.2 	"/>
	<path class="st0" d="M434.2,3862.8c0,1,0,2.1,0,3.1c0,0.6,0.6,0.9,1.1,0.7c0.1-0.1,0.2-0.2,0.2-0.3c0.2-0.8,0.2-1.7,0.1-2.5
		c0-1.3,0-2.6,0-4c0-0.2,0-0.4,0.3-0.5c0.3-0.1,0.6-0.1,0.8,0c0.1,0.1,0.1,0.2,0.1,0.3c0,2,0.1,4.1,0,6.1c0,0.4-0.1,0.7-0.2,1.1
		c-0.2,0.9-0.9,1.2-1.7,1.3c-1.2,0.1-2.1-0.9-2.1-2.1c0-2.1,0-4.2,0-6.3c0-0.3,0.1-0.4,0.5-0.4c0.7,0.1,0.7,0.1,0.7,0.7
		C434.1,3861,434.1,3861.9,434.2,3862.8C434.1,3862.8,434.2,3862.8,434.2,3862.8z"/>
	<path class="st0" d="M431.8,3864.1c0-0.2-0.1-0.4-0.3-0.5c-0.3-0.2-0.3-0.4-0.1-0.7c0.5-0.9,0.6-1.8,0.1-2.7
		c-0.2-0.4-0.4-0.8-0.8-0.8c-0.7,0-1.4-0.1-2.1-0.1c-0.3,0-0.4,0.2-0.4,0.4c0,1.3,0,2.5,0,3.8h0c0,0.8,0,1.6,0,2.4c0,0.5,0,1,0,1.5
		c0,0.3,0,0.4,0.4,0.4c0.3,0,0.6,0,1,0.1c1.3,0.1,1.9-0.4,2.3-1.5C432.1,3865.6,432,3864.9,431.8,3864.1z M429.7,3860.7
		c0.2-0.1,0.5-0.1,0.7,0.1c0.4,0.4,0.4,0.8,0.2,1.3c-0.1,0.4-0.3,0.6-0.7,0.8c-0.2,0-0.2,0-0.3-0.1c-0.1-0.4-0.1-0.7-0.1-1.1
		c0-0.2,0-0.4,0-0.5C429.5,3860.9,429.4,3860.7,429.7,3860.7z M430.5,3866.4c-0.1,0.2-0.3,0.3-0.5,0.2c-0.2-0.1-0.5-0.2-0.5-0.5
		c0-0.3,0-0.5,0-0.8h0c0-0.2,0-0.5,0-0.7c0-0.2,0-0.5,0.3-0.6c0.2-0.1,0.7,0.1,0.8,0.3C430.9,3864.8,430.8,3865.9,430.5,3866.4z"/>
	<path class="st0" d="M411.1,3863.7c0,1.2,0,2.5,0,3.7c0,0.3-0.3,0.5-0.7,0.5c-0.2,0-0.4-0.2-0.4-0.5c0-1,0-2,0-3.1
		c0-1.4,0-2.8,0-4.2c0-0.1,0-0.2,0-0.3c-0.1-0.4,0.2-0.7,0.6-0.6c0.4,0.1,0.6,0.3,0.6,0.8C411.2,3861.3,411.2,3862.5,411.1,3863.7
		C411.1,3863.7,411.1,3863.7,411.1,3863.7z"/>
	<path class="st0" d="M352.3,3844.8c1.3,0.1,2.4,0.9,2.4,2.4c0,1.3-1.1,2.2-2.2,2.2c-1.3,0-2.5-1.2-2.4-2.4
		C350.1,3845.9,351.2,3844.7,352.3,3844.8z"/>
	<path class="st0" d="M425.1,3867.6c-0.1-0.8-0.2-1.6-0.2-2.4c0-0.6-0.1-1.1-0.5-1.5c-0.2-0.2-0.2-0.4,0-0.6
		c0.2-0.2,0.3-0.4,0.4-0.7c0.2-0.6,0.1-1.2,0-1.8c-0.1-0.8-0.6-1.2-1.4-1.3c-0.7-0.1-1.4,0-2,0c-0.4,0-0.4,0.1-0.4,0.4v6.8
		c0,0.3,0,0.7,0,1c0,0.2,0.1,0.3,0.3,0.3c0.3,0,0.5,0,0.8,0c0.1-1,0.1-2.1,0.1-3.1c0-0.5,0-0.5,0.5-0.5c0.6,0,1,0.4,1,1
		c0,0.8,0,1.6,0.1,2.4c0,0.1,0,0.2,0.1,0.2c0.3,0.1,0.7,0,1.1,0C425.1,3867.8,425.1,3867.8,425.1,3867.6z M423.7,3861.7
		c0,0.2,0,0.5-0.1,0.7c-0.3,0.4-0.7,0.6-1.2,0.4c-0.2-0.1-0.3-0.2-0.3-0.4c0-0.5,0-1,0.1-1.5c0-0.2,0.1-0.3,0.3-0.3
		c0.2-0.1,0.5-0.1,0.7-0.1c0.2,0,0.5,0.5,0.5,0.8C423.7,3861.5,423.7,3861.6,423.7,3861.7z"/>
	<path class="st0" d="M455.5,3853.8c-0.2,0-0.3,0-0.5,0L455.5,3853.8z"/>
	<path class="st0" d="M411.2,3835.5c0.1,0,0.2,0,0.3,0.1H405l0.2,0l1-0.1C407.8,3835.5,409.5,3835.5,411.2,3835.5z"/>
	<path class="st0" d="M418.3,3835.5c0.3,0,0.4,0.1,0.6,0.1h-3.3c0.1,0,0.3,0,0.4-0.1c0.3,0,0.6,0,0.9,0c0,0,0,0,0,0
		C417.3,3835.5,417.8,3835.4,418.3,3835.5z"/>
	<path class="st0" d="M429.7,3835.5c0.1,0,0.2,0,0.3,0.1h-6.5c0.1,0,0.3-0.1,0.5-0.1C425.8,3835.5,427.8,3835.5,429.7,3835.5z"/>
	<path class="st0" d="M435.7,3835.5c0.2,0,0.4,0,0.6,0.1h-4.6c0.1,0,0.2-0.1,0.4-0.1C433.3,3835.5,434.5,3835.5,435.7,3835.5z"/>
	<path class="st0" d="M447,3835.6h-1.5C446,3835.5,446.5,3835.5,447,3835.6z"/>
</g>
<g>
	<path class="st0" d="M96.7,26.7c0-4.8,0-9.6,0-14.4c0-0.3,0-0.5,0-0.8c0-0.1,0-0.2,0-0.3c0-0.2-0.2-0.3-0.4-0.4c-0.2,0-0.3,0-0.5,0
		c-2,0-4,0-6,0c-0.1,0-0.3,0-0.4,0c-11.8,0-23.6,0-35.3,0c-2.1,0-4.2,0-6.3,0c-0.2,0-0.4,0-0.6,0c-0.2,0.1-0.4,0.2-0.4,0.4
		c0,0.1,0,0.2,0,0.3c0,0.2,0,0.5,0,0.7c0,11.1,0,22.1,0,33.2c0,4.7,0,9.4,0,14.2c0,0.2,0,0.4,0,0.6c0.1,0.2,0.2,0.4,0.4,0.4
		c0.1,0,0.2,0,0.4,0c7.3,0,14.6,0,21.9,0c9.2,0,18.5,0,27.7,0c0.2,0,0.5,0,0.7,0c0.1,0,0.2,0,0.2,0c0.2,0,0.2,0.1,0.3,0.2
		c0,0,0,0,0,0c0,0.1,0,0.1,0,0.2v1c-0.1,0.1,0,0.3,0,0.4c0,0,0,0,0,0.1H98c-0.1-0.1-0.2,0-0.3,0c-15.3,0-30.7,0-46,0h0
		c-1.7,0-3.5,0-5.2,0c-0.1,0-0.2,0-0.3,0h-0.6c-0.4-0.1-0.4-0.1-0.5-0.6v-3.1c0-0.1,0-0.2,0-0.3c0-2.7,0-5.3,0-8V19.2
		c0-2.2,0-4.4,0-6.6c0-0.1,0-0.2,0-0.3V9.6c0,0,0-0.1,0-0.1C45,9.1,45.1,9,45.5,9h52.4c0.4,0,0.4,0.1,0.5,0.4V36h-1.7c0,0,0,0,0,0
		c0-0.1,0-0.3,0-0.4C96.7,32.6,96.7,29.7,96.7,26.7z"/>
	<path class="st0" d="M98.4,57.2c-0.1,0.1,0,0.2-0.1,0.4c-0.3,0.5-0.9,0.8-1.4,0.6c-0.5-0.2-0.8-0.7-0.8-1.1c0-0.5,0.4-1,0.9-1.1
		c0.5-0.1,1,0.1,1.3,0.5c0.1,0.1,0.1,0.3,0.2,0.5C98.4,56.9,98.4,57,98.4,57.2z"/>
	<path class="st0" d="M51.6,62.4c0.1,0,0.2,0,0.3,0c15.3,0,30.5,0,45.8,0c0.1,0,0.2,0,0.3,0C82.5,62.5,67.1,62.5,51.6,62.4
		C51.6,62.5,51.6,62.4,51.6,62.4C51.6,62.4,51.6,62.4,51.6,62.4z"/>
	<path class="st0" d="M44.9,50.5C45,50.5,45,50.5,44.9,50.5C45,51,45,51.5,45,51.9c0,1.3,0,2.5,0,3.8c0,0.9,0,1.8,0,2.8
		c0,0.1,0,0.2,0,0.2C44.9,56,44.9,53.2,44.9,50.5z"/>
	<path class="st0" d="M86.1,9C86.1,9,86.1,9,86.1,9c2.6,0,5.2,0,7.9,0c0,0,0,0,0,0c0,0,0,0,0,0c-0.7,0-1.4,0-2.1,0
		c-1.9,0-3.7,0-5.6,0C86.2,9.1,86.1,9,86.1,9z"/>
	<path class="st0" d="M45,19.2C45,19.2,45,19.2,45,19.2c-0.1-2.3-0.1-4.6-0.1-6.8c0.1,0,0,0.1,0,0.2c0,2.2,0,4.4,0,6.5
		C45,19.1,45,19.2,45,19.2z"/>
	<path class="st0" d="M51.6,62.4C51.6,62.4,51.6,62.4,51.6,62.4c-1.8,0-3.7,0-5.5,0c0.1-0.1,0.1,0,0.2,0
		C48.1,62.4,49.8,62.4,51.6,62.4C51.6,62.4,51.6,62.4,51.6,62.4z"/>
	<path class="st0" d="M93.9,9C93.9,9,93.9,9,93.9,9c1.4,0,2.7,0,4.1,0c0,0,0,0,0,0c0,0,0,0,0,0c-0.1,0-0.3,0-0.4,0
		c-1.1,0-2.3,0-3.4,0C94.1,9.1,94,9,93.9,9z"/>
	<path class="st0" d="M74.5,55.5c0-0.7,0-1.4,0-2.1c0-0.2,0-0.3-0.1-0.5c-0.1-0.2-0.2-0.3-0.3-0.3c-0.3,0-0.6,0-1,0.1
		c-0.1,0-0.1,0.1-0.1,0.1c0,0.4-0.1,0.8-0.1,1.2c0,1.1,0,2.1,0,3.2c0,0.2,0,0.3,0,0.5c-0.1,0.3-0.2,0.4-0.5,0.4c0,0-0.1,0-0.1,0
		c-0.3-0.1-0.6,0-0.9,0c-0.3,0.1-0.6-0.2-0.6-0.5c0.1-0.9,0.1-1.9,0-2.8c0-0.3,0-0.6,0-1c0-0.3,0-0.5,0.1-0.8
		c0.1-0.3-0.1-0.5-0.4-0.5c-0.3,0-0.5,0-0.4-0.5c0-0.1,0-0.3,0-0.4c0-0.3,0.1-0.3,0.3-0.4c0.4,0,0.4-0.1,0.4-0.4
		c0-0.4,0.1-0.8,0.2-1.1c0.4-0.8,1-1.3,1.9-1.4c0.3,0,0.7,0,1,0.1c0.4,0.1,0.4,0.2,0.4,0.6c0,0.1,0,0.3,0,0.4
		c0.1,0.3-0.1,0.5-0.4,0.4c-0.4-0.1-0.7,0.1-0.9,0.3c-0.2,0.2-0.3,0.4-0.2,0.7c0,0.3,0.2,0.5,0.5,0.5c0.3,0,0.6-0.1,0.9-0.1
		c0.2,0,0.2-0.1,0.2-0.3c0-0.3,0-0.6,0.1-0.8c0.3-1.4,1.8-2.2,3.2-1.7c0.3,0.1,0.3,0.2,0.3,0.5c0,0.2-0.1,0.4,0,0.6
		c0,0.2-0.1,0.3-0.3,0.3c-0.1,0-0.1,0-0.2,0c-0.3,0-0.6,0.1-0.8,0.3c-0.2,0.1-0.3,0.3-0.3,0.5c0,0.2,0,0.3,0.1,0.5
		c0,0.1,0.1,0.2,0.3,0.2c0.1,0,0.2,0,0.2,0c0.1,0,0.3,0,0.4,0c0.3,0,0.5,0.2,0.4,0.5c0,0.2,0,0.5,0,0.7c0,0.1,0,0.1-0.1,0.1
		c-0.3,0-0.6,0-0.9,0c-0.2,0-0.3,0-0.3,0.2c0,0.1,0,0.2,0,0.4c0,0.3,0,0.6,0,0.9c-0.1,1.1,0,2.2,0,3.3c0,0.1,0,0.2,0,0.3
		c0,0.2-0.2,0.3-0.3,0.3c-0.1,0-0.1,0-0.2,0c-0.4,0-0.7,0-1.1,0c-0.3,0-0.4-0.1-0.4-0.4C74.5,57,74.5,56.2,74.5,55.5
		C74.5,55.5,74.5,55.5,74.5,55.5z"/>
	<path class="st0" d="M80.9,42.6c-0.3-1.3-1.1-2.2-2.3-2.7c-0.1,0-0.2-0.1-0.3-0.1c-0.4,0-0.7,0-1.1,0.1c-0.6,0.1-1.1,0.4-1.5,0.9
		c0,0,0,0.1-0.1,0.1c0-0.9,0-1.7,0-2.6c0-0.1,0-0.3,0-0.4c0-0.3-0.2-0.4-0.5-0.4c0,0-0.1,0-0.1,0c-0.2,0-0.5,0-0.7,0
		c-0.1,0-0.2,0-0.3,0c-0.3,0-0.4,0.1-0.5,0.4c-0.1,0.2-0.1,0.4-0.1,0.6c0,2.6,0,5.3,0,7.9c0,0.2,0,0.4,0.1,0.6
		c0,0.1,0.1,0.1,0.2,0.1c0.5,0,0.9,0,1.4,0c0.2,0,0.4-0.1,0.4-0.4c0-0.1,0-0.2,0-0.3c0.4,0.5,0.8,0.7,1.4,0.8c0.8,0.1,1.5,0,2.1-0.3
		c0.3-0.1,0.6-0.3,0.8-0.6C80.9,45.1,81.2,43.9,80.9,42.6z M78.8,43.6c0,0.3,0,0.6-0.1,0.9c-0.2,0.7-0.8,1.2-1.5,1.2
		c-0.6,0-1.1-0.3-1.4-0.9c-0.2-0.4-0.2-0.8-0.2-1.2c0-0.4,0-0.7,0.1-1.1c0-0.1,0-0.2,0.1-0.3c0.2-0.6,0.7-0.9,1.3-1
		c0.7,0,1.2,0.3,1.4,0.9C78.7,42.6,78.8,43.1,78.8,43.6z"/>
	<path class="st0" d="M94.5,53.5c-0.3-1.4-1.5-2.5-2.9-2.6c-1-0.1-2,0.2-2.8,0.7c-0.1,0.1-0.1,0.1-0.2,0.2c-0.4,0.5-0.7,1.1-1,1.8
		c0,0.1,0,0.2,0,0.2c0,0.4,0,0.9,0,1.3c0.1,1.3,0.9,2.4,2.2,2.8c0.9,0.3,1.8,0.3,2.7-0.1c0.9-0.3,1.5-1,1.8-1.9
		c0.1-0.2,0-0.3-0.2-0.4c0,0-0.1,0-0.1,0c-0.5,0-1,0.1-1.5,0.2c-0.1,0-0.2,0.1-0.3,0.2c-0.3,0.5-0.9,0.7-1.5,0.6
		c-0.3-0.1-0.5-0.2-0.6-0.4c-0.1-0.2-0.2-0.4-0.3-0.6c-0.2-0.4-0.1-0.6,0.4-0.6c0.6,0,1.3,0,1.9,0v0c0.7,0,1.3,0,2,0
		c0.3,0,0.4-0.1,0.4-0.4C94.6,54.3,94.6,53.9,94.5,53.5z M92.1,53.7c-0.7,0-1.5,0-2.2,0c0,0,0,0,0,0c0.1-0.3,0.1-0.7,0.3-0.9
		c0.4-0.5,1.3-0.6,1.7-0.1c0.2,0.2,0.4,0.5,0.4,0.8C92.4,53.6,92.3,53.7,92.1,53.7z"/>
	<path class="st0" d="M87.5,46.6c-0.1-0.6-0.1-1.3-0.1-1.9c0-0.8,0.1-1.7,0-2.5c-0.1-1.2-0.6-1.8-1.5-2.1c-0.3-0.1-0.6-0.1-0.9-0.2
		c-0.9-0.1-1.7,0.1-2.4,0.5c-0.3,0.2-0.6,0.4-0.8,0.8c-0.1,0.3-0.3,0.6-0.3,0.9c0,0.2,0,0.3,0.2,0.3c0.5,0,0.9,0,1.4,0
		c0.3,0,0.3,0,0.4-0.3c0-0.2,0.1-0.3,0.2-0.4c0.3-0.3,0.7-0.3,1.1-0.2c0.6,0.2,0.7,0.8,0.6,1.2c0,0.1-0.1,0.2-0.3,0.2
		c-0.3-0.1-0.6,0-0.9,0c-0.6,0-1.1,0.1-1.6,0.4c-0.7,0.3-1.2,0.9-1.4,1.7c-0.1,0.6,0,1.1,0.4,1.5c0.4,0.4,0.8,0.6,1.3,0.8
		c0.1,0,0.2,0,0.2,0c0.2,0,0.4,0,0.6,0c0.6-0.1,1.2-0.3,1.5-0.8c0,0,0,0,0.1,0c0,0.1,0,0.2,0.1,0.3c0.1,0.3,0.3,0.4,0.5,0.4
		c0.4-0.1,0.8,0,1.2,0c0,0,0.1,0,0.1,0c0.1,0,0.1-0.1,0.1-0.2C87.5,46.7,87.5,46.7,87.5,46.6z M83.8,45.6c-0.4-0.1-0.6-0.5-0.5-0.9
		c0.1-0.3,0.2-0.5,0.5-0.6c0.3-0.2,0.6-0.2,1-0.2c0.1,0,0.2,0,0.3,0c0.2,0,0.3,0.1,0.3,0.3C85.4,45.1,84.8,45.9,83.8,45.6z"/>
	<path class="st0" d="M70.2,52.9C70.2,52.8,70.2,52.8,70.2,52.9c-0.4-0.9-1.1-1.5-2-1.8c-1.1-0.3-2.2-0.3-3.2,0.2
		c-0.7,0.3-1.2,0.8-1.4,1.5c-0.4,0.9-0.5,1.9-0.2,2.9c0.4,1.3,1.2,2.1,2.5,2.4c0.6,0.1,1.3,0.1,1.9,0c1.2-0.2,2.1-0.9,2.5-2.1
		c0.2-0.5,0.3-1,0.2-1.6C70.5,53.9,70.4,53.3,70.2,52.9z M68.3,55.5c0,0.2-0.1,0.4-0.2,0.5c-0.4,0.7-1,0.8-1.7,0.7
		c-0.3-0.1-0.6-0.3-0.7-0.6c-0.5-1-0.5-2,0-3c0.4-0.9,1.8-0.9,2.3-0.1c0.2,0.4,0.4,0.8,0.4,1.2c0,0.2,0,0.3,0,0.5
		C68.4,54.8,68.3,55.2,68.3,55.5z"/>
	<path class="st0" d="M66.2,46c-0.1,0-0.1,0.1-0.1,0.1c-0.3,0.3-0.6,0.6-1,0.8c-0.7,0.3-1.4,0.3-2.1,0c-0.3-0.1-0.5-0.2-0.7-0.4
		c-0.4-0.3-0.6-0.7-0.6-1.2c-0.1-0.9-0.1-1.7-0.1-2.6c0-0.7,0-1.5,0-2.2c0-0.1,0-0.1,0-0.2c0-0.2,0.1-0.3,0.2-0.3
		c0.4-0.1,0.9-0.1,1.3-0.1c0.3,0,0.4,0.2,0.5,0.5c0,0.3,0,0.6,0,0.9c0,0.7,0,1.4,0,2.1c0,0.2,0,0.5,0,0.7c0,0.2,0,0.4,0,0.5
		c0.1,0.6,0.4,0.9,0.9,0.9c0.7,0.1,1.2-0.2,1.4-0.6c0.1-0.2,0.2-0.5,0.2-0.8c0.1-0.6,0.1-1.3,0.1-1.9c0-0.3,0-0.7,0-1
		c0-0.2,0-0.5,0-0.7c0,0,0,0,0,0c0-0.4,0.1-0.6,0.6-0.6c0.3,0,0.6,0,1,0c0.3,0,0.4,0.2,0.5,0.5c0,0.2,0,0.3,0,0.5c0,0.9,0,1.8,0,2.6
		c0,0.9,0,1.8,0,2.7c0,0.1,0,0.2,0,0.2c0,0.3-0.2,0.5-0.5,0.4c-0.2,0-0.5,0-0.7,0c-0.5,0.1-0.8-0.2-0.8-0.8
		C66.2,46.2,66.2,46.1,66.2,46z"/>
	<path class="st0" d="M89.9,41c0.2-0.2,0.3-0.3,0.5-0.5c0.9-0.8,1.9-0.9,3-0.4c0.6,0.3,0.9,0.8,1.1,1.4c0.1,0.3,0.1,0.6,0.1,0.9
		c0,1.3,0,2.6,0,4c0,0.5-0.1,0.6-0.6,0.6c-0.3,0-0.5,0-0.8,0c-0.1,0-0.2,0-0.3,0c-0.2,0-0.3-0.2-0.3-0.4c0-0.2-0.1-0.4-0.1-0.6
		c0-1.1,0-2.2,0-3.2c0-0.2,0-0.5-0.1-0.7c-0.1-0.3-0.3-0.6-0.7-0.7c-0.7-0.2-1.2,0-1.5,0.7c-0.2,0.5-0.3,1-0.3,1.6
		c0,0.9,0,1.8,0,2.7c0,0.1,0,0.2,0,0.4c0,0.2-0.1,0.3-0.3,0.3c-0.1,0-0.2,0-0.4,0c-0.3,0-0.6,0-0.9,0c-0.4,0-0.5-0.1-0.5-0.4
		c0-0.3,0-0.6,0-0.9c0-1.7,0-3.3,0-5c0-0.5,0.1-0.6,0.6-0.5c0.3,0,0.5,0,0.8,0c0.6,0,0.8,0.2,0.7,0.7C89.9,40.8,89.8,40.9,89.9,41z"
		/>
	<path class="st0" d="M59.6,58.1c-0.5,0-0.9-0.1-1.4-0.2c-0.8-0.2-1.4-0.8-1.8-1.6c-0.4-1-0.5-2-0.2-3c0.3-1.3,1.5-2.3,2.8-2.5
		c0.8-0.1,1.5,0,2.2,0.3c0.4,0.2,0.7,0.4,0.9,0.7c0.3,0.3,0.5,0.7,0.6,1.1c0.1,0.3,0,0.4-0.3,0.5c-0.1,0-0.2,0-0.3,0
		c-0.3,0-0.6,0-0.9,0c-0.3,0-0.5-0.1-0.6-0.4c-0.1-0.1-0.1-0.2-0.1-0.3c-0.1-0.4-0.3-0.6-0.7-0.6c-0.5-0.1-0.9,0-1.2,0.3
		c-0.1,0.1-0.2,0.2-0.2,0.4c-0.4,1-0.4,2,0,3c0.2,0.4,0.4,0.6,0.9,0.7c0.5,0,0.9-0.1,1.1-0.5c0,0,0.1-0.1,0.1-0.1
		c0.1-0.3,0.3-0.4,0.5-0.4c0.4-0.1,0.8-0.2,1.3-0.2c0,0,0.1,0,0.1,0c0.2,0,0.3,0.1,0.3,0.3c0,0.1,0,0.2-0.1,0.3c-0.3,1-1,1.6-2,1.9
		c-0.2,0.1-0.4,0.1-0.6,0.1C60,58.1,59.8,58.1,59.6,58.1z"/>
	<path class="st0" d="M87.4,53.7c-0.3,0-0.6,0-0.9,0c-0.1,0-0.2,0-0.3,0c-0.4,0-0.7-0.2-0.9-0.6c0-0.1-0.1-0.1-0.1-0.2
		c-0.2-0.5-0.6-0.7-1.1-0.6c-0.5,0.1-0.8,0.4-1,0.8c-0.2,0.5-0.3,1.1-0.2,1.6c0,0.4,0.1,0.7,0.2,1.1c0.2,0.4,0.4,0.7,0.9,0.8
		c0.6,0.2,1.2-0.2,1.4-0.7c0.1-0.5,0.3-0.5,0.6-0.5c0.4,0,0.9,0,1.3,0c0.3,0,0.3,0.1,0.2,0.3c-0.1,0.4-0.2,0.7-0.4,1
		c-0.4,0.7-1.1,1-1.8,1.2c-1,0.2-2,0.1-2.9-0.3c-0.1-0.1-0.2-0.1-0.3-0.2c-0.6-0.7-1.1-1.4-1.2-2.4c-0.1-0.6,0-1.1,0.1-1.7
		c0.1-0.3,0.2-0.6,0.4-1c0.1-0.3,0.3-0.6,0.6-0.8c0.7-0.6,1.6-0.9,2.5-0.9c0.8,0,1.6,0.2,2.2,0.8c0.6,0.5,0.9,1.1,0.9,1.8
		C87.4,53.5,87.5,53.6,87.4,53.7z"/>
	<path class="st0" d="M70.8,40.9c0,0,0.1-0.1,0.1-0.1c0.3-0.6,0.8-0.8,1.5-0.9c0,0,0.1,0,0.1,0c0.3,0,0.5,0.2,0.4,0.5
		c0,0.3,0,0.6,0,0.9c0,0.2-0.1,0.3-0.3,0.3c-0.2,0-0.4,0.1-0.6,0.1c-0.1,0-0.3,0.1-0.4,0.1c-0.5,0.2-0.8,0.5-0.9,1
		c-0.1,0.3-0.1,0.6-0.1,0.9c0,0.9,0,1.7,0,2.6c0,0.1,0,0.2,0,0.3c0,0.2-0.1,0.3-0.3,0.4c-0.3,0-0.7,0.1-1,0c-0.5,0-0.7-0.2-0.7-0.7
		c0-0.7,0-1.3,0-2c0-1.2,0-2.4,0-3.6c0-0.1,0-0.3,0-0.4c0.1-0.2,0.2-0.3,0.4-0.3c0.4,0,0.8,0,1.2,0c0.4,0,0.5,0.2,0.6,0.6
		C70.8,40.7,70.8,40.8,70.8,40.9C70.8,40.9,70.8,40.9,70.8,40.9z"/>
	<path class="st0" d="M80.5,54.8c0,0.9,0,1.7,0,2.6c0,0.1,0,0.2,0,0.3c0,0.3-0.1,0.4-0.4,0.4c-0.4,0-0.7,0-1.1,0
		c-0.4,0-0.5-0.2-0.6-0.6c0-0.1,0-0.2,0-0.3c0-1.5,0-2.9,0-4.4c0-0.3,0-0.6,0-0.9c0-0.1,0-0.2,0-0.4c0.1-0.3,0.1-0.4,0.4-0.4
		c0.4,0,0.8,0,1.2,0c0.3,0,0.4,0.2,0.5,0.5c0,0.2,0,0.5,0,0.7C80.5,53.2,80.5,54,80.5,54.8z"/>
	<path class="st0" d="M79.4,50.7c-0.1,0-0.3,0-0.4-0.1c-0.5-0.2-0.7-0.6-0.7-1.1c0-0.4,0.4-0.8,0.9-0.9c0.3,0,0.7,0,0.9,0.2
		c0.3,0.3,0.4,0.8,0.2,1.2C80.3,50.5,79.9,50.7,79.4,50.7z"/>
</g>
</svg>
