<?xml version="1.0" encoding="utf-8"?>
<!-- Generator: Adobe Illustrator 21.0.0, SVG Export Plug-In . SVG Version: 6.00 Build 0)  -->
<svg version="1.1" id="Capa_1" xmlns="http://www.w3.org/2000/svg" xmlns:xlink="http://www.w3.org/1999/xlink" x="0px" y="0px"
	 viewBox="0 0 465.2 387" style="enable-background:new 0 0 465.2 387;" xml:space="preserve">
<style type="text/css">
	.st0{fill:none;stroke:#17DE8B;stroke-width:0.5;stroke-miterlimit:10;}
	.st1{fill:#D9FFE6;}
	.st2{fill:#17DE8B;}
	.st3{fill:#1E212A;}
	.st4{fill:none;stroke:#A6E0CA;stroke-width:0.4227;stroke-miterlimit:10;}
	.st5{fill:none;stroke:#17DE8B;stroke-width:1.5;stroke-miterlimit:10;}
	.st6{fill:#4A3382;}
	.st7{fill:none;stroke:#FFFFFF;stroke-width:0.75;stroke-miterlimit:10;}
	.st8{fill:#71CA93;}
	.st9{fill:#FFFFFF;}
	.st10{enable-background:new    ;}
	.st11{fill:#FEFDFF;}
	.st12{fill:#262E3A;}
	.st13{fill:#97614E;}
	.st14{fill:#262127;}
	.st15{fill:none;stroke:#7D463B;stroke-width:0.5352;stroke-linecap:round;stroke-linejoin:round;stroke-miterlimit:10;}
	.st16{fill:none;stroke:#7D463B;stroke-width:0.5164;stroke-linecap:round;stroke-linejoin:round;stroke-miterlimit:10;}
	.st17{fill:#303744;}
	.st18{fill:#5D4A99;}
	.st19{fill:#4B3884;}
	.st20{fill:#17AF6A;}
	.st21{fill:none;stroke:#17AF6A;stroke-miterlimit:10;}
	.st22{fill:#0C0006;}
	.st23{fill:#2C3236;}
	.st24{fill:none;stroke:#303744;stroke-miterlimit:10;}
	.st25{fill:#FDFDFD;}
</style>
<g>
	<g>
		<g>
			<path class="st0" d="M360,276H113.2c-3.1,0-5.6-2.5-5.6-5.6V133c0-3.1,2.5-5.6,5.6-5.6H360c3.1,0,5.6,2.5,5.6,5.6v137.3
				C365.7,273.4,363.1,276,360,276z"/>
			<path class="st1" d="M373.6,264.1H126.9c-3.1,0-5.6-2.5-5.6-5.6V121.2c0-3.1,2.5-5.6,5.6-5.6h246.8c3.1,0,5.6,2.5,5.6,5.6v137.3
				C379.3,261.6,376.7,264.1,373.6,264.1z"/>
			<g>
				<circle class="st2" cx="140.8" cy="125.1" r="3.1"/>
				<circle class="st3" cx="151.1" cy="125.1" r="3.1"/>
				<g>
					<path class="st3" d="M161.5,122.4c1.4,0,2.6,1.2,2.6,2.6s-1.2,2.6-2.6,2.6c-1.4,0-2.6-1.2-2.6-2.6S160.1,122.4,161.5,122.4
						 M161.5,121.9c-1.7,0-3.1,1.4-3.1,3.1s1.4,3.1,3.1,3.1c1.7,0,3.1-1.4,3.1-3.1S163.2,121.9,161.5,121.9L161.5,121.9z"/>
				</g>
			</g>
		</g>
		<g>
			<path class="st4" d="M353.2,237.5h-93.6c-1.4,0-2.5-1.1-2.5-2.5V131.6c0-1.4,1.1-2.5,2.5-2.5h93.6c1.4,0,2.5,1.1,2.5,2.5v103.3
				C355.8,236.3,354.6,237.5,353.2,237.5z"/>
			<path class="st4" d="M331.6,203.2h-50.2c-3,0-5.4-2.4-5.4-5.4v-52c0-3,2.4-5.4,5.4-5.4h50.2c3,0,5.4,2.4,5.4,5.4v52
				C337,200.8,334.5,203.2,331.6,203.2z"/>
		</g>
		<g>
			<path class="st4" d="M182.2,183.8h-44.3c-3,0-5.4-2.4-5.4-5.4v-19.5c0-3,2.4-5.4,5.4-5.4h44.3c3,0,5.4,2.4,5.4,5.4v19.5
				C187.6,181.3,185.2,183.8,182.2,183.8z"/>
			<g>
				<line class="st4" x1="140.9" y1="162.4" x2="179" y2="162.4"/>
				<line class="st4" x1="140.9" y1="168.5" x2="153.6" y2="168.5"/>
				<line class="st4" x1="140.9" y1="174.7" x2="166.9" y2="174.7"/>
			</g>
		</g>
	</g>
	<g>
		<path class="st5" d="M88.1,95.4H71.5c-0.8,0-1.5,0.7-1.5,1.6v9.3c0,0.9,0.7,1.6,1.5,1.6h6.8l5.7,6.3V108l4.2-0.1
			c0.8,0,1.5-0.7,1.5-1.6v-9.5C89.6,96.1,88.9,95.4,88.1,95.4z"/>
		<ellipse class="st5" cx="399" cy="292" rx="4.6" ry="4.7"/>
		<ellipse class="st5" cx="43.6" cy="252.2" rx="3.4" ry="3.4"/>
		<rect x="263.4" y="73.1" class="st5" width="7" height="7.1"/>
	</g>
	<g>
		<g>
			<path class="st6" d="M394.2,215.4h-87.5c-1.4,0-2.5-1.1-2.5-2.5v-20.3c0-1.4,1.1-2.5,2.5-2.5h87.5c1.4,0,2.5,1.1,2.5,2.5v20.3
				C396.7,214.3,395.6,215.4,394.2,215.4z"/>
			<g>
				<line class="st7" x1="313.8" y1="200.2" x2="381.6" y2="200.2"/>
				<line class="st7" x1="313.8" y1="206.3" x2="326.3" y2="206.3"/>
			</g>
		</g>
	</g>
	<g>
		<path class="st2" d="M53.2,174.1h38.1v-19.3c0-1.6-1.3-2.9-2.9-2.9H53.2c-1.6,0-2.9,1.3-2.9,2.9v16.4
			C50.4,172.8,51.6,174.1,53.2,174.1z"/>
		<polygon class="st8" points="91.4,169.5 91.4,179.3 83,169.5 		"/>
		<g>
			
				<ellipse transform="matrix(1 -3.128906e-03 3.128906e-03 1 -0.5091 0.1951)" class="st9" cx="62.1" cy="162.8" rx="1.8" ry="1.8"/>
			<ellipse transform="matrix(1 -3.128906e-03 3.128906e-03 1 -0.5087 0.2198)" class="st9" cx="70" cy="162.7" rx="1.8" ry="1.8"/>
			
				<ellipse transform="matrix(1 -3.128906e-03 3.128906e-03 1 -0.5087 0.2445)" class="st9" cx="77.9" cy="162.7" rx="1.8" ry="1.8"/>
		</g>
	</g>
	<g>
		<g>
			<path class="st2" d="M360.1,163.4h-68.6c-2.1,0-3.8-1.7-3.8-3.8V99.4c0-2.1,1.7-3.8,3.8-3.8h68.6c2.1,0,3.8,1.7,3.8,3.8v60.3
				C363.9,161.7,362.2,163.4,360.1,163.4z"/>
		</g>
		<g>
			<line class="st7" x1="312.2" y1="130.6" x2="329.1" y2="130.6"/>
			<line class="st7" x1="301.5" y1="138.6" x2="350" y2="138.6"/>
			<line class="st7" x1="301.5" y1="120.4" x2="342.3" y2="120.4"/>
			<line class="st7" x1="301.5" y1="147.7" x2="316.1" y2="147.7"/>
			<line class="st7" x1="319.8" y1="147.7" x2="330.1" y2="147.7"/>
			<line class="st7" x1="301.5" y1="130.6" x2="308" y2="130.6"/>
			<line class="st7" x1="301.5" y1="111.9" x2="308" y2="111.9"/>
		</g>
	</g>
	<g>
		<circle class="st6" cx="360.1" cy="93.6" r="12.6"/>
	</g>
	<g>
		<circle class="st6" cx="177.2" cy="79.1" r="16.3"/>
	</g>
	<g class="st10">
		<path class="st11" d="M171.4,78.5c-0.6-0.6-0.8-1.2-0.8-2s0.3-1.5,0.9-2c0.6-0.6,1.2-0.8,2-0.8s1.5,0.3,2,0.8
			c0.6,0.6,0.9,1.2,0.9,2c0,0.8-0.3,1.5-0.9,2c-0.6,0.5-1.3,0.8-2,0.8C172.6,79.4,171.9,79.1,171.4,78.5z M174.2,85.2h-2l8-11.3h2
			L174.2,85.2z M172.3,76.5c0,0.4,0.1,0.7,0.3,0.9s0.5,0.3,0.8,0.3c0.3,0,0.6-0.1,0.8-0.3s0.3-0.5,0.3-0.9s-0.1-0.7-0.3-0.9
			s-0.5-0.3-0.8-0.3c-0.3,0-0.6,0.1-0.8,0.3C172.4,75.9,172.3,76.2,172.3,76.5z M179,84.5c-0.6-0.6-0.8-1.2-0.8-2s0.3-1.5,0.9-2
			c0.6-0.6,1.2-0.8,2-0.8s1.5,0.3,2,0.8c0.6,0.6,0.9,1.2,0.9,2c0,0.8-0.3,1.5-0.9,2c-0.6,0.5-1.3,0.8-2,0.8
			C180.2,85.3,179.5,85.1,179,84.5z M179.9,82.5c0,0.4,0.1,0.7,0.3,0.9s0.5,0.3,0.8,0.3c0.3,0,0.6-0.1,0.8-0.3s0.3-0.5,0.3-0.9
			s-0.1-0.7-0.3-0.9s-0.5-0.3-0.8-0.3c-0.3,0-0.6,0.1-0.8,0.3S179.9,82.2,179.9,82.5z"/>
	</g>
	<g>
		<g>
			<path class="st12" d="M229.2,282.7h-40.7c-2.4,0-4.3-1.9-4.3-4.3l0,0c0-2.4,1.9-4.3,4.3-4.3h40.7c2.4,0,4.3,1.9,4.3,4.3l0,0
				C233.5,280.8,231.6,282.7,229.2,282.7z"/>
			<g>
				<rect x="202.3" y="331.3" class="st12" width="54.6" height="5"/>
				
					<ellipse transform="matrix(0.9865 -0.1636 0.1636 0.9865 -52.2604 37.6255)" class="st12" cx="202.3" cy="336.1" rx="4.7" ry="4.7"/>
				<rect x="226.9" y="279.9" class="st12" width="5.3" height="54.4"/>
				
					<ellipse transform="matrix(0.9865 -0.1636 0.1636 0.9865 -51.525 46.5581)" class="st12" cx="256.9" cy="336.1" rx="4.7" ry="4.7"/>
			</g>
			<path class="st12" d="M257.2,282.7h-48c-3.3,0-5.6-3.2-4.7-6.4l22.9-79.1c0.6-2.1,2.5-3.6,4.7-3.6h48c3.3,0,5.6,3.2,4.7,6.4
				l-22.9,79.1C261.3,281.2,259.4,282.7,257.2,282.7z"/>
			<path class="st12" d="M250.6,282.7h-41.8c-3.3,0-5.6-3.2-4.7-6.4l22.9-79.1c0.6-2.1,2.5-3.6,4.7-3.6h41.8c3.3,0,5.6,3.2,4.7,6.4
				l-22.9,79.1C254.7,281.2,252.8,282.7,250.6,282.7z"/>
			<path class="st12" d="M257.2,282.7h-50.8c-2.4,0-4.3-1.9-4.3-4.3l0,0c0-2.4,1.9-4.3,4.3-4.3h50.8c2.4,0,4.3,1.9,4.3,4.3l0,0
				C261.5,280.8,259.6,282.7,257.2,282.7z"/>
		</g>
		<g>
			<g>
				<path class="st13" d="M222.5,165.9l2.5,20.4c-0.1,3.6-3,6.5-6.6,6.7l0,0c-3.9,0.2-7.1-2.9-7.2-6.8l-3.2-17.1L222.5,165.9z"/>
			</g>
			<path class="st14" d="M202,151.3c0,0-10.3,0-2.2,13.7l2.2-6.8V151.3z"/>
			<path class="st13" d="M211,183.2L211,183.2c-6.8,0-12.3-4.1-12.3-10.9v-13.5c0-2.9,2.4-5.4,5.4-5.4H218c2.9,0,5.4,2.4,5.4,5.4
				v11.6C223.3,177.2,216.7,183.2,211,183.2z"/>
			<path class="st14" d="M221.3,165.8L221.3,165.8c0,0-7.5-4.1-3.3-12.4h6.9c0,0,1.9-0.5,3.4,1.5s-2.2,10.8-2.2,10.8L221.3,165.8
				L221.3,165.8z"/>
			<circle class="st13" cx="224.3" cy="167.4" r="4.4"/>
			<path class="st14" d="M205.4,143.8c1.3-1,2.9-1.6,4.7-1.6c2,0,3.7,0.7,5,1.9c1.2-0.8,2.6-1.3,4.2-1.3c3.6,0,6.6,4,7.1,7.1
				c2.3,0.2,4.6,1.5,4.6,4c0,2.7-2.5,4-5,4c-1.8,0-3.4-1.1-4.1-2.8c-0.8,0.3-1.6,0.4-2.5,0.4s-1.8-0.2-2.6-0.4
				c-5.4,0.4-16.5,1.9-19.7-1.7C190.5,146,200.7,140.2,205.4,143.8z"/>
			<path class="st14" d="M218.6,161c0,0,0.9,9-1,11.7s-2.9-0.7-10.6-0.9c-4.5-0.1-6.8,0.9-7.8,1.6c-0.6,0.4-0.5,1.1-0.3,1.8
				c0.6,2.3,2.5,7.8,9.8,8.3c7.2,0.5,14.7-3.7,13.4-13.9c-1.5-11.6,2.8-16.2,2.8-16.2L218.6,161z"/>
			<g>
				
					<ellipse transform="matrix(0.9974 -7.153979e-02 7.153979e-02 0.9974 -11.3262 15.5478)" class="st14" cx="211.4" cy="165.9" rx="1" ry="1"/>
				
					<ellipse transform="matrix(0.9974 -7.153979e-02 7.153979e-02 0.9974 -11.3497 14.8901)" class="st14" cx="202.2" cy="165.9" rx="1" ry="1"/>
				<path class="st15" d="M204.7,166.9l-0.3,2.6c0,0,0.2,1.5,2.3,0.9"/>
				<path class="st14" d="M214,163.1c-0.1,0-0.1,0-0.2,0l-4.4-0.2c-0.5,0-0.9-0.4-0.9-0.9s0.4-0.9,0.9-0.9l4.4,0.2
					c0.5,0,0.9,0.4,0.9,0.9C214.7,162.7,214.4,163,214,163.1z"/>
				<path class="st14" d="M203.1,162.8c-0.1,0-0.1,0-0.2,0l-2.7-0.1c-0.5,0-0.9-0.4-0.9-0.9s0.4-0.9,0.9-0.9l2.7,0.1
					c0.5,0,0.9,0.4,0.9,0.9C203.8,162.4,203.5,162.8,203.1,162.8z"/>
				<path class="st16" d="M206.3,174.4c0,0,1.8,0.6,3.5-0.4"/>
			</g>
		</g>
		
			<rect x="149.8" y="315.2" transform="matrix(0.5074 -0.8617 0.8617 0.5074 -199.0564 294.512)" class="st13" width="16.6" height="12.3"/>
		<g>
			<g>
				<g>
					<path id="XMLID_2_" class="st17" d="M160.2,329.9l-13.5-7.9l-14-1.9c-2.9-0.2-5.6,1.3-7.1,3.8l0,0l30.1,16.9L160.2,329.9z"/>
				</g>
			</g>
			<path class="st17" d="M145.4,321.9l5.4-2.3c0,0,5.2,1.9,1.8,6.8L145.4,321.9z"/>
		</g>
		<g>
			<path class="st6" d="M205.9,247.5h-16.6c-7.6,0-14.6,4.4-17.9,11.3l-21.7,53.1l21.4,9.1l20.6-47l35.3,0.3l10.4-26.8L205.9,247.5
				L205.9,247.5z"/>
			
				<rect x="157.5" y="299.2" transform="matrix(0.3866 -0.9222 0.9222 0.3866 -188.697 340.9236)" class="st18" width="8.9" height="26.3"/>
		</g>
		
			<rect x="209.8" y="313.8" transform="matrix(1 -4.229774e-03 4.229774e-03 1 -1.3606 0.9163)" class="st13" width="12.3" height="16.6"/>
		<g>
			<g>
				<g>
					<path id="XMLID_1_" class="st17" d="M222.1,328.4l-15.6,0.1l-13,5.5c-2.6,1.3-4.2,4-4.2,6.9l0,0l34.3-0.1L222.1,328.4z"/>
				</g>
			</g>
			<path class="st17" d="M205.2,329l3.5-4.8c0,0,5.5-1,5,5L205.2,329z"/>
		</g>
		<g>
			<path class="st19" d="M250.1,247.4l0.9,5.3c1.8,11.3-6.9,21.6-18.4,21.6h-5.5v46.8l-22.8,0.3l-1.3-57.3
				c-0.2-9.1,7.2-16.6,16.3-16.6L250.1,247.4z"/>
			<rect x="202.2" y="312.6" class="st18" width="26.3" height="8.9"/>
		</g>
		<g>
			<g>
				<path class="st2" d="M196.4,190.3c0,0-11.3,15.5-19.4,33.8c-0.9,2.1-0.7,4.4,0.5,6.3l0,0c2.8,4.2,10.1,3.2,12.9-0.7
					c0,0,21.5-29.5,20.6-30.7C210.8,198.7,196.4,190.3,196.4,190.3z"/>
				<path class="st2" d="M183.1,218.7l-31-6.2l-2.4,14.6l32.3,6.1c4.7,0.3,8.5-3.8,7.7-8.5l0,0C189.1,221.4,186.4,219,183.1,218.7z"
					/>
				<path class="st20" d="M200.8,215.2l-1.7-7.4c0,0-5.9,18.1-5.7,17.9C193.5,225.5,200.8,215.2,200.8,215.2z"/>
			</g>
			<g>
				<path class="st2" d="M218.4,186.3l-19.5,2.5c-2,0.3-3.4,2-3.2,4l12.6,54.6l41.8-0.1l-6.6-54.5c0.2-2-1.2-3.9-3.3-4.1
					L218.4,186.3z"/>
				<path class="st13" d="M211.6,187.2l-4.7,0.6c0,0-0.7,6.1,8,7.2c8.7,1.1,12.9-3.1,14.6-7.5l-10.4-2L211.6,187.2z"/>
				<path class="st21" d="M204.2,188.1c0,0-0.7,9.8,11.9,9.8c14.3,0,15.6-10.1,15.6-10.1"/>
				<polygon class="st20" points="230.9,206.4 241.2,224.6 221.6,225 234.9,222.4 				"/>
			</g>
			<g>
				<g>
					<g>
						<polygon class="st13" points="214.7,228.7 222.8,228.7 222.6,237.9 215,237.9 						"/>
						
							<ellipse transform="matrix(0.9698 -0.2438 0.2438 0.9698 -50.2981 58.2064)" class="st13" cx="210" cy="232.3" rx="7.9" ry="7.9"/>
					</g>
					<path class="st2" d="M253.3,224.7l-31.6,0.3l0.6,14.8l32.9-0.7c4.7-0.6,7.5-5.5,5.8-9.9l0,0
						C259.7,226.2,256.6,224.3,253.3,224.7z"/>
				</g>
				<path class="st2" d="M227.1,199.1c0,0,10.2,20.3,21.8,36.6c1.3,1.8,4.4,2.7,6.6,2.6l0,0c5.1-0.2,7.2-5.7,5.3-10.1
					c0,0-16.7-38.3-18.9-38.9C241.5,189.3,227.1,199.1,227.1,199.1z"/>
			</g>
		</g>
		<g>
			<g>
				<path class="st22" d="M207.6,236.5h-36.2v-4.1h36.2c1.1,0,2,0.9,2,2l0,0C209.6,235.6,208.7,236.5,207.6,236.5z"/>
				<g>
					<path class="st23" d="M176.1,236.5h-47.9c-2.8,0-5.2-1.8-5.9-4.5l-9.3-33.6c-0.8-3,1.4-5.9,4.5-5.9h44c1.8,0,3.5,1.2,3.9,3
						L176.1,236.5z"/>
					<circle class="st9" cx="142.4" cy="216.4" r="4.5"/>
				</g>
			</g>
			<g>
				<g>
					<line class="st24" x1="90.8" y1="238.3" x2="60.5" y2="340.8"/>
					<line class="st24" x1="122.9" y1="238.3" x2="92.6" y2="340.8"/>
				</g>
				<g>
					<line class="st24" x1="272.7" y1="238.3" x2="303" y2="340.8"/>
					<line class="st24" x1="240.6" y1="238.3" x2="270.8" y2="340.8"/>
				</g>
				<rect x="70.9" y="236.5" class="st17" width="229.2" height="3.7"/>
			</g>
		</g>
	</g>
	<g class="st10">
		<path class="st25" d="M358.4,91.6L357,92c-0.1-0.3-0.2-0.5-0.4-0.8c-0.2-0.2-0.6-0.4-1-0.4c-0.4,0-0.7,0.1-0.9,0.3
			s-0.4,0.4-0.4,0.7c0,0.5,0.3,0.8,0.9,0.9l1.1,0.2c0.7,0.1,1.3,0.4,1.7,0.8s0.6,0.9,0.6,1.5c0,0.7-0.3,1.2-0.8,1.7
			c-0.5,0.5-1.2,0.7-2.1,0.7c-0.5,0-1-0.1-1.4-0.2c-0.4-0.2-0.7-0.4-1-0.6c-0.2-0.3-0.4-0.5-0.6-0.8s-0.2-0.6-0.3-0.9l1.5-0.4
			c0,0.4,0.2,0.8,0.5,1.1c0.3,0.3,0.7,0.4,1.3,0.4c0.4,0,0.7-0.1,1-0.3c0.2-0.2,0.3-0.4,0.3-0.7c0-0.2-0.1-0.4-0.3-0.6
			s-0.4-0.3-0.7-0.3l-1.1-0.2c-0.6-0.1-1.2-0.4-1.5-0.8s-0.6-0.9-0.6-1.5c0-0.7,0.3-1.3,0.8-1.8c0.5-0.5,1.2-0.7,2-0.7
			c0.5,0,0.9,0.1,1.2,0.2c0.4,0.1,0.7,0.3,0.9,0.5s0.4,0.4,0.5,0.7S358.4,91.3,358.4,91.6z"/>
		<path class="st25" d="M364.1,89.6l-4,8.2h-1.4l4-8.2H364.1z"/>
		<path class="st25" d="M365.2,97.5c-0.2-0.2-0.3-0.4-0.3-0.7s0.1-0.5,0.3-0.7s0.4-0.3,0.7-0.3c0.3,0,0.5,0.1,0.7,0.3
			c0.2,0.2,0.3,0.4,0.3,0.7s-0.1,0.5-0.3,0.7c-0.2,0.2-0.4,0.3-0.7,0.3C365.6,97.8,365.4,97.7,365.2,97.5z"/>
	</g>
	<g>
		<line class="st5" x1="281.9" y1="9.3" x2="288.3" y2="15.7"/>
		<line class="st5" x1="288.3" y1="9.3" x2="281.9" y2="15.7"/>
	</g>
	<polygon class="st5" points="239.2,366.4 250.1,368.1 243.2,376.7 	"/>
	<polygon class="st5" points="417.8,53.1 406.9,54.8 413.8,63.4 	"/>
	<path class="st5" d="M403.7,232.4c3.6,0,3.6,2.7,7.2,2.7s3.6-2.7,7.2-2.7s3.6,2.7,7.2,2.7s3.6-2.7,7.2-2.7s3.6,2.7,7.3,2.7
		c3.6,0,3.6-2.7,7.3-2.7"/>
	<path class="st5" d="M18.5,51.6c3.6,0,3.6,2.7,7.2,2.7s3.6-2.7,7.2-2.7s3.6,2.7,7.2,2.7c3.6,0,3.6-2.7,7.2-2.7
		c3.6,0,3.6,2.7,7.3,2.7c3.6,0,3.6-2.7,7.3-2.7"/>
</g>
</svg>
