<?xml version="1.0" encoding="utf-8"?>
<!-- Generator: Adobe Illustrator 21.0.0, SVG Export Plug-In . SVG Version: 6.00 Build 0)  -->
<svg version="1.1" id="Capa_1" xmlns="http://www.w3.org/2000/svg" xmlns:xlink="http://www.w3.org/1999/xlink" x="0px" y="0px"
	 viewBox="0 0 447 363" style="enable-background:new 0 0 447 363;" xml:space="preserve">
<style type="text/css">
	.st0{fill:#FFFFFF;stroke:#CCCCCC;stroke-miterlimit:10;}
	.st1{fill:#FFFFFF;stroke:#D6D6D6;stroke-miterlimit:10;}
	.st2{fill:#17DE8B;}
	.st3{fill:#EAEAEA;}
	.st4{fill:#D6D6D6;}
	.st5{fill:none;stroke:#17DE8B;stroke-width:1.5;stroke-miterlimit:10;}
</style>
<path class="st0" d="M411.5,285.5c0,7.2-5.8,13-13,13H63.5c-7.2,0-13-5.8-13-13V93.5c0-7.2,5.8-13,13-13h335.1c7.2,0,13,5.8,13,13
	V285.5z"/>
<path class="st1" d="M398.5,278.7c0,6.6-3.9,11.8-10.6,11.8H76.9c-6.6,0-13.4-5.2-13.4-11.8V102.8c0-6.6,6.7-11.3,13.4-11.3h311.1
	c6.6,0,10.6,4.8,10.6,11.3V278.7z"/>
<path class="st0" d="M432.7,294.5c0,4-4.1,8-9.2,8H43.4c-5.1,0-9.2-4-9.2-8l0,0c0-4,4.1-8,9.2-8h380.1
	C428.6,286.5,432.7,290.5,432.7,294.5L432.7,294.5z"/>
<rect x="63.5" y="91.5" class="st1" width="61" height="195"/>
<rect x="129.5" y="91.5" class="st1" width="131" height="195"/>
<rect x="129.5" y="265.5" class="st1" width="131" height="21"/>
<rect x="137.5" y="100.5" class="st1" width="117" height="14"/>
<rect x="137.5" y="119.5" class="st1" width="117" height="16"/>
<rect x="137.5" y="139.5" class="st1" width="117" height="16"/>
<rect x="137.5" y="159.5" class="st1" width="117" height="15"/>
<rect x="266.5" y="91.5" class="st1" width="133" height="195"/>
<rect x="273.5" y="119.5" class="st1" width="118" height="11"/>
<rect x="273.5" y="100.5" class="st1" width="118" height="13"/>
<rect x="273.5" y="100.5" class="st1" width="59" height="13"/>
<rect x="273.5" y="137.5" class="st1" width="118" height="10"/>
<rect x="273.5" y="170.5" class="st1" width="118" height="12"/>
<rect x="273.5" y="187.5" class="st1" width="118" height="11"/>
<rect x="273.5" y="155.5" class="st1" width="57" height="10"/>
<rect x="335.5" y="155.5" class="st1" width="56" height="10"/>
<rect x="273" y="263" class="st2" width="119" height="17"/>
<circle class="st2" cx="280.2" cy="107.4" r="3.1"/>
<circle class="st3" cx="339.4" cy="107.4" r="3.1"/>
<g>
	<g>
		<path class="st2" d="M91.8,110.7c0-0.1,0.1-0.1,0.1-0.1H95c0.1,0,0.1,0.1,0.1,0.1v0.4c0,0.1-0.1,0.1-0.1,0.1h-2.4v1.6h2.1
			c0.1,0,0.1,0.1,0.1,0.1v0.4c0,0.1-0.1,0.1-0.1,0.1h-2.1v1.7H95c0.1,0,0.1,0.1,0.1,0.1v0.4c0,0.1-0.1,0.1-0.1,0.1h-3.1
			c-0.1,0-0.1-0.1-0.1-0.1V110.7z"/>
		<path class="st2" d="M97,114c0.3,0,0.6,0.1,0.6,0.1c0-0.5-0.1-0.7-0.5-0.7c-0.4,0-0.7,0.1-0.9,0.1c-0.1,0-0.1,0-0.2-0.1l-0.1-0.3
			c0-0.1,0-0.2,0.1-0.2c0.1,0,0.5-0.2,1.1-0.2c1,0,1.1,0.6,1.1,1.4v1.6c0,0.1-0.1,0.1-0.1,0.1h-0.2c-0.1,0-0.1,0-0.1-0.1l-0.1-0.2
			c-0.2,0.2-0.5,0.4-0.9,0.4c-0.6,0-1-0.4-1-1C95.8,114.4,96.2,114,97,114z M96.9,115.5c0.3,0,0.6-0.2,0.7-0.4v-0.5
			c0,0-0.3-0.1-0.5-0.1c-0.4,0-0.6,0.2-0.6,0.5C96.4,115.2,96.6,115.5,96.9,115.5z"/>
		<path class="st2" d="M99.1,115.5l0.2-0.3c0-0.1,0.1-0.1,0.2,0c0,0,0.3,0.2,0.7,0.2c0.2,0,0.4-0.1,0.4-0.3c0-0.2-0.2-0.3-0.6-0.5
			c-0.5-0.2-0.9-0.5-0.9-1c0-0.4,0.3-0.8,1.1-0.8c0.4,0,0.8,0.1,0.9,0.2c0.1,0,0.1,0.1,0.1,0.2l-0.1,0.3c0,0.1-0.1,0.1-0.2,0.1
			c0,0-0.3-0.2-0.6-0.2c-0.3,0-0.3,0.1-0.3,0.2c0,0.2,0.2,0.3,0.5,0.4c0.6,0.2,1,0.5,1,1.1c0,0.5-0.5,0.9-1.1,0.9
			c-0.5,0-0.9-0.2-1-0.3C99.1,115.7,99,115.6,99.1,115.5z"/>
		<path class="st2" d="M101.6,113.1c0-0.1,0-0.2,0.1-0.2h0.5c0,0,0.1,0,0.1,0.1l1,2.1h0l0.9-2.1c0-0.1,0.1-0.1,0.2-0.1h0.4
			c0.1,0,0.2,0.1,0.1,0.2l-2.4,5.1c0,0-0.1,0.1-0.1,0.1H102c-0.1,0-0.2-0.1-0.1-0.2l1-2.2L101.6,113.1z"/>
		<path class="st2" d="M105.6,110.7c0-0.1,0.1-0.1,0.1-0.1h0.4c0.1,0,0.1,0.1,0.1,0.1v2.3c0.1,0,0.3-0.2,0.7-0.2
			c0.9,0,1.5,0.7,1.5,1.6c0,0.9-0.6,1.6-1.4,1.6c-0.6,0-1-0.4-1-0.4l-0.1,0.2c0,0.1-0.1,0.1-0.1,0.1h-0.2c-0.1,0-0.1-0.1-0.1-0.1
			V110.7z M107,115.3c0.5,0,0.8-0.4,0.8-1c0-0.5-0.4-0.9-0.9-0.9c-0.4,0-0.7,0.2-0.7,0.2v1.3C106.4,115,106.6,115.3,107,115.3z"/>
		<path class="st2" d="M109.3,111.1c0-0.3,0.2-0.5,0.4-0.5c0.3,0,0.5,0.2,0.5,0.5c0,0.2-0.2,0.4-0.5,0.4
			C109.5,111.6,109.3,111.4,109.3,111.1z M109.4,113c0-0.1,0.1-0.1,0.1-0.1h0.4c0.1,0,0.1,0.1,0.1,0.1v2.8c0,0.1-0.1,0.1-0.1,0.1
			h-0.4c-0.1,0-0.1-0.1-0.1-0.1V113z"/>
		<path class="st2" d="M111.1,110.7c0-0.1,0.1-0.1,0.1-0.1h0.4c0.1,0,0.1,0.1,0.1,0.1v5.1c0,0.1-0.1,0.1-0.1,0.1h-0.4
			c-0.1,0-0.1-0.1-0.1-0.1V110.7z"/>
		<path class="st2" d="M112.8,110.7c0-0.1,0.1-0.1,0.1-0.1h0.4c0.1,0,0.1,0.1,0.1,0.1v5.1c0,0.1-0.1,0.1-0.1,0.1H113
			c-0.1,0-0.1-0.1-0.1-0.1V110.7z"/>
	</g>
	<g>
		<g>
			<g>
				<path class="st2" d="M77,112.2c0.5,0.1,0.8,0.2,1.2,0.3c0.4,0.1,0.4,0.1,0.7-0.3c0.2-0.3,0.7-0.6,1.1-0.2
					c0.1,0.1,0.3,0.2,0.3,0.4c0.1,0.1,0.2,0.2,0.3,0.2c0.4,0,0.8,0,1.2-0.1c0.7-0.1,1.2-0.5,1.8-0.8c0.7-0.6,1.3-1.2,1.9-2
					c0,0.2,0,0.2-0.1,0.6l0,0c-0.2,0.8-0.6,1.5-1.1,2.2c-0.5,0.6-1,1-1.6,1.4c-0.3,0.2-0.2,0.3,0.1,0.5c0.2,0.1,0.4,0.1,0.5,0.2l0,0
					c0.6,0.2,1.1,0.5,1.7,0.8c0.6,0.3,1,0.8,1.3,1.3c0.1,0.2,0.1,0.3,0.3,0.6c0-0.1-0.1-0.1-0.1-0.2c-0.2-0.5-1.2-1.3-2.3-1.5
					c-0.6-0.2-1.3-0.1-1.9-0.2c-1.1-0.1-2-0.4-2.7-1.4c-0.2-0.2-0.3-0.4-0.4-0.6c-0.1-0.3-0.4-0.6-0.7-0.7c-0.5-0.2-1-0.4-1.6-0.5
					c-0.5-0.1,0.2,0-0.4-0.1C76.6,112.1,76.8,112.1,77,112.2z"/>
				<path class="st2" d="M81.3,112.5c0.7-0.6,1.4-1.3,1.9-2.1c0,0.2,0,0.2-0.1,0.6l0,0c-0.2,0.8-0.4,1-0.4,1.1c0,0-0.3,0.2-0.9,0.3
					C81.5,112.5,81.3,112.5,81.3,112.5z"/>
			</g>
			<g>
				<path class="st2" d="M83.9,115c0.2,0.1,0.5,0.3,0.7,0.5c0.2,0.2,0.4,0.4,0.5,0.7c0,0.1,0,0.1,0.1,0.3c0-0.1,0-0.1,0-0.1
					c-0.1-0.3-0.5-0.6-0.9-0.9c-0.3-0.1-0.6-0.1-0.8-0.2"/>
			</g>
		</g>
		<g>
			<path class="st2" d="M76,117.1c-0.8-1.2-1.3-2.6-1.2-4.2c0.1-3.5,3.2-6.6,6.7-6.7c1.6,0,3,0.4,4.2,1.2c0.1,0.1,0.3,0.1,0.4,0l0,0
				c0.1-0.1,0.1-0.4,0-0.5c-1.2-0.9-2.7-1.4-4.4-1.4c-4.2,0-7.6,3.4-7.6,7.6c0,1.6,0.5,3.1,1.4,4.4c0.1,0.2,0.4,0.2,0.5,0l0,0
				C76.1,117.4,76.1,117.2,76,117.1z"/>
			<path class="st2" d="M87.4,108.7L87.4,108.7c-0.1,0.1-0.1,0.3,0,0.4c0.8,1.2,1.3,2.6,1.2,4.2c-0.1,3.5-3.2,6.6-6.7,6.7
				c-1.6,0-3-0.4-4.2-1.2c-0.1-0.1-0.3-0.1-0.4,0v0c-0.1,0.1-0.1,0.4,0,0.5c1.2,0.9,2.7,1.4,4.4,1.4c4.2,0,7.6-3.4,7.6-7.6
				c0-1.6-0.5-3.1-1.4-4.4C87.8,108.6,87.6,108.6,87.4,108.7z"/>
		</g>
		<circle class="st2" cx="76.6" cy="118.3" r="0.4"/>
		<circle class="st2" cx="86.9" cy="108.1" r="0.4"/>
	</g>
</g>
<path class="st4" d="M111,137c0,0.6-0.4,1-1,1H76c-0.6,0-1-0.4-1-1l0,0c0-0.6,0.4-1,1-1h34C110.6,136,111,136.4,111,137L111,137z"/>
<path class="st4" d="M111,147c0,0.6-0.4,1-1,1H76c-0.6,0-1-0.4-1-1l0,0c0-0.6,0.4-1,1-1h34C110.6,146,111,146.4,111,147L111,147z"/>
<path class="st4" d="M100,190.9c0,0.6-0.2,1.1-0.6,1.1H75.6c-0.4,0-0.6-0.5-0.6-1.1v-0.1c0-0.6,0.2-0.8,0.6-0.8h23.8
	c0.4,0,0.6,0.2,0.6,0.8V190.9z"/>
<path class="st4" d="M100,157.8c0,0.6-0.2,1.2-0.6,1.2H75.6c-0.4,0-0.6-0.6-0.6-1.2v-0.1c0-0.6,0.2-0.7,0.6-0.7h23.8
	c0.4,0,0.6,0.1,0.6,0.7V157.8z"/>
<path class="st4" d="M100,179.8c0,0.6-0.2,1.2-0.6,1.2H75.6c-0.4,0-0.6-0.6-0.6-1.2v-0.1c0-0.6,0.2-0.7,0.6-0.7h23.8
	c0.4,0,0.6,0.1,0.6,0.7V179.8z"/>
<path class="st4" d="M111,169c0,0.6-0.4,1-1,1H76c-0.6,0-1-0.4-1-1l0,0c0-0.6,0.4-1,1-1h34C110.6,168,111,168.4,111,169L111,169z"/>
<path class="st4" d="M111,202c0,0.6-0.4,1-1,1H76c-0.6,0-1-0.4-1-1l0,0c0-0.6,0.4-1,1-1h34C110.6,201,111,201.4,111,202L111,202z"/>
<path class="st4" d="M111,213c0,0.6-0.4,1-1,1H76c-0.6,0-1-0.4-1-1l0,0c0-0.6,0.4-1,1-1h34C110.6,212,111,212.4,111,213L111,213z"/>
<path class="st4" d="M179,107c0,0.6-0.4,1-1,1h-34c-0.6,0-1-0.4-1-1l0,0c0-0.6,0.4-1,1-1h34C178.6,106,179,106.4,179,107L179,107z"
	/>
<path class="st4" d="M227,107.1c0,0.6,0.5,0.9,0.2,0.9h-17c-0.3,0-0.1-0.3-0.1-0.9v-0.1c0-0.6-0.1-0.9,0.1-0.9h17
	c0.3,0-0.2,0.4-0.2,0.9V107.1z"/>
<path class="st4" d="M249,107.1c0,0.6,0.4,0.9,0.1,0.9h-17c-0.3,0-1-0.3-1-0.9v-0.1c0-0.6,0.8-0.9,1-0.9h17c0.3,0-0.1,0.4-0.1,0.9
	V107.1z"/>
<path class="st4" d="M179,128c0,0.6-0.4,1-1,1h-34c-0.6,0-1-0.4-1-1l0,0c0-0.6,0.4-1,1-1h34C178.6,127,179,127.4,179,128L179,128z"
	/>
<path class="st4" d="M227,127.8c0,0.6,0.5,1.2,0.2,1.2h-17c-0.3,0-0.1-0.6-0.1-1.2v-0.1c0-0.6-0.1-0.7,0.1-0.7h17
	c0.3,0-0.2,0.1-0.2,0.7V127.8z"/>
<path class="st4" d="M249,127.8c0,0.6,0.4,1.2,0.1,1.2h-17c-0.3,0-1-0.6-1-1.2v-0.1c0-0.6,0.8-0.7,1-0.7h17c0.3,0-0.1,0.1-0.1,0.7
	V127.8z"/>
<path class="st4" d="M179,147c0,0.6-0.4,1-1,1h-34c-0.6,0-1-0.4-1-1l0,0c0-0.6,0.4-1,1-1h34C178.6,146,179,146.4,179,147L179,147z"
	/>
<path class="st4" d="M227,147.5c0,0.6,0.5,0.5,0.2,0.5h-17c-0.3,0-0.1,0.1-0.1-0.5v-0.1c0-0.6-0.1-1.4,0.1-1.4h17
	c0.3,0-0.2,0.8-0.2,1.4V147.5z"/>
<path class="st4" d="M249,147.5c0,0.6,0.4,0.5,0.1,0.5h-17c-0.3,0-1,0.1-1-0.5v-0.1c0-0.6,0.8-1.4,1-1.4h17c0.3,0-0.1,0.8-0.1,1.4
	V147.5z"/>
<path class="st4" d="M179,167c0,0.6-0.4,1-1,1h-34c-0.6,0-1-0.4-1-1l0,0c0-0.6,0.4-1,1-1h34C178.6,166,179,166.4,179,167L179,167z"
	/>
<path class="st4" d="M227,167.3c0,0.6,0.5,0.7,0.2,0.7h-17c-0.3,0-0.1-0.2-0.1-0.7v-0.1c0-0.6-0.1-1.1,0.1-1.1h17
	c0.3,0-0.2,0.6-0.2,1.1V167.3z"/>
<path class="st4" d="M249,167.3c0,0.6,0.4,0.7,0.1,0.7h-17c-0.3,0-1-0.2-1-0.7v-0.1c0-0.6,0.8-1.1,1-1.1h17c0.3,0-0.1,0.6-0.1,1.1
	V167.3z"/>
<rect x="137.5" y="178.5" class="st1" width="117" height="16"/>
<path class="st4" d="M179,187c0,0.6-0.4,1-1,1h-34c-0.6,0-1-0.4-1-1l0,0c0-0.6,0.4-1,1-1h34C178.6,186,179,186.4,179,187L179,187z"
	/>
<path class="st4" d="M227,186.9c0,0.6,0.5,1.1,0.2,1.1h-17c-0.3,0-0.1-0.5-0.1-1.1v-0.1c0-0.6-0.1-0.8,0.1-0.8h17
	c0.3,0-0.2,0.2-0.2,0.8V186.9z"/>
<path class="st4" d="M249,186.9c0,0.6,0.4,1.1,0.1,1.1h-17c-0.3,0-1-0.5-1-1.1v-0.1c0-0.6,0.8-0.8,1-0.8h17c0.3,0-0.1,0.2-0.1,0.8
	V186.9z"/>
<g>
	<ellipse class="st5" cx="430.9" cy="260.3" rx="4.1" ry="4.2"/>
	<ellipse class="st5" cx="15.5" cy="195.5" rx="3" ry="3"/>
	<rect x="210.6" y="36.4" class="st5" width="6.2" height="6.3"/>
</g>
<polygon class="st5" points="124.7,331.8 134.3,333.3 128.2,340.9 "/>
<polygon class="st5" points="431.9,55.8 422.2,57.3 428.4,64.9 "/>
<polygon class="st5" points="38.5,54.3 29,52 31.7,61.4 "/>
<path class="st5" d="M350.2,268c3.1,0,3.1,2.3,6.3,2.3c3.1,0,3.1-2.3,6.3-2.3c3.1,0,3.1,2.3,6.3,2.3c3.1,0,3.1-2.3,6.3-2.3
	c3.1,0,3.1,2.3,6.3,2.3c3.1,0,3.1-2.3,6.3-2.3"/>
<path class="st5" d="M276.5,335.1c3.2,0,3.2,2.4,6.4,2.4c3.2,0,3.2-2.4,6.4-2.4s3.2,2.4,6.4,2.4c3.2,0,3.2-2.4,6.4-2.4
	c3.2,0,3.2,2.4,6.4,2.4c3.2,0,3.2-2.4,6.4-2.4"/>
<path class="st5" d="M293.4,58.9c0-3.2,2.4-3.2,2.4-6.4c0-3.2-2.4-3.2-2.4-6.4s2.4-3.2,2.4-6.4c0-3.2-2.4-3.2-2.4-6.4
	c0-3.2,2.4-3.2,2.4-6.4c0-3.2-2.4-3.2-2.4-6.4"/>
<circle class="st4" cx="210.3" cy="85.8" r="2.9"/>
<circle class="st4" cx="67.8" cy="294" r="3.1"/>
<circle class="st4" cx="77.6" cy="294" r="3.1"/>
<circle class="st4" cx="87.4" cy="294" r="3.1"/>
<path class="st4" d="M247,85.8c0,0.8-0.7,1.5-1.5,1.5h-25c-0.8,0-1.5-0.7-1.5-1.5l0,0c0-0.8,0.7-1.5,1.5-1.5h25
	C246.3,84.3,247,84.9,247,85.8L247,85.8z"/>
</svg>
