<?xml version="1.0" encoding="utf-8"?>
<!-- Generator: Adobe Illustrator 21.0.0, SVG Export Plug-In . SVG Version: 6.00 Build 0)  -->
<svg version="1.1" id="Capa_1" xmlns="http://www.w3.org/2000/svg" xmlns:xlink="http://www.w3.org/1999/xlink" x="0px" y="0px"
	 viewBox="0 0 447 363" style="enable-background:new 0 0 447 363;" xml:space="preserve">
<style type="text/css">
	.st0{fill:#FFFFFF;stroke:#CCCCCC;stroke-miterlimit:10;}
	.st1{fill:#FFFFFF;stroke:#D6D6D6;stroke-miterlimit:10;}
	.st2{fill:#D6D6D6;}
	.st3{fill:#17DE8B;}
	.st4{fill:#EAEAEA;}
	.st5{fill:none;stroke:#17DE8B;stroke-width:1.5;stroke-miterlimit:10;}
</style>
<path class="st0" d="M403.5,285.5c0,7.2-5.8,13-13,13H55.5c-7.2,0-13-5.8-13-13V93.5c0-7.2,5.8-13,13-13h335.1c7.2,0,13,5.8,13,13
	V285.5z"/>
<path class="st1" d="M390.5,278.7c0,6.6-3.9,11.8-10.6,11.8H68.9c-6.6,0-13.4-5.2-13.4-11.8V102.8c0-6.6,6.7-11.3,13.4-11.3h311.1
	c6.6,0,10.6,4.8,10.6,11.3V278.7z"/>
<path class="st0" d="M424.7,294.5c0,4-4.1,8-9.2,8H35.4c-5.1,0-9.2-4-9.2-8l0,0c0-4,4.1-8,9.2-8h380.1
	C420.6,286.5,424.7,290.5,424.7,294.5L424.7,294.5z"/>
<circle class="st2" cx="202.3" cy="85.8" r="2.9"/>
<circle class="st2" cx="59.8" cy="294" r="3.1"/>
<circle class="st2" cx="69.6" cy="294" r="3.1"/>
<circle class="st2" cx="79.4" cy="294" r="3.1"/>
<path class="st2" d="M239,85.8c0,0.8-0.7,1.5-1.5,1.5h-25c-0.8,0-1.5-0.7-1.5-1.5l0,0c0-0.8,0.7-1.5,1.5-1.5h25
	C238.3,84.3,239,84.9,239,85.8L239,85.8z"/>
<rect x="55.5" y="91.5" class="st1" width="61" height="195"/>
<rect x="271.5" y="91.5" class="st1" width="120" height="195"/>
<rect x="278.5" y="246.5" class="st1" width="106" height="13"/>
<rect x="278.5" y="246.5" class="st1" width="54" height="13"/>
<rect x="278.5" y="231.5" class="st1" width="51" height="11"/>
<rect x="334.5" y="231.5" class="st1" width="50" height="11"/>
<rect x="278" y="263" class="st3" width="107" height="17"/>
<circle class="st3" cx="284.4" cy="253.4" r="3.1"/>
<circle class="st4" cx="338.6" cy="253.4" r="3.1"/>
<rect x="278.5" y="214.5" class="st1" width="106" height="13"/>
<rect x="278.5" y="214.5" class="st1" width="54" height="13"/>
<circle class="st4" cx="284.4" cy="221.3" r="3.1"/>
<circle class="st3" cx="338.6" cy="221.3" r="3.1"/>
<g>
	<g>
		<path class="st3" d="M83.8,110.7c0-0.1,0.1-0.1,0.1-0.1H87c0.1,0,0.1,0.1,0.1,0.1v0.4c0,0.1-0.1,0.1-0.1,0.1h-2.4v1.6h2.1
			c0.1,0,0.1,0.1,0.1,0.1v0.4c0,0.1-0.1,0.1-0.1,0.1h-2.1v1.7H87c0.1,0,0.1,0.1,0.1,0.1v0.4c0,0.1-0.1,0.1-0.1,0.1h-3.1
			c-0.1,0-0.1-0.1-0.1-0.1V110.7z"/>
		<path class="st3" d="M89,114c0.3,0,0.6,0.1,0.6,0.1c0-0.5-0.1-0.7-0.5-0.7c-0.4,0-0.7,0.1-0.9,0.1c-0.1,0-0.1,0-0.2-0.1l-0.1-0.3
			c0-0.1,0-0.2,0.1-0.2c0.1,0,0.5-0.2,1.1-0.2c1,0,1.1,0.6,1.1,1.4v1.6c0,0.1-0.1,0.1-0.1,0.1h-0.2c-0.1,0-0.1,0-0.1-0.1l-0.1-0.2
			c-0.2,0.2-0.5,0.4-0.9,0.4c-0.6,0-1-0.4-1-1C87.8,114.4,88.2,114,89,114z M88.9,115.5c0.3,0,0.6-0.2,0.7-0.4v-0.5
			c0,0-0.3-0.1-0.5-0.1c-0.4,0-0.6,0.2-0.6,0.5C88.4,115.2,88.6,115.5,88.9,115.5z"/>
		<path class="st3" d="M91.1,115.5l0.2-0.3c0-0.1,0.1-0.1,0.2,0c0,0,0.3,0.2,0.7,0.2c0.2,0,0.4-0.1,0.4-0.3c0-0.2-0.2-0.3-0.6-0.5
			c-0.5-0.2-0.9-0.5-0.9-1c0-0.4,0.3-0.8,1.1-0.8c0.4,0,0.8,0.1,0.9,0.2c0.1,0,0.1,0.1,0.1,0.2l-0.1,0.3c0,0.1-0.1,0.1-0.2,0.1
			c0,0-0.3-0.2-0.6-0.2c-0.3,0-0.3,0.1-0.3,0.2c0,0.2,0.2,0.3,0.5,0.4c0.6,0.2,1,0.5,1,1.1c0,0.5-0.5,0.9-1.1,0.9
			c-0.5,0-0.9-0.2-1-0.3C91.1,115.7,91,115.6,91.1,115.5z"/>
		<path class="st3" d="M93.6,113.1c0-0.1,0-0.2,0.1-0.2h0.5c0,0,0.1,0,0.1,0.1l1,2.1h0l0.9-2.1c0-0.1,0.1-0.1,0.2-0.1h0.4
			c0.1,0,0.2,0.1,0.1,0.2l-2.4,5.1c0,0-0.1,0.1-0.1,0.1H94c-0.1,0-0.2-0.1-0.1-0.2l1-2.2L93.6,113.1z"/>
		<path class="st3" d="M97.6,110.7c0-0.1,0.1-0.1,0.1-0.1h0.4c0.1,0,0.1,0.1,0.1,0.1v2.3c0.1,0,0.3-0.2,0.7-0.2
			c0.9,0,1.5,0.7,1.5,1.6c0,0.9-0.6,1.6-1.4,1.6c-0.6,0-1-0.4-1-0.4l-0.1,0.2c0,0.1-0.1,0.1-0.1,0.1h-0.2c-0.1,0-0.1-0.1-0.1-0.1
			V110.7z M99,115.3c0.5,0,0.8-0.4,0.8-1c0-0.5-0.4-0.9-0.9-0.9c-0.4,0-0.7,0.2-0.7,0.2v1.3C98.4,115,98.6,115.3,99,115.3z"/>
		<path class="st3" d="M101.3,111.1c0-0.3,0.2-0.5,0.4-0.5c0.3,0,0.5,0.2,0.5,0.5c0,0.2-0.2,0.4-0.5,0.4
			C101.5,111.6,101.3,111.4,101.3,111.1z M101.4,113c0-0.1,0.1-0.1,0.1-0.1h0.4c0.1,0,0.1,0.1,0.1,0.1v2.8c0,0.1-0.1,0.1-0.1,0.1
			h-0.4c-0.1,0-0.1-0.1-0.1-0.1V113z"/>
		<path class="st3" d="M103.1,110.7c0-0.1,0.1-0.1,0.1-0.1h0.4c0.1,0,0.1,0.1,0.1,0.1v5.1c0,0.1-0.1,0.1-0.1,0.1h-0.4
			c-0.1,0-0.1-0.1-0.1-0.1V110.7z"/>
		<path class="st3" d="M104.8,110.7c0-0.1,0.1-0.1,0.1-0.1h0.4c0.1,0,0.1,0.1,0.1,0.1v5.1c0,0.1-0.1,0.1-0.1,0.1H105
			c-0.1,0-0.1-0.1-0.1-0.1V110.7z"/>
	</g>
	<g>
		<g>
			<g>
				<path class="st3" d="M69,112.2c0.5,0.1,0.8,0.2,1.2,0.3c0.4,0.1,0.4,0.1,0.7-0.3c0.2-0.3,0.7-0.6,1.1-0.2
					c0.1,0.1,0.3,0.2,0.3,0.4c0.1,0.1,0.2,0.2,0.3,0.2c0.4,0,0.8,0,1.2-0.1c0.7-0.1,1.2-0.5,1.8-0.8c0.7-0.6,1.3-1.2,1.9-2
					c0,0.2,0,0.2-0.1,0.6l0,0c-0.2,0.8-0.6,1.5-1.1,2.2c-0.5,0.6-1,1-1.6,1.4c-0.3,0.2-0.2,0.3,0.1,0.5c0.2,0.1,0.4,0.1,0.5,0.2l0,0
					c0.6,0.2,1.1,0.5,1.7,0.8c0.6,0.3,1,0.8,1.3,1.3c0.1,0.2,0.1,0.3,0.3,0.6c0-0.1-0.1-0.1-0.1-0.2c-0.2-0.5-1.2-1.3-2.3-1.5
					c-0.6-0.2-1.3-0.1-1.9-0.2c-1.1-0.1-2-0.4-2.7-1.4c-0.2-0.2-0.3-0.4-0.4-0.6c-0.1-0.3-0.4-0.6-0.7-0.7c-0.5-0.2-1-0.4-1.6-0.5
					c-0.5-0.1,0.2,0-0.4-0.1C68.6,112.1,68.8,112.1,69,112.2z"/>
				<path class="st3" d="M73.3,112.5c0.7-0.6,1.4-1.3,1.9-2.1c0,0.2,0,0.2-0.1,0.6l0,0c-0.2,0.8-0.4,1-0.4,1.1c0,0-0.3,0.2-0.9,0.3
					C73.5,112.5,73.3,112.5,73.3,112.5z"/>
			</g>
			<g>
				<path class="st3" d="M75.9,115c0.2,0.1,0.5,0.3,0.7,0.5c0.2,0.2,0.4,0.4,0.5,0.7c0,0.1,0,0.1,0.1,0.3c0-0.1,0-0.1,0-0.1
					c-0.1-0.3-0.5-0.6-0.9-0.9c-0.3-0.1-0.6-0.1-0.8-0.2"/>
			</g>
		</g>
		<g>
			<path class="st3" d="M68,117.1c-0.8-1.2-1.3-2.6-1.2-4.2c0.1-3.5,3.2-6.6,6.7-6.7c1.6,0,3,0.4,4.2,1.2c0.1,0.1,0.3,0.1,0.4,0l0,0
				c0.1-0.1,0.1-0.4,0-0.5c-1.2-0.9-2.7-1.4-4.4-1.4c-4.2,0-7.6,3.4-7.6,7.6c0,1.6,0.5,3.1,1.4,4.4c0.1,0.2,0.4,0.2,0.5,0l0,0
				C68.1,117.4,68.1,117.2,68,117.1z"/>
			<path class="st3" d="M79.4,108.7L79.4,108.7c-0.1,0.1-0.1,0.3,0,0.4c0.8,1.2,1.3,2.6,1.2,4.2c-0.1,3.5-3.2,6.6-6.7,6.7
				c-1.6,0-3-0.4-4.2-1.2c-0.1-0.1-0.3-0.1-0.4,0v0c-0.1,0.1-0.1,0.4,0,0.5c1.2,0.9,2.7,1.4,4.4,1.4c4.2,0,7.6-3.4,7.6-7.6
				c0-1.6-0.5-3.1-1.4-4.4C79.8,108.6,79.6,108.6,79.4,108.7z"/>
		</g>
		<circle class="st3" cx="68.6" cy="118.3" r="0.4"/>
		<circle class="st3" cx="78.9" cy="108.1" r="0.4"/>
	</g>
</g>
<path class="st2" d="M103,137c0,0.6-0.4,1-1,1H68c-0.6,0-1-0.4-1-1l0,0c0-0.6,0.4-1,1-1h34C102.6,136,103,136.4,103,137L103,137z"/>
<path class="st2" d="M103,147c0,0.6-0.4,1-1,1H68c-0.6,0-1-0.4-1-1l0,0c0-0.6,0.4-1,1-1h34C102.6,146,103,146.4,103,147L103,147z"/>
<path class="st2" d="M92,158.1c0,0.6-0.2,0.9-0.6,0.9H67.6c-0.4,0-0.6-0.3-0.6-0.9v-0.1c0-0.6,0.2-0.9,0.6-0.9h23.8
	c0.4,0,0.6,0.4,0.6,0.9V158.1z"/>
<path class="st2" d="M103,169c0,0.6-0.4,1-1,1H68c-0.6,0-1-0.4-1-1l0,0c0-0.6,0.4-1,1-1h34C102.6,168,103,168.4,103,169L103,169z"/>
<g>
	<ellipse class="st5" cx="430.1" cy="263.4" rx="4.1" ry="4.2"/>
	<ellipse class="st5" cx="14.7" cy="198.6" rx="3" ry="3"/>
	<rect x="209.8" y="39.6" class="st5" width="6.2" height="6.3"/>
</g>
<polygon class="st5" points="154.2,333.5 163.9,335 157.7,342.6 "/>
<polygon class="st5" points="423.9,55.8 414.2,57.3 420.4,64.9 "/>
<polygon class="st5" points="30.5,54.3 21,52 23.7,61.4 "/>
<path class="st5" d="M342.2,268c3.1,0,3.1,2.3,6.3,2.3c3.1,0,3.1-2.3,6.3-2.3c3.1,0,3.1,2.3,6.3,2.3c3.1,0,3.1-2.3,6.3-2.3
	c3.1,0,3.1,2.3,6.3,2.3c3.1,0,3.1-2.3,6.3-2.3"/>
<path class="st5" d="M295.7,333.9c3.2,0,3.2,2.4,6.4,2.4c3.2,0,3.2-2.4,6.4-2.4s3.2,2.4,6.4,2.4c3.2,0,3.2-2.4,6.4-2.4
	c3.2,0,3.2,2.4,6.4,2.4c3.2,0,3.2-2.4,6.4-2.4"/>
<path class="st5" d="M285.4,58.9c0-3.2,2.4-3.2,2.4-6.4c0-3.2-2.4-3.2-2.4-6.4s2.4-3.2,2.4-6.4c0-3.2-2.4-3.2-2.4-6.4
	c0-3.2,2.4-3.2,2.4-6.4c0-3.2-2.4-3.2-2.4-6.4"/>
<rect x="121.5" y="97.5" class="st1" width="146" height="5"/>
<rect x="121.5" y="97.5" class="st1" width="146" height="183"/>
<g>
	<rect x="129.5" y="109.5" class="st1" width="22" height="21"/>
	<rect x="135.5" y="124.5" class="st1" width="11" height="6"/>
	<rect x="129.5" y="118.5" class="st1" width="6" height="12"/>
	<rect x="146.5" y="118.5" class="st1" width="5" height="12"/>
</g>
<g>
	<rect x="160.5" y="109.5" class="st1" width="22" height="21"/>
	<rect x="167.5" y="124.5" class="st1" width="10" height="6"/>
	<rect x="160.5" y="118.5" class="st1" width="7" height="12"/>
	<rect x="177.5" y="118.5" class="st1" width="5" height="12"/>
</g>
<g>
	<rect x="205.5" y="109.5" class="st1" width="22" height="21"/>
	<rect x="211.5" y="124.5" class="st1" width="10" height="6"/>
	<rect x="205.5" y="118.5" class="st1" width="6" height="12"/>
	<rect x="221.5" y="118.5" class="st1" width="6" height="12"/>
</g>
<g>
	<rect x="236.5" y="109.5" class="st1" width="22" height="21"/>
	<rect x="242.5" y="124.5" class="st1" width="10" height="6"/>
	<rect x="236.5" y="118.5" class="st1" width="6" height="12"/>
	<rect x="252.5" y="118.5" class="st1" width="6" height="12"/>
</g>
<g>
	<rect x="129.5" y="136.5" class="st1" width="22" height="21"/>
	<rect x="135.5" y="150.5" class="st1" width="11" height="7"/>
	<rect x="129.5" y="145.5" class="st1" width="6" height="12"/>
	<rect x="146.5" y="145.5" class="st1" width="5" height="12"/>
</g>
<g>
	<rect x="160.5" y="136.5" class="st1" width="22" height="21"/>
	<rect x="167.5" y="150.5" class="st1" width="10" height="7"/>
	<rect x="160.5" y="145.5" class="st1" width="7" height="12"/>
	<rect x="177.5" y="145.5" class="st1" width="5" height="12"/>
</g>
<g>
	<rect x="205.5" y="136.5" class="st1" width="22" height="21"/>
	<rect x="211.5" y="150.5" class="st1" width="10" height="7"/>
	<rect x="205.5" y="145.5" class="st1" width="6" height="12"/>
	<rect x="221.5" y="145.5" class="st1" width="6" height="12"/>
</g>
<g>
	<rect x="236.5" y="136.5" class="st1" width="22" height="21"/>
	<rect x="242.5" y="150.5" class="st1" width="10" height="7"/>
	<rect x="236.5" y="145.5" class="st1" width="6" height="12"/>
	<rect x="252.5" y="145.5" class="st1" width="6" height="12"/>
</g>
<g>
	<rect x="129.5" y="163.5" class="st1" width="22" height="21"/>
	<rect x="135.5" y="177.5" class="st1" width="11" height="7"/>
	<rect x="129.5" y="172.5" class="st1" width="6" height="12"/>
	<rect x="146.5" y="172.5" class="st1" width="5" height="12"/>
</g>
<g>
	<rect x="160.5" y="163.5" class="st1" width="22" height="21"/>
	<rect x="167.5" y="177.5" class="st1" width="10" height="7"/>
	<rect x="160.5" y="172.5" class="st1" width="7" height="12"/>
	<rect x="177.5" y="172.5" class="st1" width="5" height="12"/>
</g>
<g>
	<rect x="205.5" y="163.5" class="st1" width="22" height="21"/>
	<rect x="211.5" y="177.5" class="st1" width="10" height="7"/>
	<rect x="205.5" y="172.5" class="st1" width="6" height="12"/>
	<rect x="221.5" y="172.5" class="st1" width="6" height="12"/>
</g>
<g>
	<rect x="236.5" y="163.5" class="st1" width="22" height="21"/>
	<rect x="242.5" y="177.5" class="st1" width="10" height="7"/>
	<rect x="236.5" y="172.5" class="st1" width="6" height="12"/>
	<rect x="252.5" y="172.5" class="st1" width="6" height="12"/>
</g>
<g>
	<rect x="129.5" y="190.5" class="st1" width="22" height="21"/>
	<rect x="135.5" y="204.5" class="st1" width="11" height="7"/>
	<rect x="129.5" y="199.5" class="st1" width="6" height="12"/>
	<rect x="146.5" y="199.5" class="st1" width="5" height="12"/>
</g>
<g>
	<rect x="160.5" y="190.5" class="st1" width="22" height="21"/>
	<rect x="167.5" y="204.5" class="st1" width="10" height="7"/>
	<rect x="160.5" y="199.5" class="st1" width="7" height="12"/>
	<rect x="177.5" y="199.5" class="st1" width="5" height="12"/>
</g>
<g>
	<rect x="205.5" y="190.5" class="st1" width="22" height="21"/>
	<rect x="211.5" y="204.5" class="st1" width="10" height="7"/>
	<rect x="205.5" y="199.5" class="st1" width="6" height="12"/>
	<rect x="221.5" y="199.5" class="st1" width="6" height="12"/>
</g>
<g>
	<rect x="236.5" y="190.5" class="st1" width="22" height="21"/>
	<rect x="242.5" y="204.5" class="st1" width="10" height="7"/>
	<rect x="236.5" y="199.5" class="st1" width="6" height="12"/>
	<rect x="252.5" y="199.5" class="st1" width="6" height="12"/>
</g>
<g>
	<rect x="129.5" y="218.5" class="st1" width="22" height="20"/>
	<rect x="135.5" y="232.5" class="st1" width="11" height="6"/>
	<rect x="129.5" y="227.5" class="st1" width="6" height="11"/>
	<rect x="146.5" y="227.5" class="st1" width="5" height="11"/>
</g>
<g>
	<rect x="160.5" y="218.5" class="st1" width="22" height="20"/>
	<rect x="167.5" y="232.5" class="st1" width="10" height="6"/>
	<rect x="160.5" y="227.5" class="st1" width="7" height="11"/>
	<rect x="177.5" y="227.5" class="st1" width="5" height="11"/>
</g>
<g>
	<rect x="205.5" y="218.5" class="st1" width="22" height="20"/>
	<rect x="211.5" y="232.5" class="st1" width="10" height="6"/>
	<rect x="205.5" y="227.5" class="st1" width="6" height="11"/>
	<rect x="221.5" y="227.5" class="st1" width="6" height="11"/>
</g>
<g>
	<rect x="236.5" y="218.5" class="st1" width="22" height="20"/>
	<rect x="242.5" y="232.5" class="st1" width="10" height="6"/>
	<rect x="236.5" y="227.5" class="st1" width="6" height="11"/>
	<rect x="252.5" y="227.5" class="st1" width="6" height="11"/>
</g>
<g>
	<rect x="129.5" y="246.5" class="st1" width="22" height="20"/>
	<rect x="135.5" y="260.5" class="st1" width="11" height="6"/>
	<rect x="129.5" y="255.5" class="st1" width="6" height="11"/>
	<rect x="146.5" y="255.5" class="st1" width="5" height="11"/>
</g>
<g>
	<rect x="160.5" y="246.5" class="st1" width="22" height="20"/>
	<rect x="167.5" y="260.5" class="st1" width="10" height="6"/>
	<rect x="160.5" y="255.5" class="st1" width="7" height="11"/>
	<rect x="177.5" y="255.5" class="st1" width="5" height="11"/>
</g>
<g>
	<rect x="205.5" y="246.5" class="st1" width="22" height="20"/>
	<rect x="211.5" y="260.5" class="st1" width="10" height="6"/>
	<rect x="205.5" y="255.5" class="st1" width="6" height="11"/>
	<rect x="221.5" y="255.5" class="st1" width="6" height="11"/>
</g>
<g>
	<rect x="236.5" y="246.5" class="st1" width="22" height="20"/>
	<rect x="242.5" y="260.5" class="st1" width="10" height="6"/>
	<rect x="236.5" y="255.5" class="st1" width="6" height="11"/>
	<rect x="252.5" y="255.5" class="st1" width="6" height="11"/>
</g>
<rect x="279.5" y="134.5" class="st1" width="105" height="40"/>
<rect x="326" y="146" class="st3" width="7" height="8"/>
<g>
	<rect x="289.5" y="143.5" class="st1" width="21" height="21"/>
	<rect x="295.5" y="158.5" class="st1" width="10" height="6"/>
	<rect x="289.5" y="153.5" class="st1" width="6" height="11"/>
	<rect x="305.5" y="153.5" class="st1" width="5" height="11"/>
</g>
<rect x="326" y="158.5" class="st1" width="54" height="8"/>
<rect x="279.5" y="99.5" class="st1" width="51" height="10"/>
<rect x="335.5" y="99.5" class="st1" width="50" height="10"/>
<rect x="279.5" y="115.5" class="st1" width="51" height="11"/>
<rect x="335.5" y="115.5" class="st1" width="50" height="11"/>
<g>
	<polygon class="st2" points="327.9,103.7 325.8,105.9 323.6,103.7 324.3,103.1 325.8,104.5 327.2,103.1 	"/>
</g>
<g>
	<polygon class="st2" points="381.7,103.7 379.6,105.9 377.5,103.7 378.2,103.1 379.6,104.5 381.1,103.1 	"/>
</g>
<path class="st2" d="M379,143h-52c-0.6,0-1-0.4-1-1l0,0c0-0.6,0.4-1,1-1h52c0.6,0,1,0.4,1,1l0,0C380,142.6,379.6,143,379,143z"/>
<path class="st2" d="M357,151h-20c-0.6,0-1-0.4-1-1l0,0c0-0.6,0.4-1,1-1h20c0.6,0,1,0.4,1,1l0,0C358,150.6,357.6,151,357,151z"/>
</svg>
