<?xml version="1.0" encoding="utf-8"?>
<!-- Generator: Adobe Illustrator 21.0.0, SVG Export Plug-In . SVG Version: 6.00 Build 0)  -->
<svg version="1.1" id="Capa_1" xmlns="http://www.w3.org/2000/svg" xmlns:xlink="http://www.w3.org/1999/xlink" x="0px" y="0px"
	 viewBox="0 0 444 472" style="enable-background:new 0 0 444 472;" xml:space="preserve">
<style type="text/css">
	.st0{fill:#FFFFFF;stroke:#CCCCCC;stroke-miterlimit:10;}
	.st1{fill:#FFFFFF;}
	.st2{fill:none;stroke:#CCCCCC;stroke-miterlimit:10;}
	.st3{fill:#17DE8B;}
	.st4{fill:#CCCCCC;stroke:#FFFFFF;stroke-miterlimit:10;}
	.st5{fill:none;stroke:#17DE8B;stroke-miterlimit:10;}
	.st6{fill:none;stroke:#17DE8B;stroke-width:1.5;stroke-miterlimit:10;}
</style>
<g>
	<polygon class="st0" points="118.8,465.6 108.2,465.6 143.4,313 154,313 	"/>
	<polygon class="st0" points="124.2,465.6 113.5,465.6 148.7,313 159.4,313 	"/>
	<polygon class="st0" points="198.4,465.6 209,465.6 173.8,313 163.2,313 	"/>
	<polygon class="st0" points="203.7,465.6 214.4,465.6 179.2,313 168.5,313 	"/>
	<path class="st0" d="M178.5,312.6c0,2.1-1.7,3.7-3.7,3.7h-38.4c-2.1,0-3.7-1.7-3.7-3.7v-8.4c0-2.1,1.7-3.7,3.7-3.7h38.4
		c2.1,0,3.7,1.7,3.7,3.7V312.6z"/>
	<path class="st0" d="M186.1,312.6c0,2.1-1.7,3.7-3.7,3.7H144c-2.1,0-3.7-1.7-3.7-3.7v-8.4c0-2.1,1.7-3.7,3.7-3.7h38.4
		c2,0,3.7,1.7,3.7,3.7V312.6z"/>
</g>
<g>
	<path class="st0" d="M290.7,246c0.9-4,4.9-7.3,9-7.3h53.7c4.1,0,6.7,3.3,5.9,7.3l-22.7,105.4c-0.9,4-4.9,7.3-9,7.3h-53.7
		c-4.1,0-6.7-3.3-5.9-7.3L290.7,246z"/>
	<path class="st0" d="M277.7,246c0.9-4,4.9-7.3,9-7.3h53.7c4.1,0,6.7,3.3,5.9,7.3l-22.7,105.4c-0.9,4-4.9,7.3-9,7.3h-53.7
		c-4.1,0-6.7-3.3-5.9-7.3L277.7,246z"/>
	<rect x="290.3" y="355" class="st0" width="7" height="94"/>
	<polygon class="st0" points="300.5,445.2 287.2,445.2 262.4,460 262.4,465.6 271.3,465.6 271.3,463 287.2,453.6 300.5,453.6 
		316.3,463 316.3,465.6 325.2,465.6 325.2,460 	"/>
	<rect x="249" y="355" class="st0" width="79.5" height="12.5"/>
</g>
<g>
	<g>
		<path class="st0" d="M225.5,289.2c0,0-15.1-4.1-15.5-4.1c-0.5,0-2.6,1-3.7,1.8c-1.1,0.8-6.6,7.9-6.8,10.5h26.1V289.2z"/>
		<path class="st0" d="M280.8,234.2c0,0-5.4,3.7-13,24.9c-2.1,5.9-7,23.3-7,23.3l-36.3,6.5v8.4c0,0,51.9,0,53,0
			c1.1,0,2.9-1.3,3.2-2.7c0.2-1.4,7.4-42.7,7.5-46.6C288.4,242.8,282.4,236.3,280.8,234.2z"/>
	</g>
	<g>
		<g id="XMLID_305_">
			<g>
				<path class="st0" d="M211.4,435.2c0,0-3.9,11-5,17l-13.5-5.2l5.6-15.6L211.4,435.2z"/>
				<path class="st0" d="M177.3,453.6c13,3.7,29.1,8.2,29.1,8.2s-0.5,2.6-0.8,3.3c-0.3,0.7-1.3,0.5-1.3,0.5s-15.6-4.4-28.7-8.1
					c-9.2-2.6-15.8-5.6-16.2-5.7c-0.3-0.1-0.5-0.6-0.4-0.8c0.1-0.3,1-1.9,1.5-2.4c0.1-0.1,0.2-0.2,0.4-0.2c0.3,0,0.6,0,0.6,0
					c0.3,0.1,6.6,2.7,14.8,5C176.6,453.4,177,453.5,177.3,453.6z"/>
				<path class="st1" d="M199.1,438c0.6,0.4,0.7,3.9-2.4,5.5c-0.2-0.3-0.3-0.5-0.4-0.7c-1.4,1.4-4,2-4,2c-6.2,1.9-13.2,2.2-13.8,2.2
					c-0.6,0-1.9-1.8-1.9-1.8l0,0c-0.2-0.5-0.4-0.9-0.5-1.2l0,0c0,0,0.4-0.6,1.3-0.8c0.8-0.2,6,0.1,9.6-0.4c3.6-0.4,5.7-1.3,6.6-2.5
					c1-1.2,0.5-2.3,0.6-2.9c0-0.5,0.7-1.2,1.6-0.9C196.6,437,198.6,437.6,199.1,438z"/>
				<path class="st2" d="M195.7,436.7c0.9,0.3,2.9,0.9,3.4,1.3c0.6,0.4,0.7,3.9-2.4,5.5"/>
				<path class="st2" d="M176,444.1c0,0,0.4-0.6,1.3-0.8c0.8-0.2,6,0.1,9.6-0.4c3.6-0.4,5.7-1.3,6.6-2.5c1-1.2,0.5-2.3,0.6-2.9
					c0-0.5,0.7-1.2,1.6-0.9"/>
				<path class="st0" d="M192.7,443.9c0,0,3-1.8,4.1-0.5c0.8,1.5,2.1,4.2,4.4,4.5c2.8,0.4,6.2-1,6.6-0.3c0.4,0.8,0.5,6.3-1.4,14
					c0,0-17.6-4.9-30.6-8.6c0.6-3.9,0.8-4.1,0.7-6.7l0-1.2c0,0,0.5,0.5,1.1,0.6C178.3,445.8,186.5,445.8,192.7,443.9z"/>
				<path class="st0" d="M176.6,445.2c0.6,1.6,1.1,4.3,0.8,8.3c-0.4-0.1-0.7-0.2-1.1-0.3c-8.2-2.3-14.5-4.8-14.8-5
					c0,0-0.3-0.1-0.6,0c0,0,1.5-2.5,2.2-3.4c0.7-0.9,2.1-1.3,3.2-1.3c1.1,0,8.7,0,9.2,0c0.1,0,0.3,0.2,0.5,0.5
					C176.2,444.3,176.4,444.7,176.6,445.2z"/>
				<g>
					<path class="st3" d="M180,447.6c-0.5,0-1-0.4-1.1-0.9l-0.3-3.5c0-0.5,0.4-1,0.9-1.1l0,0c0.5,0,1,0.4,1.1,0.9l0.3,3.5
						C181,447,180.6,447.5,180,447.6L180,447.6z"/>
					<path class="st3" d="M184.6,447.3c-0.5,0.1-1-0.2-1.2-0.8l-0.6-3.4c-0.1-0.5,0.2-1,0.8-1.1l0,0c0.5-0.1,1,0.2,1.1,0.8l0.6,3.4
						C185.5,446.7,185.1,447.2,184.6,447.3L184.6,447.3z"/>
					<path class="st3" d="M189,446.5c-0.5,0.2-1.1-0.1-1.2-0.7l-1-3.3c-0.2-0.5,0.1-1.1,0.7-1.2l0,0c0.5-0.2,1.1,0.1,1.2,0.7l1,3.3
						C189.8,445.8,189.5,446.4,189,446.5L189,446.5z"/>
					<path class="st3" d="M193.3,445.7c-0.5,0.2-1.1,0-1.3-0.5l-1.3-3.2c-0.2-0.5,0-1.1,0.5-1.3l0,0c0.5-0.2,1.1,0,1.3,0.5l1.3,3.2
						C194,444.9,193.8,445.5,193.3,445.7L193.3,445.7z"/>
				</g>
			</g>
		</g>
		<path class="st0" d="M270.2,313.8c0,0-13.7,6.3-45.9,24.5c-4.9,2.8-7,9.4-8.4,14.8c-1.4,5.4-19.6,80.5-19.6,80.5s10.1,4,17.5,5
			l1.2-8.1c0,0,11.2-27.4,14.9-35.6c3.7-8.2,12.9-36.1,12.9-36.1l64.6-22.3v-22.6H270.2z"/>
	</g>
	<g>
		<g id="XMLID_306_">
			<g>
				<path class="st0" d="M236.5,435.2c0,0-3.9,11-5,17L218,447l5.6-15.6L236.5,435.2z"/>
				<path class="st0" d="M202.5,453.6c13,3.7,29.1,8.2,29.1,8.2s-0.5,2.6-0.8,3.3c-0.3,0.7-1.3,0.5-1.3,0.5s-15.6-4.4-28.7-8.1
					c-9.2-2.6-15.8-5.6-16.2-5.7c-0.3-0.1-0.5-0.6-0.4-0.8c0.1-0.3,1-1.9,1.5-2.4c0.1-0.1,0.2-0.2,0.4-0.2c0.3,0,0.6,0,0.6,0
					c0.3,0.1,6.6,2.7,14.8,5C201.8,453.4,202.1,453.5,202.5,453.6z"/>
				<path class="st1" d="M224.3,438c0.6,0.4,0.7,3.9-2.4,5.5c-0.2-0.3-0.3-0.5-0.4-0.7c-1.4,1.4-4,2-4,2c-6.2,1.9-13.2,2.2-13.8,2.2
					c-0.6,0-1.9-1.8-1.9-1.8l0,0c-0.2-0.5-0.4-0.9-0.5-1.2l0,0c0,0,0.4-0.6,1.3-0.8c0.8-0.2,6,0.1,9.6-0.4c3.6-0.4,5.7-1.3,6.6-2.5
					c1-1.2,0.5-2.3,0.6-2.9c0-0.5,0.7-1.2,1.6-0.9C221.7,437,223.7,437.6,224.3,438z"/>
				<path class="st2" d="M220.9,436.7c0.9,0.3,2.9,0.9,3.4,1.3c0.6,0.4,0.7,3.9-2.4,5.5"/>
				<path class="st2" d="M201.2,444.1c0,0,0.4-0.6,1.3-0.8c0.8-0.2,6,0.1,9.6-0.4c3.6-0.4,5.7-1.3,6.6-2.5c1-1.2,0.5-2.3,0.6-2.9
					c0-0.5,0.7-1.2,1.6-0.9"/>
				<path class="st0" d="M217.8,443.9c0,0,3-1.8,4.1-0.5c0.8,1.5,2.1,4.2,4.4,4.5c2.8,0.4,6.2-1,6.6-0.3c0.4,0.8,0.5,6.3-1.4,14
					c0,0-17.6-4.9-30.6-8.6c0.6-3.9,0.8-4.1,0.7-6.7l0-1.2c0,0,0.5,0.5,1.1,0.6C203.5,445.8,211.7,445.8,217.8,443.9z"/>
				<path class="st0" d="M201.7,445.2c0.6,1.6,1.1,4.3,0.8,8.3c-0.4-0.1-0.7-0.2-1.1-0.3c-8.2-2.3-14.5-4.8-14.8-5
					c0,0-0.3-0.1-0.6,0c0,0,1.5-2.5,2.2-3.4c0.7-0.9,2.1-1.3,3.2-1.3c1.1,0,8.7,0,9.2,0c0.1,0,0.3,0.2,0.5,0.5
					C201.3,444.3,201.5,444.7,201.7,445.2z"/>
				<g>
					<path class="st3" d="M205.2,447.6c-0.5,0-1-0.4-1.1-0.9l-0.3-3.5c0-0.5,0.4-1,0.9-1.1l0,0c0.5,0,1,0.4,1.1,0.9l0.3,3.5
						C206.1,447,205.7,447.5,205.2,447.6L205.2,447.6z"/>
					<path class="st3" d="M209.8,447.3c-0.5,0.1-1-0.2-1.2-0.8l-0.6-3.4c-0.1-0.5,0.2-1,0.8-1.1l0,0c0.5-0.1,1,0.2,1.1,0.8l0.6,3.4
						C210.7,446.7,210.3,447.2,209.8,447.3L209.8,447.3z"/>
					<path class="st3" d="M214.1,446.5c-0.5,0.2-1.1-0.1-1.2-0.7l-1-3.3c-0.2-0.5,0.1-1.1,0.7-1.2l0,0c0.5-0.2,1.1,0.1,1.2,0.7
						l1,3.3C214.9,445.8,214.6,446.4,214.1,446.5L214.1,446.5z"/>
					<path class="st3" d="M218.5,445.7c-0.5,0.2-1.1,0-1.3-0.5l-1.3-3.2c-0.2-0.5,0-1.1,0.5-1.3l0,0c0.5-0.2,1.1,0,1.3,0.5l1.3,3.2
						C219.2,444.9,219,445.5,218.5,445.7L218.5,445.7z"/>
				</g>
			</g>
		</g>
		<path class="st0" d="M284.7,317.4c0,0-14.4,7.6-37.6,22.3c-4.8,3-6.1,7.4-7.5,12.7c-1.4,5.4-18.1,81.2-18.1,81.2s10.1,4,17.5,5
			l1.2-8.1c0,0,11.2-27.4,14.9-35.6c3.7-8.2,12.9-36.1,12.9-36.1s24.5-1.2,32.6-2.6c26.2-4.6,16.6-38.8,16.6-38.8H284.7z"/>
	</g>
	<path class="st0" d="M318.4,226.9c0,0,12.7,7.3,15.7,9.1c3,1.8,4.5,6.1,2,14c-2.5,7.9-17.5,54.6-17.1,58.4c0.5,3.8,1.9,10,1.9,10
		s-9.2,5.5-37.1,3.3c-14.7-1.2-17.2-6.2-17.2-6.2s1-48.4,6.7-65.4c2.5-7.5,5.9-14.6,7.9-16.3c2-1.7,8.7-7.6,8.7-7.6L318.4,226.9z"/>
	<g>
		<path class="st3" d="M278.4,176.8c0,0-2.4,5.5-2.8,11.1c-0.4,5.6,2.9,8.3,7.2,8.3v-19.3H278.4z"/>
		<g>
			<path class="st0" d="M314.9,204.8c0,0-0.9,8.7-0.6,13.6c0.3,5,3.1,9.5,3.1,9.5s-5.2,10.5-20.6,7.6c-6.7-1.2-6.7-7.2-5.8-8.6
				c1-1.4,6.3-6,6.3-22.2H314.9z"/>
			<path class="st0" d="M314.9,204.8c0,0-0.9,8.7-0.6,13.6c0.3,5,3.1,9.5,3.1,9.5s-5.2,10.5-20.6,7.6c-6.7-1.2-6.7-7.2-5.8-8.6
				c1-1.4,6.3-6,6.3-22.2H314.9z"/>
		</g>
		<path class="st0" d="M288.2,170.4c-7.7,6.1-8.8,13.9-8.1,22c0.7,8.1,0.8,8.4,0.7,12.6c-0.1,4.2,4.8,14.5,10,14.9
			c5.9,0.5,18.8-3.5,23.7-13c6.3-2.6,11.1-8.3,10.5-21.8C324.3,168.8,303.2,158.7,288.2,170.4z"/>
		<path class="st3" d="M278.4,176.8c0,0,8.6,12.9,32.3,15.6l3,7.3c0,0,1-0.7,1.9-2.4l2.2-3.3l-0.2,10.5l-2.8,2.6l-0.6,8.4
			c0,0,5.2-5.8,7.7-9.4c2.5-3.6,5.8-10.8,5.8-18.1c0-7.3-3.5-18.5-16-22.7C299.3,161.2,285.1,165.5,278.4,176.8z"/>
		<g>
			<path class="st1" d="M316.5,197c0,0-0.4-0.7,0.4-1.8c1-1.4,2.7-2.9,5.1-3c4.1-0.1,3.1,6.5,0.8,9.9c-2.3,3.5-6.5,4.8-8.3,4.7
				C314.5,207,314.9,202.1,316.5,197z"/>
			<path class="st0" d="M315.7,197.2c0,0,2.2-4.8,6.3-4.9c4.1-0.1,3.1,6.5,0.8,9.9c-2.3,3.5-6.5,4.8-8.3,4.7"/>
		</g>
		
			<ellipse transform="matrix(0.9965 -8.359285e-02 8.359285e-02 0.9965 -15.3433 25.5622)" class="st4" cx="297.6" cy="196" rx="1.8" ry="2.3"/>
		
			<ellipse transform="matrix(0.9965 -8.386282e-02 8.386282e-02 0.9965 -15.5422 24.441)" class="st4" cx="283.2" cy="197.2" rx="1.4" ry="2"/>
		<path class="st0" d="M288.1,206.1c0,0-1.3-0.6-0.8-2.6"/>
		<path class="st0" d="M288.2,211.6c0,0,3.7,0.9,7.2-1.6"/>
		<path class="st0" d="M294.2,190.6c0,0,1.8-1.2,6.3-0.5"/>
		<path class="st0" d="M284.1,191c0,0-1.2-0.6-2.7-0.4"/>
		<path class="st3" d="M281,179.7c0,0,1.7,9.1,9.9,13.2c-0.9-5.3-2.8-11-2.8-11L281,179.7z"/>
	</g>
	<g>
		<polygon class="st0" points="314.4,219.1 293.5,234.3 305.8,244.6 318.4,226.9 		"/>
		<polygon class="st0" points="293.5,234.3 294.5,221.6 289.4,225.9 283.5,238.8 		"/>
	</g>
	<path class="st0" d="M275.4,289.2c0,0-15.1-4.1-15.5-4.1c-0.5,0-2.6,1-3.7,1.8c-1.1,0.8-6.6,7.9-6.8,10.5h26.1V289.2z"/>
	<g>
		<path class="st1" d="M336.2,237.9c0,0-14.3,2.3-21.9,20.9l-3.6,23.5l-36.3,6.5v8.4c0,0,51.9,0,53,0c1.1,0,2.9-1.3,3.2-2.7
			c0.2-1.4,7.4-42.7,7.5-46.6C338.2,242.8,337.8,239.9,336.2,237.9z"/>
		<path class="st0" d="M315.4,250.4l-4.7,31.9l-36.3,6.5v8.4c0,0,51.9,0,53,0c1.1,0,2.9-1.3,3.2-2.7c0.2-1.4,7.4-42.7,7.5-46.6
			c0.2-5.3-0.3-8.1-1.8-10.1"/>
	</g>
</g>
<g>
	<polygon class="st0" points="261.3,465.6 250.6,465.6 285.9,313 296.5,313 	"/>
	<polygon class="st0" points="266.6,465.6 256,465.6 291.2,313 301.8,313 	"/>
	<polygon class="st0" points="340.9,465.6 351.5,465.6 316.3,313 305.6,313 	"/>
	<polygon class="st0" points="346.2,465.6 356.8,465.6 321.6,313 311,313 	"/>
	<path class="st0" d="M321,312.6c0,2.1-1.7,3.7-3.7,3.7h-38.4c-2,0-3.7-1.7-3.7-3.7v-8.4c0-2.1,1.7-3.7,3.7-3.7h38.4
		c2.1,0,3.7,1.7,3.7,3.7V312.6z"/>
	<path class="st0" d="M328.6,312.6c0,2.1-1.7,3.7-3.7,3.7h-38.4c-2.1,0-3.7-1.7-3.7-3.7v-8.4c0-2.1,1.7-3.7,3.7-3.7h38.4
		c2.1,0,3.7,1.7,3.7,3.7V312.6z"/>
</g>
<g>
	<rect x="91.3" y="297.3" class="st0" width="282.5" height="8.7"/>
	<rect x="245.8" y="297.3" class="st0" width="127.9" height="8.7"/>
</g>
<g>
	<rect x="176.1" y="292.5" class="st0" width="74.4" height="4.8"/>
	<polygon class="st0" points="290,297.3 250.5,297.3 250.5,292.5 287.2,295.4 	"/>
</g>
<g>
	<path class="st0" d="M236.6,271.3c0.3,1.8-0.9,3.3-2.8,3.3H130.6c-1.9,0-3.7-1.5-4-3.3l-12.4-70.5c-0.3-1.8,0.9-3.3,2.8-3.3h103.1
		c1.9,0,3.7,1.5,4,3.3L236.6,271.3z"/>
	<path class="st0" d="M232.5,271.3c0.3,1.8-0.9,3.3-2.8,3.3H126.6c-1.9,0-3.7-1.5-4-3.3l-12.4-70.5c-0.3-1.8,0.9-3.3,2.8-3.3h103.1
		c1.9,0,3.7,1.5,4,3.3L232.5,271.3z"/>
	<path class="st0" d="M158.5,244.6c0,0-6.3,1.3-7.9,9.4c-2.6,13.1-4.7,33.7-5.5,37.2c-0.7,3.5,0.7,6.1,5.7,6.1h23.5
		c-5,0-6.5-2.6-5.7-6.1c0.7-3.5,2.9-24.1,5.5-37.2c1.6-8.1,6.8-9.4,6.8-9.4H158.5z"/>
	<path class="st0" d="M173.2,297.3c-5,0-6.5-2.6-5.7-6.1c0.7-3.5,2.9-24.1,5.5-37.2c1.6-8.1,7.9-9.4,7.9-9.4l0.8,4.7
		c0,0-3.4,0.3-4.8,7.2c-2.2,11.3-4.1,29-4.7,32c-0.6,3,1.1,3.9,5.4,3.9c5.7,0,13.7,0,13.7,0l3.5,4.8H173.2z"/>
</g>
<g>
	<polygon class="st0" points="312.9,297.3 296.4,297.3 294.5,273.7 314.9,273.7 	"/>
	<polygon class="st0" points="314.5,272.4 294.9,272.4 296.3,266.9 313.1,266.9 	"/>
	<rect x="292.8" y="270.8" class="st0" width="23.7" height="5.5"/>
	<polygon class="st3" points="313.8,292.5 315,279.7 294.4,279.7 295.5,292.5 	"/>
</g>
<g>
	<g>
		<path class="st5" d="M73.6,345.9c0,27.4-6.7,41.7-15,41.7c-8.3,0-15-14.3-15-41.7c0-27.4,6.7-57.6,15-57.6
			C66.9,288.3,73.6,318.5,73.6,345.9z"/>
		<line class="st5" x1="58.6" y1="288.3" x2="58.6" y2="387.7"/>
		<polyline class="st5" points="45.3,367.6 58.6,380.9 71.8,367.6 		"/>
		<polyline class="st5" points="43.6,342.7 58.6,357.7 73.6,342.7 		"/>
		<polyline class="st5" points="45.2,321.2 58.6,334.5 71.9,321.2 		"/>
		<polyline class="st5" points="49.3,302 58.6,311.3 67.9,302 		"/>
	</g>
	<g>
		<path class="st5" d="M44.6,351.6c8.5,21.3,7.7,34.4,1.2,37c-6.4,2.6-16.1-6.4-24.5-27.7c-8.5-21.3-12.6-46.7-6.1-49.3
			C21.6,309,36.2,330.3,44.6,351.6z"/>
		<line class="st5" x1="15.2" y1="311.6" x2="45.9" y2="388.6"/>
		<polyline class="st5" points="29.4,377.1 43.8,383.3 49.9,368.9 		"/>
		<polyline class="st5" points="20.4,358.3 36.6,365.3 43.6,349.1 		"/>
		<polyline class="st5" points="15,341.2 29.5,347.4 35.7,332.9 		"/>
		<polyline class="st5" points="12.2,325.1 22.3,329.4 26.6,319.3 		"/>
	</g>
	<g>
		<path class="st5" d="M71.4,357.3c-7.2,18.1-6.5,29.3-1,31.5c5.5,2.2,13.7-5.5,20.9-23.6c7.2-18.1,10.7-39.8,5.2-42
			C91,321,78.6,339.2,71.4,357.3z"/>
		<line class="st5" x1="96.5" y1="323.2" x2="70.4" y2="388.8"/>
		<polyline class="st5" points="84.4,379 72.2,384.3 66.9,372.1 		"/>
		<polyline class="st5" points="92.1,363 78.3,369 72.3,355.1 		"/>
		<polyline class="st5" points="96.7,348.4 84.4,353.7 79.1,341.4 		"/>
		<polyline class="st5" points="99,334.7 90.5,338.4 86.8,329.8 		"/>
	</g>
	<g>
		<polygon class="st0" points="78.7,445.9 38.5,445.9 29.8,382.6 87.4,382.6 		"/>
		<g>
			<rect x="31.4" y="416" class="st0" width="5.1" height="45.7"/>
			<rect x="80.7" y="416" class="st0" width="5.1" height="45.7"/>
		</g>
		<rect x="36.5" y="445.9" class="st0" width="44.2" height="4.7"/>
		<rect x="36.5" y="424.3" class="st0" width="44.2" height="4.7"/>
		<rect x="56" y="416" class="st0" width="5.1" height="45.7"/>
	</g>
</g>
<g>
	<g>
		<circle class="st5" cx="172.3" cy="133.5" r="9.2"/>
		<line class="st5" x1="172.3" y1="145.9" x2="172.3" y2="149.3"/>
		<line class="st5" x1="178.5" y1="144.2" x2="180.2" y2="147.2"/>
		<line class="st5" x1="183" y1="139.7" x2="186" y2="141.4"/>
		<line class="st5" x1="184.7" y1="133.5" x2="188.1" y2="133.5"/>
		<line class="st5" x1="183" y1="127.3" x2="186" y2="125.6"/>
		<line class="st5" x1="178.5" y1="122.8" x2="180.2" y2="119.8"/>
		<line class="st5" x1="172.3" y1="121.1" x2="172.3" y2="117.7"/>
		<line class="st5" x1="166.2" y1="122.8" x2="164.5" y2="119.8"/>
		<line class="st5" x1="161.6" y1="127.3" x2="158.7" y2="125.6"/>
		<line class="st5" x1="160" y1="133.5" x2="156.6" y2="133.5"/>
		<line class="st5" x1="161.6" y1="139.7" x2="158.7" y2="141.4"/>
		<line class="st5" x1="166.2" y1="144.2" x2="164.5" y2="147.2"/>
	</g>
	<line class="st0" x1="172.3" y1="0" x2="172.3" y2="127.5"/>
	<path class="st0" d="M172.3,99.2L172.3,99.2L172.3,99.2L172.3,99.2L172.3,99.2c-12.1,0-20.8,9.4-20.8,23.2c0,8.4,0,11.8,0,11.8
		h20.8l0,0h20.8c0,0,0-3.5,0-11.8C193.1,108.5,184.4,99.2,172.3,99.2z"/>
</g>
<g>
	<g>
		<line class="st6" x1="233.3" y1="105.1" x2="237.3" y2="109.1"/>
		<line class="st6" x1="237.3" y1="105.1" x2="233.3" y2="109.1"/>
	</g>
	<g>
		<line class="st6" x1="382.6" y1="213.1" x2="386.6" y2="217.1"/>
		<line class="st6" x1="386.6" y1="213.1" x2="382.6" y2="217.1"/>
	</g>
	<circle class="st6" cx="59.1" cy="190.4" r="2.9"/>
	<polygon class="st6" points="331.5,116.8 338.4,117.8 334,123.2 	"/>
	<polygon class="st6" points="246.1,167.6 239.3,168.7 243.6,174.1 	"/>
	<polygon class="st6" points="83.2,92 76.4,93.1 80.7,98.4 	"/>
	<path class="st6" d="M11.9,136.8c2.3,0,2.3,1.7,4.5,1.7s2.3-1.7,4.5-1.7c2.3,0,2.3,1.7,4.5,1.7c2.3,0,2.3-1.7,4.5-1.7
		c2.3,0,2.3,1.7,4.5,1.7c2.3,0,2.3-1.7,4.5-1.7"/>
	<path class="st6" d="M405.2,293.8c2.3,0,2.3,1.7,4.5,1.7c2.3,0,2.3-1.7,4.5-1.7c2.3,0,2.3,1.7,4.5,1.7c2.3,0,2.3-1.7,4.5-1.7
		c2.3,0,2.3,1.7,4.5,1.7c2.3,0,2.3-1.7,4.5-1.7"/>
	<path class="st6" d="M11.9,264c2.3,0,2.3,1.7,4.5,1.7c2.3,0,2.3-1.7,4.5-1.7c2.3,0,2.3,1.7,4.5,1.7c2.3,0,2.3-1.7,4.5-1.7
		c2.3,0,2.3,1.7,4.5,1.7c2.3,0,2.3-1.7,4.5-1.7"/>
</g>
</svg>
