<?xml version="1.0" encoding="utf-8"?>
<!-- Generator: Adobe Illustrator 21.0.0, SVG Export Plug-In . SVG Version: 6.00 Build 0)  -->
<svg version="1.1" id="Capa_1" xmlns="http://www.w3.org/2000/svg" xmlns:xlink="http://www.w3.org/1999/xlink" x="0px" y="0px"
	 viewBox="0 0 149 72" style="enable-background:new 0 0 149 72;" xml:space="preserve">
<style type="text/css">
	.st0{fill:#C1C1C1;}
</style>
<g>
	<path class="st0" d="M371.4,3841.1c0.2,0.2,0.4,0.4,0.6,0.5c0.2,0.1,0.4,0.3,0.6,0.6c0,0.1,0.1,0.1,0.2,0.2
		c0.2,0.2,0.5,0.3,0.7,0.5c0.1,0,0.3,0.1,0.4,0.2c1,0.8,2.1,1.5,3.1,2.3c0.3,0.2,0.7,0.5,1,0.7c0.1,0,0.2,0.1,0.3,0.2
		c0.9,0.8,2.1,1.3,3.2,1.8c1.2,0.6,2.4,0.9,3.7,1c0.7,0.1,1.5,0,2.2-0.1c1.2-0.2,2.3-0.7,3.3-1.4c0.1-0.1,0.2-0.1,0.2-0.1
		c0,0,0.1,0,0.1-0.1c0.1-0.2,0.4-0.2,0.6-0.4c0.2-0.2,0.5-0.4,0.7-0.6c0.1-0.1,0.3-0.2,0.5,0c0.2,0.1,0.2,0.3,0.1,0.4
		c-0.1,0.3-0.2,0.7-0.4,0.9c-0.2,0.3-0.3,0.6-0.4,0.9c-0.2,0.5-0.5,0.9-0.9,1.3c0,0-0.1,0-0.1,0.1c-0.2,0.6-0.7,0.8-1.1,1.3
		c-0.4,0.5-0.9,0.8-1.4,1.1c-0.4,0.2-0.8,0.5-1.2,0.7c-0.8,0.2-1.7,0.4-2.6,0.4c-1,0-1.9-0.1-2.9-0.3c-0.8-0.2-1.6-0.5-2.4-0.8
		c-0.6-0.3-1.2-0.6-1.8-0.9c-0.6-0.2-1.1-0.6-1.7-0.9c-0.7-0.3-1.4-0.8-2.1-1.2c-1-0.6-2.1-1.2-3-2.1c-0.1-0.1-0.3-0.1-0.4-0.2
		c-1.7-1-3.2-2.3-4.9-3.2c-1.6-0.8-3.4-1.4-5.1-1.8c-0.6-0.2-1.2-0.1-1.8-0.2c-1-0.2-2-0.1-2.9,0c-0.9,0-1.7,0.2-2.6,0.4
		c-1.6,0.4-3.1,1.1-4.5,2.1c-0.1,0.1-0.2,0.2-0.4,0.3c-0.1,0-0.1,0.1-0.2,0.1c-0.1,0,0-0.1,0-0.2c0.4-0.8,0.6-1.7,1.3-2.3
		c0.4-0.3,0.6-0.8,0.9-1.2c0.2-0.2,0.3-0.4,0.4-0.6c0.6-0.4,1.1-1,1.8-1.4c0.7-0.4,1.4-0.7,2.2-1c0.1,0,0.2,0,0.4-0.1
		c0.4,0,0.8-0.2,1.2-0.3c0.4-0.1,0.8-0.2,1.2-0.2c0.5-0.1,1.1-0.1,1.6-0.2c0.8-0.1,1.5-0.1,2.3,0c0.8,0.1,1.6,0.2,2.4,0.3
		c1.4,0.2,2.6,0.8,3.9,1.3c0,0,0.1,0,0.1,0.1c0.6,0.4,1.4,0.7,2,1.1C370.4,3840.4,370.9,3840.7,371.4,3841.1z"/>
	<path class="st0" d="M347.8,3851.2c0.4,0.4,0.7,0.8,1,1.1c1.3,1.4,2.8,2.4,4.4,3.2c2.2,1.1,4.6,1.6,7.1,1.8
		c2.4,0.2,4.7-0.2,7.1-0.6c1.6-0.3,3.3-0.5,5-0.7c1.7-0.2,3.3-0.4,5-0.4c1.8,0,3.5,0.1,5.2,0.5c0.7,0.2,1.3,0.4,1.9,0.6
		c0.3,0.1,0.6,0.3,0.8,0.5c1.3,0.9,2.2,2.1,2.7,3.5c0.6,1.4,0.7,2.9,0.7,4.4c0,0.2-0.1,0.4-0.1,0.6c0,0.1,0,0.2-0.1,0.2
		c-0.1,0-0.2-0.1-0.2-0.1c-0.1-0.1-0.1-0.3-0.2-0.4c-0.2-0.5-0.5-0.9-0.7-1.4c-0.2-0.4-0.4-0.8-0.8-1c-0.1-0.1-0.2-0.3-0.3-0.4
		c-1.3-1.5-3-2.4-4.9-2.7c-2.2-0.3-4.4-0.1-6.6,0.3c-2.3,0.5-4.5,1.1-6.8,1.6c-1.9,0.4-3.7,0.8-5.6,0.8c-2.9,0.1-5.6-0.6-8.1-1.9
		c-0.9-0.4-1.8-0.9-2.6-1.6c-1.9-1.6-3.5-3.4-4.1-5.8c-0.1-0.3-0.1-0.6-0.2-1c-0.1-0.5-0.1-1-0.2-1.5c0-0.1,0-0.2,0-0.2
		c0-0.1,0.1-0.2,0.2-0.2c0.1,0,0.2,0.1,0.2,0.2C347.5,3850.8,347.6,3851,347.8,3851.2z"/>
	<path class="st0" d="M440.7,3853.3c-0.1-0.7-0.1-1.5-0.3-2.2c-0.2-1.3-0.4-2.6-0.6-3.9c-0.1-0.7-0.3-1.3-0.7-1.9
		c-0.1-0.2-0.3-0.3-0.6-0.4c-0.2,0-0.3-0.1-0.2-0.3c0.1-0.1,0.1-0.1,0.2-0.2c0.4-0.3,0.8-0.7,1.1-1.2c0.2-0.3,0.3-0.8,0.4-1.2
		c0.1-0.9,0.2-1.7,0.1-2.5c-0.1-0.9-0.2-1.8-0.9-2.5c-0.5-0.4-0.8-0.9-1.5-1.1c-0.3-0.1-0.6-0.1-0.8-0.2c-0.2-0.1-0.3-0.1-0.5-0.1
		c-0.2,0-0.4-0.1-0.6-0.1c-1.2,0-2.4,0-3.6,0c-0.2,0-0.3,0-0.4,0.1c-0.2,0.1-0.3,0.3-0.3,0.6c0,3.9,0,7.9,0,11.8
		c0,1.5,0.1,3.1-0.1,4.6c-0.1,0.4,0,0.8,0.4,1l2.8,0c0.1-0.1,0.1-0.2,0.1-0.5c0-1.2,0-2.3,0-3.5c0-1.2,0-2.4,0-3.6
		c0-0.5,0.2-0.7,0.7-0.5c0.7,0.1,1,0.7,1.2,1.3c0.2,0.8,0.3,1.6,0.4,2.4c0.2,1.2,0.3,2.4,0.5,3.6c0.1,0.3,0.1,0.6,0.3,0.8l2.6,0
		C440.6,3853.7,440.7,3853.5,440.7,3853.3z M436.8,3841.6c0,0.9-0.6,1.6-1.5,1.8c-0.4,0.1-0.7-0.2-0.7-0.7c0-0.7,0-1.5,0-2.2h0
		c0-0.6,0-1.3,0-1.9c0-0.5,0.2-0.7,0.7-0.7c1-0.1,1.3,0.6,1.4,1.4C436.8,3840,436.8,3840.8,436.8,3841.6z"/>
	<path class="st0" d="M451.1,3843.2c0-0.9,0-1.8-0.1-2.8c-0.1-0.5,0-1-0.3-1.4c0-0.1-0.1-0.1-0.1-0.2c-0.3-1-0.8-1.9-1.7-2.5
		c-0.6-0.4-1.2-0.7-1.9-0.8c-0.5-0.1-1-0.1-1.5,0c-0.2,0-0.3,0.1-0.5,0.1c-0.9,0.2-1.6,0.6-2.2,1.2c-0.5,0.6-0.9,1.3-1.1,2.1
		c-0.3,1.4-0.3,2.7-0.4,4.1c0,1.6,0.1,3.1,0.1,4.7c0,0.9,0.1,1.7,0.3,2.5c0.2,0.9,0.6,1.7,1.2,2.3c0.7,0.7,1.5,1,2.5,1.1l1.2,0
		c0.5-0.1,1-0.2,1.5-0.3c0.6-0.1,1.1-0.4,1.5-0.8c0.1-0.1,0.3-0.2,0.4-0.4c0.2-0.1,0.2-0.2,0.3-0.4c0.6-1.2,0.9-2.5,0.9-3.8
		C451.1,3846.5,451.1,3844.9,451.1,3843.2z M447.8,3847.8c0,0.8,0,1.7-0.3,2.5c-0.1,0.2-0.2,0.4-0.3,0.7c-0.4,0.7-1,0.7-1.6,0.5
		c-0.1,0-0.2-0.1-0.3-0.2c-0.3-0.5-0.5-1.1-0.6-1.7c-0.2-2.1-0.1-4.2-0.1-6.3c0-1.1,0.1-2.2,0.1-3.3c0-0.7,0.2-1.3,0.7-1.7
		c0.4-0.4,0.7-0.4,1.2-0.2c0.6,0.3,0.8,0.8,0.9,1.3c0.1,0.5,0.1,1,0.1,1.5c0,0.5,0,1.1,0,1.6C447.9,3844.2,447.8,3846,447.8,3847.8z
		"/>
	<path class="st0" d="M421.9,3853.5c-0.1-0.4-0.1-0.9-0.1-1.3c0-0.5-0.2-0.9-0.2-1.3c-0.1-0.8-0.2-1.6-0.4-2.4
		c-0.1-0.5-0.2-1-0.3-1.5c-0.1-0.8-0.2-1.6-0.4-2.3c-0.1-0.6-0.1-1.3-0.3-1.9c-0.1-0.6-0.1-1.2-0.2-1.7c-0.1-0.7-0.3-1.3-0.3-2
		c-0.1-0.8-0.1-1.6-0.3-2.4c-0.2-0.7-0.1-0.9-0.5-1c-0.1,0-0.3-0.1-0.6-0.1c-0.5-0.1-1,0-1.4,0c0,0,0,0,0,0c-0.3,0-0.6,0-0.9,0
		c-0.2,0-0.3,0-0.4,0.1c-0.4,0.1-0.6,0.2-0.7,0.9c-0.1,0.6-0.2,1.3-0.2,1.9c-0.1,0.6-0.2,1.2-0.3,1.7c-0.1,0.8-0.2,1.6-0.4,2.4
		c-0.1,0.5-0.2,1-0.2,1.6c-0.1,0.7-0.2,1.3-0.3,2c-0.1,0.7-0.3,1.5-0.4,2.2c-0.1,0.6-0.1,1.3-0.3,1.9c-0.1,0.6-0.2,1.2-0.3,1.8
		c-0.1,0.4,0,0.8-0.2,1.2c-0.1,0.2-0.1,0.3-0.1,0.4l2.7,0c0,0,0-0.1,0-0.1c0-0.6,0.1-1.2,0.2-1.9c0.1-0.8,0.2-1.7,0.3-2.5
		c0-0.5,0.1-0.6,0.6-0.6c0.5,0,0.9,0,1.4,0c0.5,0,0.6,0.1,0.7,0.6c0.1,1.3,0.5,2.6,0.5,4c0,0.3,0.1,0.4,0.2,0.5l3,0
		C421.9,3853.6,421.9,3853.5,421.9,3853.5z M415.9,3846.2l0.8-7.6l0.9,7.6H415.9z"/>
	<path class="st0" d="M396,3854c-0.3-0.3-0.6-0.5-0.9-0.8c-0.1-0.1-0.1-0.3-0.1-0.4c0-0.6,0-1.2,0-1.7c0-0.1,0-0.2,0.1-0.3
		c0.1-0.1,0-0.2,0-0.2c0.2-0.1,0.3,0,0.4,0.1c0.4,0.4,0.8,0.6,1.3,0.8c1.1,0.6,2.4,0.2,2.8-1.2c0.3-1.3,0-2.4-0.6-3.4
		c-0.7-1.2-1.6-2.3-2.4-3.5c-0.5-0.8-1-1.6-1.2-2.6c-0.2-0.8-0.3-1.7-0.2-2.6c0.1-0.6,0.2-1.1,0.4-1.7c0.5-1.3,1.5-2.2,2.7-2.7
		c1.2-0.5,2.4-0.4,3.6-0.1c0.1,0,0.2,0,0.2,0c0.5,0,0.8,0.3,0.8,0.8c0,0.6,0,1.2,0,1.8c0,0.2,0,0.3-0.3,0.2
		c-0.6-0.2-1.2-0.4-1.8-0.4c-0.6,0-1,0.2-1.3,0.7c-0.8,1.2-0.7,2.5-0.2,3.8c0.4,0.9,0.9,1.7,1.5,2.5c0.2,0.2,0.3,0.4,0.4,0.7
		c0.1,0.3,0.4,0.4,0.5,0.7c0.7,1,1.3,2.1,1.5,3.4c0.3,1.4,0.1,2.8-0.4,4.1c-0.2,0.6-0.5,1.1-0.9,1.5c-0.2,0.2-0.4,0.4-0.6,0.6
		c0,0.1-0.1,0.2-0.2,0.2c-0.6,0.4-1.2,0.6-1.9,0.6c-0.6,0-1.3,0-1.9-0.1C396.8,3854.4,396.4,3854.3,396,3854z"/>
	<path class="st0" d="M462.5,3845.3c0-2.9,0-5.8,0-8.8c0-0.3-0.1-0.4-0.4-0.4c-0.6,0-1.2,0-1.8,0c-0.1,0-0.2,0-0.2-0.1
		c-0.1-0.6-0.2-1.2-0.1-1.7c0.1-0.5,0.2-0.5,0.7-0.5c2.4,0,4.8,0,7.2-0.1c0.6,0,0.8,0.3,0.9,0.9c0.1,0.5-0.1,0.9-0.1,1.4
		c0,0.2-0.2,0.2-0.3,0.2c-0.6,0-1.1,0-1.7,0c-0.3,0-0.4,0.1-0.4,0.4c0,5.8,0,11.6,0,17.4c0,0.5-0.1,0.6-0.6,0.6c-0.9,0-1.8,0-2.7,0
		c-0.3,0-0.4-0.1-0.4-0.4c0-0.5,0-0.9,0-1.4C462.6,3850.2,462.6,3847.7,462.5,3845.3C462.6,3845.3,462.5,3845.3,462.5,3845.3z"/>
	<path class="st0" d="M411.7,3853.1c0,0.2-0.1,0.3-0.2,0.4l-6.7,0c0-0.1,0-0.2,0-0.3c0-1.2,0-2.5,0-3.7v-4.7c0-2.8,0-5.6,0-8.4
		c0-0.2,0-0.4,0.1-0.5c0-0.1,0.1-0.1,0.2-0.2c0,0,0,0,0,0c0.1,0,0.1-0.1,0.2-0.1c0.3,0,0.5,0,0.8,0c1.7,0,3.4,0,5.1,0
		c0.1,0,0.2,0,0.3,0.1c0.2,0.1,0.2,0.2,0.2,0.5c0,0.4,0,0.9,0,1.3c-0.1,0.3-0.3,0.4-0.5,0.5c-0.7,0.1-1.5,0.1-2.2,0
		c-0.9-0.1-0.9-0.1-0.9,0.8c0,1.3,0,2.6,0,3.9c0,0.4,0.1,0.6,0.6,0.6c0.8,0,1.6,0,2.4,0c0.3,0,0.4,0.1,0.3,0.3
		c0,0.4,0.1,0.8,0.1,1.2c0,0.5-0.2,0.7-0.7,0.7c-0.7,0-1.4,0-2.2,0c-0.4,0-0.5,0.1-0.5,0.5c0,1.4,0,2.7,0,4.1c0,0.3,0,0.5,0,0.8
		c0,0.3,0.2,0.5,0.5,0.5c0.5,0,0.9,0,1.4,0c0.5,0,1.1,0,1.6,0.1c0.1,0,0.2,0,0.2,0.1C411.8,3852.1,411.8,3852.6,411.7,3853.1z"/>
	<path class="st0" d="M430,3835.8c0,0.6,0,1.1,0,1.7c0,0.2-0.1,0.3-0.3,0.3c-0.8,0.1-1.5,0.1-2.3,0c-1,0-1.1,0.1-1,1.1
		c0.1,1.2,0,2.5,0,3.7c0,0.4,0.1,0.5,0.5,0.5c0.8,0,1.7,0,2.5,0c0.4,0,0.4,0.1,0.4,0.4c0,0.5,0,0.9,0,1.4c0,0.4-0.1,0.5-0.5,0.5
		c-0.8,0-1.6,0-2.5,0c-0.4,0-0.4,0-0.4,0.4c0,1.2,0,2.4,0,3.5h0c0,1.1,0,2.2,0,3.3c0,0.2,0,0.3,0,0.5c0,0.2-0.1,0.3-0.1,0.4l-2.9,0
		c-0.2-0.2-0.3-0.5-0.3-0.9c0.2-3.9,0-7.7,0.1-11.6c0-1.6,0-3.2,0-4.8c0-0.4,0.1-0.6,0.3-0.7c0.1,0,0.3-0.1,0.5-0.1
		c1.9,0,3.9,0,5.8,0c0.1,0,0.2,0,0.3,0.1C430,3835.6,430,3835.7,430,3835.8z"/>
	<path class="st0" d="M458.1,3852.8c-0.1,0.2-0.3,0.3-0.5,0.4c-0.4,0.3-0.8,0.4-1.2,0.5c0,0-0.1,0-0.1,0c-0.3,0-0.5,0.1-0.8,0.1
		c-0.2,0-0.3,0-0.5,0c-0.6,0-1.2-0.2-1.8-0.5c-0.7-0.4-1-1-0.9-1.7c0-0.3,0-0.6,0.1-1c0.1-0.2,0.2-0.3,0.4-0.1
		c0.2,0.1,0.5,0.2,0.7,0.4c0.3,0.1,0.6,0.2,1,0.2c0.5,0,1-0.1,1.3-0.5c0.6-0.8,0.6-1.7,0.2-2.7c-0.3-0.9-0.9-1.7-1.4-2.5
		c-0.5-0.7-1.1-1.4-1.5-2.3c-0.5-1.1-0.8-2.2-0.7-3.4c0.1-1.9,1.2-3.6,3.4-4.1c0.7-0.2,1.5-0.1,2.3,0c0.9,0.2,1.2,0.6,1.1,1.7
		c0,0.2,0,0.4-0.1,0.6c-0.1,0.2-0.1,0.3-0.4,0.2c-0.4-0.2-0.8-0.3-1.2-0.3c-0.7,0-1.2,0.3-1.5,0.9c-0.5,1.1-0.4,2.2,0.1,3.2
		c0.3,0.7,0.7,1.3,1.2,1.9c0.4,0.5,0.8,1.1,1.1,1.7c0.4,0.6,0.7,1.2,0.9,1.9C459.8,3849.4,459.4,3851.2,458.1,3852.8z"/>
	<path class="st0" d="M432,3856.7c-7.8,0-15.5,0-23.3,0c-0.3,0-0.5,0-0.8-0.1c-0.1,0-0.2-0.1-0.2-0.2c0-0.2,0.1-0.3,0.2-0.3
		c0.4,0,0.7,0,1.1,0c3.3,0,6.6,0,10,0c12,0,24,0,35.9,0c0.3,0,0.6,0,0.9,0.1c0.1,0.1,0.2,0.1,0.2,0.3c0,0.1-0.2,0.2-0.3,0.2
		c-0.2,0-0.4,0-0.6,0C447.4,3856.7,439.7,3856.7,432,3856.7L432,3856.7z"/>
	<path class="st0" d="M444.2,3860.9c0-0.2-0.1-0.4-0.2-0.6c-0.1,0-0.1-0.1-0.1-0.1c-0.3-0.6-0.6-0.9-1.3-0.9c-0.5,0-1.1,0-1.6,0
		c-0.7,0-0.8,0.2-0.8,0.8c0,2.1,0,4.2,0,6.2c0,0.4,0,0.8,0,1.2c0,0.2,0,0.3,0.2,0.4c0.7,0.1,1.4,0.1,2.1,0.1c0.4,0,0.9-0.2,1.2-0.5
		c0.1-0.2,0.3-0.4,0.3-0.6c0.2-0.8,0.3-1.6,0.3-2.4C444.5,3863.3,444.4,3862.1,444.2,3860.9z M443.1,3864.3c0,0.6,0,1.2-0.2,1.8
		c-0.1,0.4-0.3,0.5-0.8,0.4c-0.3,0-0.4-0.2-0.5-0.5c-0.1-0.3,0-0.7,0-1c0-1.3,0-2.6,0-4c0-0.4,0.2-0.5,0.5-0.5
		c0.5,0,0.8,0.3,0.9,0.8c0.1,0.3,0,0.5,0,0.8C443,3862.9,443.1,3863.6,443.1,3864.3z"/>
	<path class="st0" d="M454.5,3867.6c-0.1-0.5-0.1-1.1-0.1-1.6c0-0.6-0.1-1.2-0.1-1.8c0-0.2-0.1-0.3-0.3-0.4
		c-0.4-0.3-0.5-0.4-0.1-0.7c0.5-0.6,0.6-1.3,0.5-2.1c-0.1-0.5-0.4-1-0.7-1.4c-0.2-0.2-0.5-0.3-0.7-0.3c-0.7-0.1-1.5-0.1-2.2,0
		c-0.2,0-0.3,0.2-0.3,0.4c-0.1,0.4,0,0.8,0,1.1c0,2.3,0,4.6,0,6.9c0.9,0.3,1.3,0.1,1.2-0.7c0-0.5,0-1.1,0-1.6c0-0.3,0-0.6,0.1-0.9
		c0-0.1,0.1-0.2,0.2-0.2c0.2,0,0.4-0.1,0.6,0c0,0,0.1,0.1,0.1,0.1c0.3,0.2,0.5,0.4,0.5,0.8c0,0.7,0,1.4,0.1,2c0,0.4,0.2,0.5,0.6,0.6
		c0.2,0,0.4,0,0.6,0C454.4,3867.8,454.5,3867.8,454.5,3867.6z M453,3862.3c-0.1,0.4-0.3,0.6-0.7,0.6c-0.7,0-0.7,0.1-0.8-0.7
		c-0.1-0.4,0.1-0.7,0-1.1c-0.1-0.2,0.1-0.4,0.4-0.4c0.2,0,0.3,0,0.5,0c0.5,0.1,0.7,0.3,0.7,0.8C453.1,3861.7,453.1,3862,453,3862.3z
		"/>
	<path class="st0" d="M449.3,3861.2c0-0.2,0-0.5-0.3-0.6c-0.1,0,0-0.1,0-0.1c0-0.8-0.5-1.2-1.1-1.4c-0.1,0-0.3,0-0.4-0.1
		c-0.8-0.2-1.8,0.5-2,1.4c-0.2,1-0.3,2-0.3,3.1c0,1.1,0.1,2.1,0.3,3.2c0.1,0.8,0.6,1.2,1.2,1.4c0.6,0.2,1.1,0.2,1.6-0.1
		c0.3-0.4,0.8-0.8,0.9-1.4c0.1-0.4,0.1-0.8,0.1-1.2C449.4,3864,449.4,3862.6,449.3,3861.2z M448.1,3862c0,0.6,0,1.2,0,1.8h0
		c0,0.7,0,1.4,0,2.1c0,0.3-0.2,0.5-0.4,0.7c-0.3,0.2-0.7,0.2-0.9-0.2c-0.2-0.3-0.2-0.5-0.2-0.8c0-1.3-0.1-2.5,0-3.8
		c0-0.3,0-0.7,0.2-1c0.2-0.2,0.4-0.3,0.7-0.3c0.3,0,0.4,0.2,0.5,0.5C448,3861.3,448.1,3861.6,448.1,3862z"/>
	<path class="st0" d="M408.9,3862.2c-0.1-0.5,0-1.1-0.2-1.6c-0.2-0.7-0.7-1.1-1.4-1.3c-0.6-0.1-1.2,0-1.9,0c-0.4,0-0.5,0.1-0.5,0.5
		c0,1.3,0,2.6,0,3.8h0.1c0,1.3,0,2.6,0,3.9c0,0.2,0,0.3,0.2,0.3c0.7,0,1.4,0.1,2,0c0.7-0.1,1.2-0.4,1.3-1.2c0.2-0.8,0.3-1.7,0.3-2.5
		C408.9,3863.5,409,3862.8,408.9,3862.2z M407.7,3864.9c0,0.3-0.1,0.6-0.1,0.9c-0.1,0.5-0.4,0.7-0.8,0.7c-0.6,0-0.6,0-0.6-0.6v-2.4
		c0-0.9,0-1.7,0-2.6c0-0.2,0-0.3,0.3-0.3c0.1,0,0.2,0,0.3,0c0.6,0,0.8,0.2,0.9,0.8C407.8,3862.6,407.7,3863.7,407.7,3864.9z"/>
	<path class="st0" d="M459.4,3867.5c-0.2-0.5-0.2-1-0.3-1.5c-0.2-1.1-0.3-2.2-0.6-3.2c-0.1-0.4,0-0.9-0.2-1.3
		c-0.2-0.4-0.2-0.9-0.2-1.3c0-0.5-0.2-0.6-0.6-0.8c-0.7-0.2-1.3,0.1-1.2,0.7c0,0.5-0.2,0.9-0.3,1.3c-0.1,0.7-0.2,1.3-0.4,2
		c-0.2,1-0.4,2-0.5,3.1c0,0.4-0.1,0.7-0.2,1.1c0,0.1,0,0.3,0.1,0.3c0.2,0,0.4,0.1,0.6,0.1c0.2,0,0.4-0.1,0.4-0.3
		c0-0.4,0.2-0.7,0.2-1.1c0-0.8,0.1-0.8,0.8-0.8c0,0,0,0,0.1,0c0.3,0,0.4,0.1,0.5,0.4c0.1,0.3,0.1,0.7,0.2,1c0.1,0.3,0,0.6,0.3,0.7
		c0.3,0.1,0.5-0.1,0.8,0c0,0,0,0,0.1,0C459.4,3867.8,459.4,3867.6,459.4,3867.5z M456.7,3864.4l0.4-3.1l0.6,3.1H456.7z"/>
	<path class="st0" d="M415.7,3860.5C415.7,3860.5,415.7,3860.6,415.7,3860.5c0.2,0.4,0.1,0.8,0,1.1c-0.1,0.2-0.3,0.3-0.5,0.3
		c-0.2,0-0.4,0-0.6-0.1c-0.1-0.3,0-0.7-0.2-1c-0.2-0.4-0.6-0.5-0.9-0.2c-0.2,0.2-0.3,0.5-0.2,0.8c0.1,0.6,0.5,1,0.9,1.4
		c0.4,0.3,0.8,0.7,1.1,1c0.3,0.4,0.5,0.9,0.6,1.4c0.1,0.7,0,1.4-0.4,2c-0.8,1.2-2.6,1-3.2-0.1c0-0.1-0.1-0.1-0.1-0.2
		c-0.1-0.1-0.1-0.1-0.1-0.2c0-0.4-0.1-0.8-0.1-1.2c0-0.3,0.1-0.5,0.4-0.6c0.3-0.1,0.6-0.1,0.9,0.1c0.1,0.1,0.1,0.3,0.1,0.4
		c0,0.3,0,0.6,0.1,0.9c0.1,0.2,0.2,0.3,0.3,0.4c0.2,0.1,0.5,0.1,0.6-0.2c0.2-0.4,0.2-0.7,0.1-1.1c-0.2-0.5-0.6-0.9-1.1-1.3
		c-0.6-0.5-1.1-1.1-1.3-1.9c-0.2-0.8-0.1-1.5,0.2-2.2c0.1-0.2,0.3-0.4,0.5-0.5h0c0.6-0.4,1.2-0.5,1.8-0.1
		C415.2,3859.5,415.6,3859.9,415.7,3860.5z"/>
	<path class="st0" d="M419,3864.2c0,1.1,0,2.1,0,3.2c0,0.3-0.2,0.5-0.7,0.5c-0.3,0-0.4-0.1-0.4-0.5c0-0.7-0.1-1.3-0.1-2
		c0-1.4,0-2.8,0-4.2c0-0.5-0.2-0.6-0.6-0.6c-0.6,0-0.6,0-0.7-0.6c0-0.5,0.1-0.6,0.6-0.6c0.8,0,1.6,0,2.3-0.1c0.2,0,0.4,0,0.6,0
		c0.3,0,0.4,0.2,0.4,0.5c0,0.2,0,0.3-0.1,0.5c0,0.2-0.2,0.3-0.4,0.3c-0.2,0-0.4,0-0.6,0c-0.2,0-0.3,0.1-0.3,0.3
		C419,3862,419,3863.1,419,3864.2C419,3864.2,419,3864.2,419,3864.2z"/>
	<path class="st0" d="M426,3859.5c0-0.1,0-0.1,0-0.2c0.4-0.2,0.9-0.2,1.3,0.1c0.1,0.1,0.1,0.2,0.1,0.3c-0.1,2,0,4.1,0,6.1
		c0,0.6,0.1,1.3-0.1,1.9c-0.3,0.3-0.6,0.1-0.9,0.2c-0.4-0.1-0.4-0.1-0.5-0.5c0-2.4,0-4.9,0-7.3C426,3859.9,426,3859.7,426,3859.5z"
		/>
	<path class="st0" d="M438,3863.7c0-1.2,0-2.5,0-3.7c0-0.7,0.3-0.8,0.9-0.6c0.3,0.1,0.3,0.4,0.3,0.6c0,0.9,0,1.8,0,2.7
		c0,1.6,0,3.2,0,4.8c0,0.3-0.1,0.4-0.4,0.4c-0.7,0-0.7,0-0.7-0.8C438,3865.9,438,3864.8,438,3863.7
		C438,3863.7,438,3863.7,438,3863.7z"/>
	<path class="st0" d="M347.8,3851.2c-0.3-0.2-0.4-0.4-0.5-0.8c-0.2,0.2-0.2,0.5-0.1,0.7c0.1,0.4,0.2,0.9,0.2,1.3
		c-0.1,0-0.1-0.1-0.1-0.2c0-0.7-0.3-1.4-0.2-2c0-0.1,0-0.2,0.1-0.2c0.1,0,0.1,0,0.2,0.1C347.3,3850.5,347.7,3850.8,347.8,3851.2z"/>
	<polygon class="st0" points="416.9,3840.2 416.9,3840.2 416.9,3840.2 	"/>
	<polygon class="st0" points="416.9,3840.2 416.9,3840.2 416.9,3840.2 	"/>
	<path class="st0" d="M434.2,3862.8c0,1,0,2.1,0,3.1c0,0.6,0.6,0.9,1.1,0.7c0.1-0.1,0.2-0.2,0.2-0.3c0.2-0.8,0.2-1.7,0.1-2.5
		c0-1.3,0-2.6,0-4c0-0.2,0-0.4,0.3-0.5c0.3-0.1,0.6-0.1,0.8,0c0.1,0.1,0.1,0.2,0.1,0.3c0,2,0.1,4.1,0,6.1c0,0.4-0.1,0.7-0.2,1.1
		c-0.2,0.9-0.9,1.2-1.7,1.3c-1.2,0.1-2.1-0.9-2.1-2.1c0-2.1,0-4.2,0-6.3c0-0.3,0.1-0.4,0.5-0.4c0.7,0.1,0.7,0.1,0.7,0.7
		C434.1,3861,434.1,3861.9,434.2,3862.8C434.1,3862.8,434.2,3862.8,434.2,3862.8z"/>
	<path class="st0" d="M431.8,3864.1c0-0.2-0.1-0.4-0.3-0.5c-0.3-0.2-0.3-0.4-0.1-0.7c0.5-0.9,0.6-1.8,0.1-2.7
		c-0.2-0.4-0.4-0.8-0.8-0.8c-0.7,0-1.4-0.1-2.1-0.1c-0.3,0-0.4,0.2-0.4,0.4c0,1.3,0,2.5,0,3.8h0c0,0.8,0,1.6,0,2.4c0,0.5,0,1,0,1.5
		c0,0.3,0,0.4,0.4,0.4c0.3,0,0.6,0,1,0.1c1.3,0.1,1.9-0.4,2.3-1.5C432.1,3865.6,432,3864.9,431.8,3864.1z M429.7,3860.7
		c0.2-0.1,0.5-0.1,0.7,0.1c0.4,0.4,0.4,0.8,0.2,1.3c-0.1,0.4-0.3,0.6-0.7,0.8c-0.2,0-0.2,0-0.3-0.1c-0.1-0.4-0.1-0.7-0.1-1.1
		c0-0.2,0-0.4,0-0.5C429.5,3860.9,429.4,3860.7,429.7,3860.7z M430.5,3866.4c-0.1,0.2-0.3,0.3-0.5,0.2c-0.2-0.1-0.5-0.2-0.5-0.5
		c0-0.3,0-0.5,0-0.8h0c0-0.2,0-0.5,0-0.7c0-0.2,0-0.5,0.3-0.6c0.2-0.1,0.7,0.1,0.8,0.3C430.9,3864.8,430.8,3865.9,430.5,3866.4z"/>
	<path class="st0" d="M411.1,3863.7c0,1.2,0,2.5,0,3.7c0,0.3-0.3,0.5-0.7,0.5c-0.2,0-0.4-0.2-0.4-0.5c0-1,0-2,0-3.1
		c0-1.4,0-2.8,0-4.2c0-0.1,0-0.2,0-0.3c-0.1-0.4,0.2-0.7,0.6-0.6c0.4,0.1,0.6,0.3,0.6,0.8C411.2,3861.3,411.2,3862.5,411.1,3863.7
		C411.1,3863.7,411.1,3863.7,411.1,3863.7z"/>
	<path class="st0" d="M352.3,3844.8c1.3,0.1,2.4,0.9,2.4,2.4c0,1.3-1.1,2.2-2.2,2.2c-1.3,0-2.5-1.2-2.4-2.4
		C350.1,3845.9,351.2,3844.7,352.3,3844.8z"/>
	<path class="st0" d="M425.1,3867.6c-0.1-0.8-0.2-1.6-0.2-2.4c0-0.6-0.1-1.1-0.5-1.5c-0.2-0.2-0.2-0.4,0-0.6
		c0.2-0.2,0.3-0.4,0.4-0.7c0.2-0.6,0.1-1.2,0-1.8c-0.1-0.8-0.6-1.2-1.4-1.3c-0.7-0.1-1.4,0-2,0c-0.4,0-0.4,0.1-0.4,0.4v6.8
		c0,0.3,0,0.7,0,1c0,0.2,0.1,0.3,0.3,0.3c0.3,0,0.5,0,0.8,0c0.1-1,0.1-2.1,0.1-3.1c0-0.5,0-0.5,0.5-0.5c0.6,0,1,0.4,1,1
		c0,0.8,0,1.6,0.1,2.4c0,0.1,0,0.2,0.1,0.2c0.3,0.1,0.7,0,1.1,0C425.1,3867.8,425.1,3867.8,425.1,3867.6z M423.7,3861.7
		c0,0.2,0,0.5-0.1,0.7c-0.3,0.4-0.7,0.6-1.2,0.4c-0.2-0.1-0.3-0.2-0.3-0.4c0-0.5,0-1,0.1-1.5c0-0.2,0.1-0.3,0.3-0.3
		c0.2-0.1,0.5-0.1,0.7-0.1c0.2,0,0.5,0.5,0.5,0.8C423.7,3861.5,423.7,3861.6,423.7,3861.7z"/>
	<path class="st0" d="M455.5,3853.8c-0.2,0-0.3,0-0.5,0L455.5,3853.8z"/>
	<path class="st0" d="M411.2,3835.5c0.1,0,0.2,0,0.3,0.1H405l0.2,0l1-0.1C407.8,3835.5,409.5,3835.5,411.2,3835.5z"/>
	<path class="st0" d="M418.3,3835.5c0.3,0,0.4,0.1,0.6,0.1h-3.3c0.1,0,0.3,0,0.4-0.1c0.3,0,0.6,0,0.9,0c0,0,0,0,0,0
		C417.3,3835.5,417.8,3835.4,418.3,3835.5z"/>
	<path class="st0" d="M429.7,3835.5c0.1,0,0.2,0,0.3,0.1h-6.5c0.1,0,0.3-0.1,0.5-0.1C425.8,3835.5,427.8,3835.5,429.7,3835.5z"/>
	<path class="st0" d="M435.7,3835.5c0.2,0,0.4,0,0.6,0.1h-4.6c0.1,0,0.2-0.1,0.4-0.1C433.3,3835.5,434.5,3835.5,435.7,3835.5z"/>
	<path class="st0" d="M447,3835.6h-1.5C446,3835.5,446.5,3835.5,447,3835.6z"/>
</g>
<g>
	<path class="st0" d="M35.9,25.4c0.2,0.2,0.4,0.4,0.7,0.6c0.2,0.2,0.5,0.3,0.6,0.6c0,0.1,0.1,0.2,0.2,0.2c0.3,0.2,0.5,0.3,0.8,0.5
		c0.2,0,0.3,0.1,0.4,0.2c1.1,0.8,2.2,1.6,3.3,2.4c0.3,0.3,0.7,0.5,1.1,0.7c0.1,0.1,0.2,0.1,0.3,0.2c1,0.9,2.2,1.4,3.4,2
		c1.2,0.6,2.6,0.9,4,1.1c0.8,0.1,1.6,0,2.4-0.1c1.3-0.2,2.5-0.7,3.6-1.5c0.1-0.1,0.2-0.1,0.3-0.1c0,0,0.1-0.1,0.1-0.1
		c0.1-0.2,0.4-0.2,0.6-0.4c0.2-0.2,0.5-0.4,0.7-0.7c0.1-0.1,0.3-0.2,0.5-0.1c0.2,0.1,0.2,0.3,0.1,0.5c-0.1,0.3-0.2,0.7-0.5,1
		c-0.2,0.3-0.3,0.6-0.5,1c-0.2,0.5-0.6,1-1,1.4c0,0-0.1,0-0.1,0.1c-0.2,0.6-0.8,0.9-1.1,1.4c-0.4,0.6-1,0.9-1.5,1.2
		c-0.4,0.3-0.9,0.5-1.3,0.7c-0.9,0.2-1.8,0.4-2.7,0.4c-1,0-2-0.1-3.1-0.4c-0.9-0.2-1.7-0.6-2.6-0.8c-0.6-0.3-1.3-0.6-1.9-0.9
		c-0.6-0.3-1.2-0.6-1.8-0.9c-0.8-0.4-1.5-0.8-2.2-1.3c-1.1-0.7-2.3-1.2-3.2-2.2C35.3,32,35.1,32,35,31.9c-1.8-1.1-3.4-2.4-5.3-3.4
		c-1.8-0.9-3.6-1.5-5.5-2c-0.6-0.2-1.3-0.1-1.9-0.3c-1-0.2-2.1-0.1-3.1,0c-0.9,0.1-1.8,0.2-2.7,0.4c-1.7,0.5-3.3,1.2-4.8,2.2
		c-0.1,0.1-0.3,0.2-0.4,0.4c-0.1,0-0.1,0.1-0.2,0.1c-0.1,0-0.1-0.1,0-0.2c0.4-0.8,0.7-1.8,1.4-2.5c0.4-0.4,0.7-0.8,1-1.2
		c0.2-0.2,0.3-0.4,0.5-0.6c0.7-0.5,1.2-1.1,1.9-1.5c0.8-0.4,1.5-0.8,2.3-1.1c0.1,0,0.3,0,0.4-0.1c0.5,0,0.9-0.2,1.3-0.3
		c0.4-0.1,0.8-0.2,1.3-0.3c0.6-0.1,1.2-0.1,1.8-0.2c0.8-0.1,1.6-0.1,2.4,0c0.9,0.1,1.7,0.2,2.6,0.3c1.4,0.2,2.8,0.8,4.1,1.3
		c0.1,0,0.1,0.1,0.1,0.1c0.7,0.5,1.5,0.7,2.2,1.2C34.8,24.7,35.4,25,35.9,25.4z"/>
	<path class="st0" d="M10.6,36.2c0.4,0.4,0.7,0.8,1.1,1.2c1.3,1.5,3,2.6,4.7,3.5c2.4,1.2,4.9,1.8,7.5,1.9c2.6,0.2,5.1-0.2,7.6-0.6
		c1.8-0.3,3.5-0.6,5.3-0.8c1.8-0.2,3.5-0.4,5.3-0.4c1.9,0,3.8,0.1,5.6,0.5c0.7,0.2,1.4,0.4,2.1,0.7c0.3,0.1,0.6,0.3,0.9,0.5
		c1.4,0.9,2.3,2.2,2.9,3.7c0.6,1.5,0.8,3.1,0.7,4.7c0,0.2-0.1,0.4-0.1,0.7c0,0.1,0,0.2-0.1,0.2c-0.1,0-0.2-0.1-0.2-0.1
		c-0.1-0.1-0.1-0.3-0.2-0.4c-0.3-0.5-0.5-1-0.8-1.5c-0.2-0.4-0.5-0.8-0.9-1.1c-0.1-0.1-0.2-0.3-0.3-0.4c-1.4-1.7-3.2-2.6-5.3-2.9
		c-2.4-0.4-4.7-0.1-7,0.4c-2.5,0.5-4.9,1.2-7.3,1.7c-2,0.4-4,0.9-6,0.9c-3.1,0.1-5.9-0.7-8.7-2c-1-0.5-1.9-1-2.8-1.7
		c-2-1.7-3.7-3.6-4.4-6.2c-0.1-0.3-0.1-0.7-0.2-1c-0.1-0.5-0.1-1.1-0.3-1.6c0-0.1,0-0.2,0-0.3c0-0.1,0.1-0.2,0.2-0.3
		c0.1,0,0.2,0.1,0.2,0.2C10.3,35.9,10.5,36,10.6,36.2z"/>
	<path class="st0" d="M109.9,38.4c-0.1-0.8-0.1-1.6-0.3-2.3c-0.3-1.4-0.4-2.8-0.7-4.1c-0.1-0.7-0.3-1.4-0.7-2.1
		c-0.2-0.2-0.4-0.4-0.7-0.4c-0.2,0-0.3-0.1-0.2-0.3c0.1-0.1,0.2-0.2,0.3-0.2c0.5-0.3,0.8-0.8,1.1-1.2c0.3-0.4,0.3-0.8,0.4-1.3
		c0.1-0.9,0.3-1.8,0.1-2.7c-0.1-1-0.2-1.9-1-2.7c-0.5-0.4-0.9-1-1.6-1.1c-0.3-0.1-0.6-0.1-0.9-0.2c-0.2-0.1-0.4-0.1-0.5-0.2
		c-0.2,0-0.4-0.1-0.7-0.1c-1.3,0-2.6,0-3.8,0c-0.2,0-0.3,0-0.4,0.1c-0.2,0.1-0.3,0.3-0.3,0.7c0,4.2,0,8.4,0,12.6
		c0,1.7,0.1,3.3-0.1,5c-0.1,0.5,0,0.9,0.4,1.1l3,0c0.1-0.1,0.1-0.2,0.1-0.5c0-1.2,0-2.5,0-3.7c0-1.3,0-2.5,0-3.8
		c0-0.5,0.2-0.7,0.8-0.6c0.8,0.2,1.1,0.7,1.2,1.4c0.2,0.8,0.3,1.7,0.4,2.6c0.2,1.3,0.3,2.6,0.6,3.8c0.1,0.3,0.1,0.7,0.4,0.8l2.8,0
		C109.8,38.9,109.9,38.7,109.9,38.4z M105.7,26c0,0.9-0.7,1.7-1.6,1.9c-0.5,0.1-0.8-0.2-0.7-0.7c0-0.8,0-1.6,0-2.4h0
		c0-0.7,0-1.4,0-2.1c0-0.6,0.2-0.7,0.7-0.7c1-0.1,1.4,0.6,1.5,1.5C105.8,24.3,105.7,25.1,105.7,26z"/>
	<path class="st0" d="M121.1,27.7c0-1,0-2-0.1-3c-0.1-0.5,0-1.1-0.3-1.5c0-0.1-0.1-0.1-0.1-0.2c-0.4-1.1-0.9-2-1.8-2.7
		c-0.6-0.4-1.3-0.7-2-0.8c-0.5-0.1-1.1-0.1-1.6,0c-0.2,0-0.4,0.1-0.5,0.1c-0.9,0.2-1.7,0.7-2.4,1.3c-0.6,0.6-0.9,1.4-1.1,2.2
		c-0.3,1.4-0.4,2.9-0.4,4.4c0,1.7,0.1,3.3,0.1,5c0,0.9,0.1,1.8,0.3,2.7c0.2,0.9,0.6,1.8,1.3,2.5c0.7,0.7,1.6,1.1,2.6,1.2l1.3,0
		c0.5-0.1,1.1-0.2,1.6-0.3c0.6-0.1,1.2-0.4,1.6-0.9c0.1-0.1,0.3-0.3,0.4-0.4c0.2-0.1,0.3-0.2,0.3-0.4c0.6-1.3,0.9-2.6,1-4
		C121.1,31.2,121,29.5,121.1,27.7z M117.5,32.6c0,0.9,0,1.8-0.3,2.6c-0.1,0.2-0.2,0.5-0.3,0.7c-0.4,0.7-1,0.7-1.7,0.5
		c-0.1,0-0.2-0.1-0.3-0.2c-0.4-0.5-0.6-1.1-0.6-1.8c-0.2-2.3-0.1-4.5-0.1-6.8c0-1.2,0.1-2.4,0.1-3.6c0-0.7,0.2-1.4,0.8-1.9
		c0.4-0.4,0.7-0.4,1.2-0.2c0.6,0.3,0.8,0.8,1,1.4c0.1,0.5,0.2,1.1,0.1,1.6c0,0.6,0,1.2,0,1.7C117.6,28.8,117.5,30.7,117.5,32.6z"/>
	<path class="st0" d="M89.8,38.7c-0.1-0.5-0.1-0.9-0.2-1.4c0-0.5-0.2-0.9-0.2-1.4c-0.1-0.9-0.2-1.7-0.4-2.6
		c-0.1-0.5-0.2-1.1-0.3-1.6c-0.1-0.8-0.2-1.7-0.4-2.5c-0.1-0.7-0.1-1.4-0.3-2c-0.1-0.6-0.2-1.2-0.3-1.8c-0.1-0.7-0.3-1.4-0.4-2.1
		c-0.1-0.9-0.1-1.7-0.4-2.6c-0.2-0.8-0.1-0.9-0.6-1c-0.1,0-0.3-0.1-0.6-0.1c-0.5-0.1-1,0-1.5,0c0,0,0,0,0,0c-0.3,0-0.6,0-0.9,0
		c-0.2,0-0.3,0-0.5,0.1c-0.4,0.1-0.6,0.3-0.7,1c-0.1,0.7-0.2,1.3-0.3,2c-0.1,0.6-0.3,1.2-0.3,1.9c-0.1,0.9-0.2,1.7-0.4,2.5
		c-0.1,0.6-0.2,1.1-0.3,1.7c-0.1,0.7-0.2,1.4-0.3,2.1c-0.1,0.8-0.3,1.6-0.4,2.4c-0.1,0.7-0.2,1.3-0.3,2c-0.1,0.7-0.2,1.3-0.3,2
		c-0.1,0.4,0,0.8-0.2,1.2c-0.1,0.2-0.1,0.3-0.1,0.4l2.9,0c0,0,0-0.1,0-0.1c0.1-0.7,0.1-1.3,0.2-2c0.1-0.9,0.2-1.8,0.3-2.7
		c0-0.5,0.1-0.6,0.6-0.6c0.5,0,1,0,1.5,0c0.5,0,0.7,0.1,0.7,0.6c0.1,1.4,0.5,2.8,0.6,4.2c0,0.3,0.1,0.5,0.2,0.6l3.2,0
		C89.8,38.8,89.8,38.7,89.8,38.7z M83.5,30.9l0.9-8.1l0.9,8.1H83.5z"/>
	<path class="st0" d="M62.2,39.2c-0.3-0.3-0.7-0.6-1-0.9c-0.1-0.1-0.1-0.3-0.1-0.4c0-0.6,0-1.2,0-1.9c0-0.1,0-0.2,0.1-0.3
		c0.1-0.1,0-0.2,0-0.3c0.2-0.1,0.3,0,0.4,0.1c0.4,0.4,0.9,0.6,1.4,0.9c1.2,0.6,2.6,0.2,3-1.3c0.4-1.3,0.1-2.5-0.6-3.7
		c-0.8-1.3-1.7-2.5-2.6-3.8c-0.5-0.9-1.1-1.8-1.3-2.8c-0.2-0.9-0.3-1.8-0.2-2.7c0.1-0.6,0.2-1.2,0.4-1.8c0.5-1.4,1.6-2.3,2.9-2.9
		c1.3-0.5,2.6-0.4,3.9-0.1c0.1,0,0.2,0,0.3,0c0.5,0,0.9,0.3,0.8,0.9c0,0.6,0,1.3,0,1.9c0,0.2,0,0.3-0.3,0.2
		c-0.6-0.2-1.2-0.5-1.9-0.5c-0.6,0-1.1,0.2-1.4,0.8c-0.8,1.3-0.8,2.7-0.2,4.1c0.4,0.9,0.9,1.8,1.6,2.6c0.2,0.2,0.3,0.4,0.4,0.7
		c0.1,0.3,0.4,0.4,0.6,0.7c0.8,1.1,1.4,2.3,1.6,3.6c0.3,1.5,0.1,2.9-0.5,4.4c-0.2,0.6-0.5,1.2-1,1.6c-0.2,0.2-0.4,0.4-0.6,0.7
		c0,0.1-0.1,0.2-0.2,0.3c-0.6,0.4-1.3,0.6-2.1,0.7c-0.7,0-1.4,0-2-0.1C63,39.7,62.6,39.5,62.2,39.2z"/>
	<path class="st0" d="M133.3,29.9c0-3.1,0-6.2,0-9.4c0-0.3-0.1-0.4-0.4-0.4c-0.6,0-1.3,0-1.9,0c-0.1,0-0.2,0-0.2-0.1
		c-0.1-0.6-0.3-1.2-0.1-1.8c0.2-0.6,0.2-0.5,0.7-0.6c2.6,0,5.1,0,7.7-0.1c0.7,0,0.9,0.4,0.9,1c0.1,0.5-0.1,1-0.1,1.5
		c0,0.2-0.2,0.2-0.3,0.2c-0.6,0-1.2,0-1.8-0.1c-0.4,0-0.5,0.1-0.5,0.5c0,6.2,0,12.4,0,18.6c0,0.5-0.1,0.6-0.6,0.6c-1,0-1.9,0-2.9,0
		c-0.4,0-0.4-0.1-0.5-0.5c0-0.5,0-1,0-1.5C133.3,35.2,133.3,32.5,133.3,29.9C133.3,29.9,133.3,29.9,133.3,29.9z"/>
	<path class="st0" d="M79,38.2c0,0.2-0.1,0.4-0.2,0.5l-7.1,0c0-0.1,0-0.2,0-0.3c0-1.3,0-2.6,0-4v-5c0-3,0-6,0-9c0-0.2,0-0.4,0.1-0.6
		c0.1-0.1,0.1-0.2,0.2-0.2c0,0,0,0,0,0c0.1,0,0.2-0.1,0.3-0.1c0.3,0,0.5,0,0.8,0c1.8,0,3.6,0,5.4,0c0.1,0,0.3,0,0.3,0.1
		c0.2,0.1,0.3,0.3,0.2,0.5c0,0.5,0.1,0.9,0,1.4c-0.1,0.3-0.3,0.5-0.6,0.5c-0.8,0.1-1.6,0.1-2.3,0c-1-0.1-1-0.1-1,0.9
		c0,1.4,0,2.8,0,4.2c0,0.5,0.1,0.6,0.6,0.6c0.9,0,1.7,0,2.6,0c0.3,0,0.4,0.1,0.4,0.4c0,0.4,0.1,0.8,0.1,1.3c0,0.5-0.2,0.8-0.8,0.8
		c-0.8,0-1.5,0-2.3,0c-0.4,0-0.5,0.1-0.5,0.5c0,1.4,0,2.9,0,4.3c0,0.3,0,0.6,0,0.9c0,0.4,0.2,0.6,0.5,0.6c0.5,0,1,0,1.5,0
		c0.6,0,1.1,0,1.7,0.1c0.1,0,0.2,0,0.2,0.1C79,37.2,79.1,37.7,79,38.2z"/>
	<path class="st0" d="M98.5,19.8c0,0.6,0,1.2,0,1.8c0,0.2-0.1,0.3-0.3,0.3c-0.8,0.1-1.7,0.1-2.5,0.1c-1.1,0-1.2,0.1-1.1,1.2
		c0.1,1.3,0,2.6,0,4c0,0.4,0.1,0.5,0.5,0.5c0.9,0,1.8,0,2.7,0c0.4,0,0.5,0.1,0.5,0.5c0,0.5,0,1,0,1.4c0,0.4-0.1,0.5-0.5,0.5
		c-0.9,0-1.7,0-2.6,0c-0.4,0-0.5,0-0.5,0.5c0,1.3,0,2.5,0,3.8h0c0,1.2,0,2.4,0,3.5c0,0.2,0,0.3,0,0.5c0,0.2-0.1,0.3-0.1,0.4l-3.1,0
		c-0.2-0.2-0.3-0.5-0.3-0.9c0.2-4.1,0-8.2,0.1-12.4c0-1.7,0-3.5,0-5.2c0-0.4,0.1-0.7,0.3-0.8c0.1,0,0.3-0.1,0.5-0.1
		c2.1,0,4.1,0,6.2,0c0.1,0,0.2,0,0.3,0.1C98.5,19.6,98.5,19.7,98.5,19.8z"/>
	<path class="st0" d="M128.5,37.9c-0.1,0.2-0.3,0.3-0.5,0.5c-0.4,0.3-0.8,0.4-1.3,0.5c0,0-0.1,0-0.1,0c-0.3,0-0.5,0.1-0.8,0.1
		c-0.2,0-0.3,0-0.5,0c-0.6,0-1.3-0.2-1.9-0.5c-0.8-0.4-1-1-1-1.8c0-0.3,0-0.7,0.2-1c0.1-0.2,0.2-0.3,0.4-0.2
		c0.2,0.2,0.5,0.2,0.7,0.4c0.3,0.1,0.7,0.2,1,0.2c0.6,0,1-0.1,1.4-0.5c0.7-0.9,0.6-1.9,0.2-2.8c-0.4-1-1-1.8-1.5-2.7
		c-0.5-0.8-1.1-1.5-1.6-2.4c-0.6-1.1-0.8-2.3-0.8-3.6c0.1-2,1.3-3.9,3.6-4.4c0.8-0.2,1.6-0.1,2.4,0c1,0.2,1.2,0.7,1.1,1.8
		c0,0.2,0,0.4-0.1,0.7c-0.1,0.2-0.1,0.3-0.4,0.2c-0.4-0.2-0.8-0.3-1.3-0.3c-0.7,0-1.2,0.3-1.6,1c-0.6,1.2-0.4,2.3,0.2,3.4
		c0.3,0.7,0.8,1.4,1.3,2c0.4,0.6,0.8,1.2,1.2,1.8c0.4,0.6,0.8,1.3,0.9,2C130.3,34.3,129.9,36.2,128.5,37.9z"/>
	<path class="st0" d="M100.7,42.1c-8.3,0-16.6,0-24.9,0c-0.3,0-0.6,0-0.8-0.1c-0.2,0-0.2-0.1-0.2-0.3c0-0.2,0.1-0.3,0.3-0.3
		c0.4,0,0.8,0,1.2,0c3.5,0,7.1,0,10.6,0c12.8,0,25.6,0,38.4,0c0.3,0,0.6,0,0.9,0.2c0.1,0.1,0.3,0.1,0.2,0.3c0,0.1-0.2,0.2-0.3,0.2
		c-0.2,0-0.4,0-0.6,0C117.1,42.1,108.9,42.1,100.7,42.1L100.7,42.1z"/>
	<path class="st0" d="M113.7,46.6c0-0.2-0.1-0.4-0.2-0.6c-0.1,0-0.1-0.1-0.1-0.1c-0.3-0.6-0.7-1-1.4-1c-0.6,0-1.1,0-1.7,0
		c-0.7,0-0.9,0.2-0.9,0.9c0,2.2,0,4.4,0,6.7c0,0.4,0,0.8,0,1.2c0,0.2,0,0.4,0.2,0.5c0.7,0.1,1.5,0.1,2.2,0.1c0.5,0,0.9-0.2,1.3-0.5
		c0.2-0.2,0.3-0.4,0.3-0.6c0.2-0.8,0.3-1.7,0.4-2.5C114,49.1,114,47.8,113.7,46.6z M112.5,50.3c0,0.7,0,1.3-0.3,1.9
		c-0.1,0.4-0.3,0.5-0.9,0.4c-0.3,0-0.5-0.2-0.5-0.6c-0.1-0.4,0-0.7,0-1.1c0-1.4,0-2.8,0-4.2c0-0.4,0.2-0.6,0.6-0.5
		c0.5,0,0.8,0.3,0.9,0.9c0.1,0.3,0,0.6,0,0.9C112.4,48.8,112.5,49.5,112.5,50.3z"/>
	<path class="st0" d="M124.7,53.8c-0.1-0.6-0.1-1.1-0.2-1.7c0-0.6-0.1-1.3-0.1-1.9c0-0.2-0.1-0.4-0.3-0.5c-0.4-0.3-0.5-0.4-0.2-0.8
		c0.6-0.6,0.7-1.4,0.6-2.2c-0.1-0.6-0.4-1-0.7-1.5c-0.2-0.2-0.5-0.3-0.8-0.3c-0.8-0.1-1.6-0.1-2.4,0c-0.2,0-0.3,0.2-0.4,0.4
		c-0.1,0.4,0,0.8,0,1.2c0,2.5,0,4.9,0,7.4c0.9,0.4,1.4,0.1,1.3-0.8c0-0.6,0-1.1,0-1.7c0-0.3,0-0.7,0.1-1c0-0.1,0.1-0.2,0.2-0.2
		c0.2,0,0.4-0.1,0.6,0c0.1,0,0.1,0.1,0.2,0.1c0.4,0.2,0.5,0.5,0.5,0.9c0,0.7,0,1.5,0.1,2.2c0,0.4,0.2,0.6,0.6,0.6c0.2,0,0.4,0,0.6,0
		C124.6,54,124.7,54,124.7,53.8z M123.1,48.1c-0.1,0.4-0.4,0.6-0.8,0.6c-0.7,0-0.8,0.1-0.8-0.8c-0.1-0.4,0.1-0.8,0-1.2
		c-0.1-0.2,0.1-0.4,0.4-0.4c0.2,0,0.4,0,0.5,0c0.5,0.1,0.8,0.3,0.8,0.9C123.2,47.5,123.2,47.8,123.1,48.1z"/>
	<path class="st0" d="M119.1,46.9c0-0.2,0-0.5-0.3-0.7c-0.1,0,0-0.1,0-0.1c0-0.8-0.5-1.2-1.2-1.5c-0.1,0-0.3,0-0.4-0.1
		c-0.9-0.2-2,0.6-2.2,1.5c-0.2,1.1-0.4,2.2-0.4,3.3c0,1.1,0.1,2.3,0.3,3.4c0.1,0.8,0.6,1.3,1.3,1.5c0.6,0.2,1.2,0.2,1.7-0.1
		c0.4-0.5,0.8-0.9,1-1.5c0.1-0.4,0.1-0.9,0.1-1.3C119.3,49.9,119.2,48.4,119.1,46.9z M117.9,47.8c0,0.6,0,1.3,0,1.9h-0.1
		c0,0.8,0,1.5,0,2.3c0,0.3-0.2,0.6-0.4,0.8c-0.4,0.3-0.7,0.2-1-0.2c-0.2-0.3-0.3-0.6-0.3-0.9c0-1.4-0.1-2.7,0-4.1
		c0-0.4,0-0.8,0.2-1.1c0.2-0.3,0.4-0.3,0.7-0.3c0.3,0,0.4,0.2,0.5,0.5C117.8,47,117.9,47.4,117.9,47.8z"/>
	<path class="st0" d="M76,48c-0.1-0.6,0-1.2-0.2-1.7c-0.2-0.7-0.7-1.2-1.5-1.3c-0.7-0.1-1.3,0-2-0.1c-0.4,0-0.6,0.1-0.6,0.6
		c0,1.4,0,2.7,0,4.1h0.1c0,1.4,0,2.8,0,4.2c0,0.2,0,0.3,0.2,0.3c0.7,0,1.5,0.1,2.2,0c0.8-0.1,1.2-0.4,1.4-1.2C75.8,51.9,76,51,76,50
		C76,49.3,76.1,48.7,76,48z M74.7,50.9c0,0.3-0.1,0.7-0.1,1c-0.1,0.5-0.4,0.7-0.9,0.7c-0.6,0-0.6,0-0.6-0.6v-2.5c0-0.9,0-1.9,0-2.8
		c0-0.2,0-0.4,0.3-0.3c0.1,0,0.2,0,0.3,0c0.6,0,0.9,0.3,0.9,0.8C74.8,48.4,74.7,49.6,74.7,50.9z"/>
	<path class="st0" d="M129.9,53.6c-0.2-0.5-0.2-1.1-0.3-1.6c-0.2-1.2-0.3-2.3-0.6-3.5c-0.1-0.5,0-1-0.2-1.4
		c-0.2-0.5-0.2-0.9-0.2-1.4c0-0.5-0.2-0.7-0.6-0.8c-0.7-0.3-1.3,0.1-1.3,0.8c0,0.5-0.2,0.9-0.3,1.4c-0.2,0.7-0.3,1.4-0.4,2.1
		c-0.2,1.1-0.4,2.2-0.6,3.3c0,0.4-0.1,0.8-0.2,1.2c0,0.1,0,0.3,0.1,0.3c0.2,0,0.5,0.1,0.7,0.1c0.2,0,0.4-0.1,0.4-0.3
		c0-0.4,0.2-0.8,0.2-1.2c0-0.8,0.1-0.8,0.9-0.8c0,0,0,0,0.1,0c0.3,0,0.5,0.1,0.6,0.4c0.1,0.3,0.1,0.7,0.2,1.1c0.1,0.3,0,0.6,0.3,0.8
		c0.3,0.2,0.6-0.1,0.9,0c0,0,0,0,0.1,0C129.9,53.9,130,53.8,129.9,53.6z M127,50.3l0.5-3.4l0.6,3.4H127z"/>
	<path class="st0" d="M83.3,46.2C83.3,46.2,83.3,46.2,83.3,46.2c0.2,0.4,0.1,0.8,0,1.2c-0.1,0.3-0.3,0.4-0.5,0.4
		c-0.2,0-0.4,0-0.6-0.1c-0.1-0.4,0-0.7-0.2-1.1c-0.2-0.4-0.6-0.6-1-0.3c-0.2,0.2-0.3,0.5-0.3,0.8c0.1,0.6,0.5,1.1,1,1.5
		c0.4,0.4,0.8,0.7,1.2,1.1c0.4,0.4,0.5,1,0.6,1.5c0.1,0.8,0,1.5-0.5,2.1c-0.8,1.3-2.8,1.1-3.4-0.2c0-0.1-0.1-0.2-0.1-0.2
		c-0.1-0.1-0.1-0.1-0.1-0.2c0-0.4-0.1-0.9-0.2-1.3c0-0.3,0.1-0.5,0.4-0.6c0.3-0.1,0.7-0.2,1,0.1c0.2,0.1,0.2,0.3,0.2,0.5
		c0,0.3,0,0.6,0.1,0.9c0.1,0.2,0.2,0.4,0.4,0.5c0.3,0.1,0.5,0.1,0.6-0.2c0.2-0.4,0.3-0.8,0.1-1.2c-0.2-0.6-0.7-1-1.1-1.4
		c-0.6-0.6-1.2-1.2-1.4-2c-0.2-0.8-0.1-1.6,0.2-2.4c0.1-0.3,0.3-0.4,0.6-0.6l0,0c0.6-0.4,1.3-0.5,1.9-0.1
		C82.7,45.1,83.1,45.5,83.3,46.2z"/>
	<path class="st0" d="M86.7,50.1c0,1.1,0,2.3,0,3.4c0,0.3-0.3,0.5-0.7,0.5c-0.3,0-0.5-0.2-0.5-0.5c0-0.7-0.1-1.4-0.1-2.1
		c0-1.5,0-3,0-4.5c0-0.5-0.2-0.7-0.7-0.7c-0.7,0-0.7,0-0.7-0.7c0-0.5,0.1-0.7,0.6-0.7c0.8,0,1.7,0,2.5-0.1c0.2,0,0.4,0,0.7,0
		c0.4,0,0.4,0.2,0.4,0.5c0,0.2-0.1,0.3-0.1,0.5c0,0.2-0.2,0.3-0.4,0.3c-0.2,0-0.4,0-0.6,0c-0.2,0-0.3,0.1-0.3,0.4
		C86.8,47.8,86.8,48.9,86.7,50.1C86.7,50.1,86.7,50.1,86.7,50.1z"/>
	<path class="st0" d="M94.2,45.1c0-0.1,0-0.1,0-0.2c0.4-0.2,1-0.2,1.3,0.1c0.1,0.1,0.1,0.2,0.1,0.3c-0.1,2.2,0,4.3,0,6.5
		c0,0.7,0.1,1.3-0.1,2c-0.3,0.3-0.6,0.1-0.9,0.2c-0.5-0.1-0.5-0.1-0.5-0.6c0-2.6,0-5.2,0-7.8C94.2,45.5,94.2,45.3,94.2,45.1z"/>
	<path class="st0" d="M107,49.6c0-1.3,0-2.6,0-4c0-0.7,0.3-0.9,1-0.7c0.4,0.1,0.3,0.4,0.3,0.7c0,1,0,1.9,0,2.9c0,1.7,0,3.5,0,5.2
		c0,0.3-0.1,0.4-0.4,0.4c-0.8,0-0.8,0-0.8-0.8C107.1,52,107.1,50.8,107,49.6C107.1,49.6,107,49.6,107,49.6z"/>
	<path class="st0" d="M10.6,36.2c-0.3-0.2-0.5-0.4-0.6-0.8c-0.2,0.3-0.2,0.5-0.2,0.7c0.1,0.5,0.2,0.9,0.2,1.4
		C10,37.5,10,37.4,10,37.4c0-0.7-0.3-1.4-0.2-2.2c0-0.1,0-0.2,0.1-0.2c0.1,0,0.2,0,0.2,0.1C10.1,35.5,10.6,35.8,10.6,36.2z"/>
	<polygon class="st0" points="84.5,24.5 84.5,24.5 84.5,24.5 	"/>
	<polygon class="st0" points="84.5,24.5 84.5,24.5 84.5,24.5 	"/>
	<path class="st0" d="M103,48.7c0,1.1,0,2.2,0,3.3c0,0.6,0.6,1,1.2,0.7c0.2-0.1,0.2-0.2,0.3-0.4c0.2-0.9,0.2-1.8,0.2-2.7
		c0-1.4,0-2.8,0-4.2c0-0.2,0-0.5,0.3-0.6c0.3-0.1,0.6-0.1,0.9,0.1c0.1,0.1,0.1,0.2,0.1,0.3c0,2.2,0.1,4.3,0,6.5
		c0,0.4-0.1,0.8-0.2,1.1c-0.2,1-0.9,1.3-1.8,1.3c-1.3,0.1-2.3-1-2.3-2.3c0-2.3,0-4.5,0-6.8c0-0.4,0.1-0.5,0.5-0.4
		c0.7,0.1,0.7,0.1,0.7,0.8C102.9,46.7,102.9,47.7,103,48.7C102.9,48.7,103,48.7,103,48.7z"/>
	<path class="st0" d="M100.5,50.1c0-0.2-0.1-0.4-0.3-0.6c-0.3-0.2-0.3-0.4-0.1-0.8c0.5-0.9,0.6-1.9,0.2-2.9
		c-0.2-0.4-0.4-0.9-0.9-0.9c-0.7,0-1.5-0.1-2.2-0.1c-0.3,0-0.4,0.2-0.4,0.5c0,1.3,0,2.7,0,4h0c0,0.8,0,1.7,0,2.5c0,0.5,0,1.1,0,1.6
		c0,0.3,0.1,0.5,0.4,0.4c0.3,0,0.7,0,1,0.1c1.4,0.1,2.1-0.4,2.4-1.6C100.8,51.7,100.6,50.8,100.5,50.1z M98.2,46.3
		c0.3-0.1,0.5-0.2,0.7,0.1c0.4,0.4,0.4,0.9,0.3,1.4c-0.1,0.4-0.4,0.7-0.8,0.8c-0.2,0.1-0.3,0-0.3-0.2c-0.1-0.4-0.1-0.8-0.1-1.1
		c0-0.2,0-0.4,0-0.6C98,46.6,97.9,46.4,98.2,46.3z M99,52.5c-0.1,0.2-0.3,0.3-0.6,0.2c-0.2-0.1-0.5-0.2-0.5-0.5c0-0.3,0-0.6,0-0.8h0
		c0-0.2,0-0.5,0-0.7c0-0.2,0-0.5,0.3-0.6c0.3-0.1,0.8,0.1,0.9,0.3C99.5,50.7,99.4,52,99,52.5z"/>
	<path class="st0" d="M78.3,49.6c0,1.3,0,2.6,0,3.9c0,0.3-0.3,0.6-0.8,0.6c-0.3,0-0.5-0.2-0.5-0.5c0-1.1,0-2.2,0-3.3
		c0-1.5,0-3,0-4.4c0-0.1,0-0.2,0-0.3c-0.1-0.4,0.2-0.7,0.6-0.6c0.5,0.1,0.7,0.4,0.7,0.8C78.4,47,78.4,48.3,78.3,49.6
		C78.4,49.6,78.4,49.6,78.3,49.6z"/>
	<path class="st0" d="M15.5,29.4c1.4,0.1,2.6,1,2.6,2.6c0,1.4-1.2,2.3-2.4,2.4c-1.3,0-2.6-1.2-2.6-2.6
		C13.2,30.6,14.4,29.3,15.5,29.4z"/>
	<path class="st0" d="M93.3,53.7c-0.1-0.9-0.2-1.7-0.2-2.6c0-0.6-0.1-1.1-0.5-1.6c-0.2-0.2-0.2-0.5,0-0.7c0.2-0.2,0.3-0.5,0.4-0.7
		c0.2-0.6,0.1-1.3,0-1.9c-0.1-0.8-0.6-1.3-1.5-1.4c-0.7-0.1-1.5,0-2.2,0c-0.4,0-0.5,0.1-0.5,0.5v7.3c0,0.4,0,0.7,0,1.1
		c0,0.2,0.1,0.3,0.3,0.3c0.3,0,0.6,0,0.9,0c0.1-1.1,0.1-2.2,0.1-3.4c0-0.5,0-0.5,0.5-0.5c0.7,0,1.1,0.4,1.1,1.1c0,0.9,0,1.7,0.1,2.6
		c0,0.1,0,0.2,0.1,0.2c0.4,0.1,0.8,0,1.1,0C93.2,54,93.3,53.9,93.3,53.7z M91.8,47.5c0,0.3,0,0.5-0.1,0.7c-0.3,0.4-0.7,0.6-1.2,0.4
		c-0.2-0.1-0.3-0.2-0.3-0.4c0-0.5,0-1,0.1-1.6c0-0.2,0.1-0.3,0.3-0.3c0.3-0.1,0.5-0.1,0.8-0.1c0.2,0,0.5,0.5,0.5,0.8
		C91.8,47.2,91.8,47.3,91.8,47.5z"/>
	<path class="st0" d="M125.8,39c-0.2,0-0.3,0-0.5,0L125.8,39z"/>
	<path class="st0" d="M78.4,19.5c0.1,0,0.3,0,0.3,0.1h-7l0.2,0l1.1-0.1C74.8,19.5,76.6,19.5,78.4,19.5z"/>
	<path class="st0" d="M86,19.5c0.3,0,0.5,0.1,0.6,0.1H83c0.1,0,0.3,0,0.5-0.1c0.3,0,0.6,0,0.9,0c0,0,0,0,0,0
		C84.9,19.4,85.5,19.4,86,19.5z"/>
	<path class="st0" d="M98.2,19.5c0.1,0,0.2,0,0.3,0.1h-7c0.1,0,0.3-0.1,0.5-0.1C94,19.5,96.1,19.5,98.2,19.5z"/>
	<path class="st0" d="M104.6,19.5c0.2,0,0.4,0,0.7,0.1h-4.9c0.1,0,0.2-0.1,0.4-0.1C102.1,19.5,103.3,19.5,104.6,19.5z"/>
	<path class="st0" d="M116.7,19.5h-1.6C115.6,19.5,116.2,19.5,116.7,19.5z"/>
</g>
</svg>
