<?xml version="1.0" encoding="utf-8"?>
<!-- Generator: Adobe Illustrator 21.0.0, SVG Export Plug-In . SVG Version: 6.00 Build 0)  -->
<svg version="1.1" id="Capa_1" xmlns="http://www.w3.org/2000/svg" xmlns:xlink="http://www.w3.org/1999/xlink" x="0px" y="0px"
	 viewBox="0 0 149 72" style="enable-background:new 0 0 149 72;" xml:space="preserve">
<style type="text/css">
	.st0{fill:#C1C1C1;}
</style>
<g>
	<path class="st0" d="M371.4,3841.1c0.2,0.2,0.4,0.4,0.6,0.5c0.2,0.1,0.4,0.3,0.6,0.6c0,0.1,0.1,0.1,0.2,0.2
		c0.2,0.2,0.5,0.3,0.7,0.5c0.1,0,0.3,0.1,0.4,0.2c1,0.8,2.1,1.5,3.1,2.3c0.3,0.2,0.7,0.5,1,0.7c0.1,0,0.2,0.1,0.3,0.2
		c0.9,0.8,2.1,1.3,3.2,1.8c1.2,0.6,2.4,0.9,3.7,1c0.7,0.1,1.5,0,2.2-0.1c1.2-0.2,2.3-0.7,3.3-1.4c0.1-0.1,0.2-0.1,0.2-0.1
		c0,0,0.1,0,0.1-0.1c0.1-0.2,0.4-0.2,0.6-0.4c0.2-0.2,0.5-0.4,0.7-0.6c0.1-0.1,0.3-0.2,0.5,0c0.2,0.1,0.2,0.3,0.1,0.4
		c-0.1,0.3-0.2,0.7-0.4,0.9c-0.2,0.3-0.3,0.6-0.4,0.9c-0.2,0.5-0.5,0.9-0.9,1.3c0,0-0.1,0-0.1,0.1c-0.2,0.6-0.7,0.8-1.1,1.3
		c-0.4,0.5-0.9,0.8-1.4,1.1c-0.4,0.2-0.8,0.5-1.2,0.7c-0.8,0.2-1.7,0.4-2.6,0.4c-1,0-1.9-0.1-2.9-0.3c-0.8-0.2-1.6-0.5-2.4-0.8
		c-0.6-0.3-1.2-0.6-1.8-0.9c-0.6-0.2-1.1-0.6-1.7-0.9c-0.7-0.3-1.4-0.8-2.1-1.2c-1-0.6-2.1-1.2-3-2.1c-0.1-0.1-0.3-0.1-0.4-0.2
		c-1.7-1-3.2-2.3-4.9-3.2c-1.6-0.8-3.4-1.4-5.1-1.8c-0.6-0.2-1.2-0.1-1.8-0.2c-1-0.2-2-0.1-2.9,0c-0.9,0-1.7,0.2-2.6,0.4
		c-1.6,0.4-3.1,1.1-4.5,2.1c-0.1,0.1-0.2,0.2-0.4,0.3c-0.1,0-0.1,0.1-0.2,0.1c-0.1,0,0-0.1,0-0.2c0.4-0.8,0.6-1.7,1.3-2.3
		c0.4-0.3,0.6-0.8,0.9-1.2c0.2-0.2,0.3-0.4,0.4-0.6c0.6-0.4,1.1-1,1.8-1.4c0.7-0.4,1.4-0.7,2.2-1c0.1,0,0.2,0,0.4-0.1
		c0.4,0,0.8-0.2,1.2-0.3c0.4-0.1,0.8-0.2,1.2-0.2c0.5-0.1,1.1-0.1,1.6-0.2c0.8-0.1,1.5-0.1,2.3,0c0.8,0.1,1.6,0.2,2.4,0.3
		c1.4,0.2,2.6,0.8,3.9,1.3c0,0,0.1,0,0.1,0.1c0.6,0.4,1.4,0.7,2,1.1C370.4,3840.4,370.9,3840.7,371.4,3841.1z"/>
	<path class="st0" d="M347.8,3851.2c0.4,0.4,0.7,0.8,1,1.1c1.3,1.4,2.8,2.4,4.4,3.2c2.2,1.1,4.6,1.6,7.1,1.8
		c2.4,0.2,4.7-0.2,7.1-0.6c1.6-0.3,3.3-0.5,5-0.7c1.7-0.2,3.3-0.4,5-0.4c1.8,0,3.5,0.1,5.2,0.5c0.7,0.2,1.3,0.4,1.9,0.6
		c0.3,0.1,0.6,0.3,0.8,0.5c1.3,0.9,2.2,2.1,2.7,3.5c0.6,1.4,0.7,2.9,0.7,4.4c0,0.2-0.1,0.4-0.1,0.6c0,0.1,0,0.2-0.1,0.2
		c-0.1,0-0.2-0.1-0.2-0.1c-0.1-0.1-0.1-0.3-0.2-0.4c-0.2-0.5-0.5-0.9-0.7-1.4c-0.2-0.4-0.4-0.8-0.8-1c-0.1-0.1-0.2-0.3-0.3-0.4
		c-1.3-1.5-3-2.4-4.9-2.7c-2.2-0.3-4.4-0.1-6.6,0.3c-2.3,0.5-4.5,1.1-6.8,1.6c-1.9,0.4-3.7,0.8-5.6,0.8c-2.9,0.1-5.6-0.6-8.1-1.9
		c-0.9-0.4-1.8-0.9-2.6-1.6c-1.9-1.6-3.5-3.4-4.1-5.8c-0.1-0.3-0.1-0.6-0.2-1c-0.1-0.5-0.1-1-0.2-1.5c0-0.1,0-0.2,0-0.2
		c0-0.1,0.1-0.2,0.2-0.2c0.1,0,0.2,0.1,0.2,0.2C347.5,3850.8,347.6,3851,347.8,3851.2z"/>
	<path class="st0" d="M440.7,3853.3c-0.1-0.7-0.1-1.5-0.3-2.2c-0.2-1.3-0.4-2.6-0.6-3.9c-0.1-0.7-0.3-1.3-0.7-1.9
		c-0.1-0.2-0.3-0.3-0.6-0.4c-0.2,0-0.3-0.1-0.2-0.3c0.1-0.1,0.1-0.1,0.2-0.2c0.4-0.3,0.8-0.7,1.1-1.2c0.2-0.3,0.3-0.8,0.4-1.2
		c0.1-0.9,0.2-1.7,0.1-2.5c-0.1-0.9-0.2-1.8-0.9-2.5c-0.5-0.4-0.8-0.9-1.5-1.1c-0.3-0.1-0.6-0.1-0.8-0.2c-0.2-0.1-0.3-0.1-0.5-0.1
		c-0.2,0-0.4-0.1-0.6-0.1c-1.2,0-2.4,0-3.6,0c-0.2,0-0.3,0-0.4,0.1c-0.2,0.1-0.3,0.3-0.3,0.6c0,3.9,0,7.9,0,11.8
		c0,1.5,0.1,3.1-0.1,4.6c-0.1,0.4,0,0.8,0.4,1l2.8,0c0.1-0.1,0.1-0.2,0.1-0.5c0-1.2,0-2.3,0-3.5c0-1.2,0-2.4,0-3.6
		c0-0.5,0.2-0.7,0.7-0.5c0.7,0.1,1,0.7,1.2,1.3c0.2,0.8,0.3,1.6,0.4,2.4c0.2,1.2,0.3,2.4,0.5,3.6c0.1,0.3,0.1,0.6,0.3,0.8l2.6,0
		C440.6,3853.7,440.7,3853.5,440.7,3853.3z M436.8,3841.6c0,0.9-0.6,1.6-1.5,1.8c-0.4,0.1-0.7-0.2-0.7-0.7c0-0.7,0-1.5,0-2.2h0
		c0-0.6,0-1.3,0-1.9c0-0.5,0.2-0.7,0.7-0.7c1-0.1,1.3,0.6,1.4,1.4C436.8,3840,436.8,3840.8,436.8,3841.6z"/>
	<path class="st0" d="M451.1,3843.2c0-0.9,0-1.8-0.1-2.8c-0.1-0.5,0-1-0.3-1.4c0-0.1-0.1-0.1-0.1-0.2c-0.3-1-0.8-1.9-1.7-2.5
		c-0.6-0.4-1.2-0.7-1.9-0.8c-0.5-0.1-1-0.1-1.5,0c-0.2,0-0.3,0.1-0.5,0.1c-0.9,0.2-1.6,0.6-2.2,1.2c-0.5,0.6-0.9,1.3-1.1,2.1
		c-0.3,1.4-0.3,2.7-0.4,4.1c0,1.6,0.1,3.1,0.1,4.7c0,0.9,0.1,1.7,0.3,2.5c0.2,0.9,0.6,1.7,1.2,2.3c0.7,0.7,1.5,1,2.5,1.1l1.2,0
		c0.5-0.1,1-0.2,1.5-0.3c0.6-0.1,1.1-0.4,1.5-0.8c0.1-0.1,0.3-0.2,0.4-0.4c0.2-0.1,0.2-0.2,0.3-0.4c0.6-1.2,0.9-2.5,0.9-3.8
		C451.1,3846.5,451.1,3844.9,451.1,3843.2z M447.8,3847.8c0,0.8,0,1.7-0.3,2.5c-0.1,0.2-0.2,0.4-0.3,0.7c-0.4,0.7-1,0.7-1.6,0.5
		c-0.1,0-0.2-0.1-0.3-0.2c-0.3-0.5-0.5-1.1-0.6-1.7c-0.2-2.1-0.1-4.2-0.1-6.3c0-1.1,0.1-2.2,0.1-3.3c0-0.7,0.2-1.3,0.7-1.7
		c0.4-0.4,0.7-0.4,1.2-0.2c0.6,0.3,0.8,0.8,0.9,1.3c0.1,0.5,0.1,1,0.1,1.5c0,0.5,0,1.1,0,1.6C447.9,3844.2,447.8,3846,447.8,3847.8z
		"/>
	<path class="st0" d="M421.9,3853.5c-0.1-0.4-0.1-0.9-0.1-1.3c0-0.5-0.2-0.9-0.2-1.3c-0.1-0.8-0.2-1.6-0.4-2.4
		c-0.1-0.5-0.2-1-0.3-1.5c-0.1-0.8-0.2-1.6-0.4-2.3c-0.1-0.6-0.1-1.3-0.3-1.9c-0.1-0.6-0.1-1.2-0.2-1.7c-0.1-0.7-0.3-1.3-0.3-2
		c-0.1-0.8-0.1-1.6-0.3-2.4c-0.2-0.7-0.1-0.9-0.5-1c-0.1,0-0.3-0.1-0.6-0.1c-0.5-0.1-1,0-1.4,0c0,0,0,0,0,0c-0.3,0-0.6,0-0.9,0
		c-0.2,0-0.3,0-0.4,0.1c-0.4,0.1-0.6,0.2-0.7,0.9c-0.1,0.6-0.2,1.3-0.2,1.9c-0.1,0.6-0.2,1.2-0.3,1.7c-0.1,0.8-0.2,1.6-0.4,2.4
		c-0.1,0.5-0.2,1-0.2,1.6c-0.1,0.7-0.2,1.3-0.3,2c-0.1,0.7-0.3,1.5-0.4,2.2c-0.1,0.6-0.1,1.3-0.3,1.9c-0.1,0.6-0.2,1.2-0.3,1.8
		c-0.1,0.4,0,0.8-0.2,1.2c-0.1,0.2-0.1,0.3-0.1,0.4l2.7,0c0,0,0-0.1,0-0.1c0-0.6,0.1-1.2,0.2-1.9c0.1-0.8,0.2-1.7,0.3-2.5
		c0-0.5,0.1-0.6,0.6-0.6c0.5,0,0.9,0,1.4,0c0.5,0,0.6,0.1,0.7,0.6c0.1,1.3,0.5,2.6,0.5,4c0,0.3,0.1,0.4,0.2,0.5l3,0
		C421.9,3853.6,421.9,3853.5,421.9,3853.5z M415.9,3846.2l0.8-7.6l0.9,7.6H415.9z"/>
	<path class="st0" d="M396,3854c-0.3-0.3-0.6-0.5-0.9-0.8c-0.1-0.1-0.1-0.3-0.1-0.4c0-0.6,0-1.2,0-1.7c0-0.1,0-0.2,0.1-0.3
		c0.1-0.1,0-0.2,0-0.2c0.2-0.1,0.3,0,0.4,0.1c0.4,0.4,0.8,0.6,1.3,0.8c1.1,0.6,2.4,0.2,2.8-1.2c0.3-1.3,0-2.4-0.6-3.4
		c-0.7-1.2-1.6-2.3-2.4-3.5c-0.5-0.8-1-1.6-1.2-2.6c-0.2-0.8-0.3-1.7-0.2-2.6c0.1-0.6,0.2-1.1,0.4-1.7c0.5-1.3,1.5-2.2,2.7-2.7
		c1.2-0.5,2.4-0.4,3.6-0.1c0.1,0,0.2,0,0.2,0c0.5,0,0.8,0.3,0.8,0.8c0,0.6,0,1.2,0,1.8c0,0.2,0,0.3-0.3,0.2
		c-0.6-0.2-1.2-0.4-1.8-0.4c-0.6,0-1,0.2-1.3,0.7c-0.8,1.2-0.7,2.5-0.2,3.8c0.4,0.9,0.9,1.7,1.5,2.5c0.2,0.2,0.3,0.4,0.4,0.7
		c0.1,0.3,0.4,0.4,0.5,0.7c0.7,1,1.3,2.1,1.5,3.4c0.3,1.4,0.1,2.8-0.4,4.1c-0.2,0.6-0.5,1.1-0.9,1.5c-0.2,0.2-0.4,0.4-0.6,0.6
		c0,0.1-0.1,0.2-0.2,0.2c-0.6,0.4-1.2,0.6-1.9,0.6c-0.6,0-1.3,0-1.9-0.1C396.8,3854.4,396.4,3854.3,396,3854z"/>
	<path class="st0" d="M462.5,3845.3c0-2.9,0-5.8,0-8.8c0-0.3-0.1-0.4-0.4-0.4c-0.6,0-1.2,0-1.8,0c-0.1,0-0.2,0-0.2-0.1
		c-0.1-0.6-0.2-1.2-0.1-1.7c0.1-0.5,0.2-0.5,0.7-0.5c2.4,0,4.8,0,7.2-0.1c0.6,0,0.8,0.3,0.9,0.9c0.1,0.5-0.1,0.9-0.1,1.4
		c0,0.2-0.2,0.2-0.3,0.2c-0.6,0-1.1,0-1.7,0c-0.3,0-0.4,0.1-0.4,0.4c0,5.8,0,11.6,0,17.4c0,0.5-0.1,0.6-0.6,0.6c-0.9,0-1.8,0-2.7,0
		c-0.3,0-0.4-0.1-0.4-0.4c0-0.5,0-0.9,0-1.4C462.6,3850.2,462.6,3847.7,462.5,3845.3C462.6,3845.3,462.5,3845.3,462.5,3845.3z"/>
	<path class="st0" d="M411.7,3853.1c0,0.2-0.1,0.3-0.2,0.4l-6.7,0c0-0.1,0-0.2,0-0.3c0-1.2,0-2.5,0-3.7v-4.7c0-2.8,0-5.6,0-8.4
		c0-0.2,0-0.4,0.1-0.5c0-0.1,0.1-0.1,0.2-0.2c0,0,0,0,0,0c0.1,0,0.1-0.1,0.2-0.1c0.3,0,0.5,0,0.8,0c1.7,0,3.4,0,5.1,0
		c0.1,0,0.2,0,0.3,0.1c0.2,0.1,0.2,0.2,0.2,0.5c0,0.4,0,0.9,0,1.3c-0.1,0.3-0.3,0.4-0.5,0.5c-0.7,0.1-1.5,0.1-2.2,0
		c-0.9-0.1-0.9-0.1-0.9,0.8c0,1.3,0,2.6,0,3.9c0,0.4,0.1,0.6,0.6,0.6c0.8,0,1.6,0,2.4,0c0.3,0,0.4,0.1,0.3,0.3
		c0,0.4,0.1,0.8,0.1,1.2c0,0.5-0.2,0.7-0.7,0.7c-0.7,0-1.4,0-2.2,0c-0.4,0-0.5,0.1-0.5,0.5c0,1.4,0,2.7,0,4.1c0,0.3,0,0.5,0,0.8
		c0,0.3,0.2,0.5,0.5,0.5c0.5,0,0.9,0,1.4,0c0.5,0,1.1,0,1.6,0.1c0.1,0,0.2,0,0.2,0.1C411.8,3852.1,411.8,3852.6,411.7,3853.1z"/>
	<path class="st0" d="M430,3835.8c0,0.6,0,1.1,0,1.7c0,0.2-0.1,0.3-0.3,0.3c-0.8,0.1-1.5,0.1-2.3,0c-1,0-1.1,0.1-1,1.1
		c0.1,1.2,0,2.5,0,3.7c0,0.4,0.1,0.5,0.5,0.5c0.8,0,1.7,0,2.5,0c0.4,0,0.4,0.1,0.4,0.4c0,0.5,0,0.9,0,1.4c0,0.4-0.1,0.5-0.5,0.5
		c-0.8,0-1.6,0-2.5,0c-0.4,0-0.4,0-0.4,0.4c0,1.2,0,2.4,0,3.5h0c0,1.1,0,2.2,0,3.3c0,0.2,0,0.3,0,0.5c0,0.2-0.1,0.3-0.1,0.4l-2.9,0
		c-0.2-0.2-0.3-0.5-0.3-0.9c0.2-3.9,0-7.7,0.1-11.6c0-1.6,0-3.2,0-4.8c0-0.4,0.1-0.6,0.3-0.7c0.1,0,0.3-0.1,0.5-0.1
		c1.9,0,3.9,0,5.8,0c0.1,0,0.2,0,0.3,0.1C430,3835.6,430,3835.7,430,3835.8z"/>
	<path class="st0" d="M458.1,3852.8c-0.1,0.2-0.3,0.3-0.5,0.4c-0.4,0.3-0.8,0.4-1.2,0.5c0,0-0.1,0-0.1,0c-0.3,0-0.5,0.1-0.8,0.1
		c-0.2,0-0.3,0-0.5,0c-0.6,0-1.2-0.2-1.8-0.5c-0.7-0.4-1-1-0.9-1.7c0-0.3,0-0.6,0.1-1c0.1-0.2,0.2-0.3,0.4-0.1
		c0.2,0.1,0.5,0.2,0.7,0.4c0.3,0.1,0.6,0.2,1,0.2c0.5,0,1-0.1,1.3-0.5c0.6-0.8,0.6-1.7,0.2-2.7c-0.3-0.9-0.9-1.7-1.4-2.5
		c-0.5-0.7-1.1-1.4-1.5-2.3c-0.5-1.1-0.8-2.2-0.7-3.4c0.1-1.9,1.2-3.6,3.4-4.1c0.7-0.2,1.5-0.1,2.3,0c0.9,0.2,1.2,0.6,1.1,1.7
		c0,0.2,0,0.4-0.1,0.6c-0.1,0.2-0.1,0.3-0.4,0.2c-0.4-0.2-0.8-0.3-1.2-0.3c-0.7,0-1.2,0.3-1.5,0.9c-0.5,1.1-0.4,2.2,0.1,3.2
		c0.3,0.7,0.7,1.3,1.2,1.9c0.4,0.5,0.8,1.1,1.1,1.7c0.4,0.6,0.7,1.2,0.9,1.9C459.8,3849.4,459.4,3851.2,458.1,3852.8z"/>
	<path class="st0" d="M432,3856.7c-7.8,0-15.5,0-23.3,0c-0.3,0-0.5,0-0.8-0.1c-0.1,0-0.2-0.1-0.2-0.2c0-0.2,0.1-0.3,0.2-0.3
		c0.4,0,0.7,0,1.1,0c3.3,0,6.6,0,10,0c12,0,24,0,35.9,0c0.3,0,0.6,0,0.9,0.1c0.1,0.1,0.2,0.1,0.2,0.3c0,0.1-0.2,0.2-0.3,0.2
		c-0.2,0-0.4,0-0.6,0C447.4,3856.7,439.7,3856.7,432,3856.7L432,3856.7z"/>
	<path class="st0" d="M444.2,3860.9c0-0.2-0.1-0.4-0.2-0.6c-0.1,0-0.1-0.1-0.1-0.1c-0.3-0.6-0.6-0.9-1.3-0.9c-0.5,0-1.1,0-1.6,0
		c-0.7,0-0.8,0.2-0.8,0.8c0,2.1,0,4.2,0,6.2c0,0.4,0,0.8,0,1.2c0,0.2,0,0.3,0.2,0.4c0.7,0.1,1.4,0.1,2.1,0.1c0.4,0,0.9-0.2,1.2-0.5
		c0.1-0.2,0.3-0.4,0.3-0.6c0.2-0.8,0.3-1.6,0.3-2.4C444.5,3863.3,444.4,3862.1,444.2,3860.9z M443.1,3864.3c0,0.6,0,1.2-0.2,1.8
		c-0.1,0.4-0.3,0.5-0.8,0.4c-0.3,0-0.4-0.2-0.5-0.5c-0.1-0.3,0-0.7,0-1c0-1.3,0-2.6,0-4c0-0.4,0.2-0.5,0.5-0.5
		c0.5,0,0.8,0.3,0.9,0.8c0.1,0.3,0,0.5,0,0.8C443,3862.9,443.1,3863.6,443.1,3864.3z"/>
	<path class="st0" d="M454.5,3867.6c-0.1-0.5-0.1-1.1-0.1-1.6c0-0.6-0.1-1.2-0.1-1.8c0-0.2-0.1-0.3-0.3-0.4
		c-0.4-0.3-0.5-0.4-0.1-0.7c0.5-0.6,0.6-1.3,0.5-2.1c-0.1-0.5-0.4-1-0.7-1.4c-0.2-0.2-0.5-0.3-0.7-0.3c-0.7-0.1-1.5-0.1-2.2,0
		c-0.2,0-0.3,0.2-0.3,0.4c-0.1,0.4,0,0.8,0,1.1c0,2.3,0,4.6,0,6.9c0.9,0.3,1.3,0.1,1.2-0.7c0-0.5,0-1.1,0-1.6c0-0.3,0-0.6,0.1-0.9
		c0-0.1,0.1-0.2,0.2-0.2c0.2,0,0.4-0.1,0.6,0c0,0,0.1,0.1,0.1,0.1c0.3,0.2,0.5,0.4,0.5,0.8c0,0.7,0,1.4,0.1,2c0,0.4,0.2,0.5,0.6,0.6
		c0.2,0,0.4,0,0.6,0C454.4,3867.8,454.5,3867.8,454.5,3867.6z M453,3862.3c-0.1,0.4-0.3,0.6-0.7,0.6c-0.7,0-0.7,0.1-0.8-0.7
		c-0.1-0.4,0.1-0.7,0-1.1c-0.1-0.2,0.1-0.4,0.4-0.4c0.2,0,0.3,0,0.5,0c0.5,0.1,0.7,0.3,0.7,0.8C453.1,3861.7,453.1,3862,453,3862.3z
		"/>
	<path class="st0" d="M449.3,3861.2c0-0.2,0-0.5-0.3-0.6c-0.1,0,0-0.1,0-0.1c0-0.8-0.5-1.2-1.1-1.4c-0.1,0-0.3,0-0.4-0.1
		c-0.8-0.2-1.8,0.5-2,1.4c-0.2,1-0.3,2-0.3,3.1c0,1.1,0.1,2.1,0.3,3.2c0.1,0.8,0.6,1.2,1.2,1.4c0.6,0.2,1.1,0.2,1.6-0.1
		c0.3-0.4,0.8-0.8,0.9-1.4c0.1-0.4,0.1-0.8,0.1-1.2C449.4,3864,449.4,3862.6,449.3,3861.2z M448.1,3862c0,0.6,0,1.2,0,1.8h0
		c0,0.7,0,1.4,0,2.1c0,0.3-0.2,0.5-0.4,0.7c-0.3,0.2-0.7,0.2-0.9-0.2c-0.2-0.3-0.2-0.5-0.2-0.8c0-1.3-0.1-2.5,0-3.8
		c0-0.3,0-0.7,0.2-1c0.2-0.2,0.4-0.3,0.7-0.3c0.3,0,0.4,0.2,0.5,0.5C448,3861.3,448.1,3861.6,448.1,3862z"/>
	<path class="st0" d="M408.9,3862.2c-0.1-0.5,0-1.1-0.2-1.6c-0.2-0.7-0.7-1.1-1.4-1.3c-0.6-0.1-1.2,0-1.9,0c-0.4,0-0.5,0.1-0.5,0.5
		c0,1.3,0,2.6,0,3.8h0.1c0,1.3,0,2.6,0,3.9c0,0.2,0,0.3,0.2,0.3c0.7,0,1.4,0.1,2,0c0.7-0.1,1.2-0.4,1.3-1.2c0.2-0.8,0.3-1.7,0.3-2.5
		C408.9,3863.5,409,3862.8,408.9,3862.2z M407.7,3864.9c0,0.3-0.1,0.6-0.1,0.9c-0.1,0.5-0.4,0.7-0.8,0.7c-0.6,0-0.6,0-0.6-0.6v-2.4
		c0-0.9,0-1.7,0-2.6c0-0.2,0-0.3,0.3-0.3c0.1,0,0.2,0,0.3,0c0.6,0,0.8,0.2,0.9,0.8C407.8,3862.6,407.7,3863.7,407.7,3864.9z"/>
	<path class="st0" d="M459.4,3867.5c-0.2-0.5-0.2-1-0.3-1.5c-0.2-1.1-0.3-2.2-0.6-3.2c-0.1-0.4,0-0.9-0.2-1.3
		c-0.2-0.4-0.2-0.9-0.2-1.3c0-0.5-0.2-0.6-0.6-0.8c-0.7-0.2-1.3,0.1-1.2,0.7c0,0.5-0.2,0.9-0.3,1.3c-0.1,0.7-0.2,1.3-0.4,2
		c-0.2,1-0.4,2-0.5,3.1c0,0.4-0.1,0.7-0.2,1.1c0,0.1,0,0.3,0.1,0.3c0.2,0,0.4,0.1,0.6,0.1c0.2,0,0.4-0.1,0.4-0.3
		c0-0.4,0.2-0.7,0.2-1.1c0-0.8,0.1-0.8,0.8-0.8c0,0,0,0,0.1,0c0.3,0,0.4,0.1,0.5,0.4c0.1,0.3,0.1,0.7,0.2,1c0.1,0.3,0,0.6,0.3,0.7
		c0.3,0.1,0.5-0.1,0.8,0c0,0,0,0,0.1,0C459.4,3867.8,459.4,3867.6,459.4,3867.5z M456.7,3864.4l0.4-3.1l0.6,3.1H456.7z"/>
	<path class="st0" d="M415.7,3860.5C415.7,3860.5,415.7,3860.6,415.7,3860.5c0.2,0.4,0.1,0.8,0,1.1c-0.1,0.2-0.3,0.3-0.5,0.3
		c-0.2,0-0.4,0-0.6-0.1c-0.1-0.3,0-0.7-0.2-1c-0.2-0.4-0.6-0.5-0.9-0.2c-0.2,0.2-0.3,0.5-0.2,0.8c0.1,0.6,0.5,1,0.9,1.4
		c0.4,0.3,0.8,0.7,1.1,1c0.3,0.4,0.5,0.9,0.6,1.4c0.1,0.7,0,1.4-0.4,2c-0.8,1.2-2.6,1-3.2-0.1c0-0.1-0.1-0.1-0.1-0.2
		c-0.1-0.1-0.1-0.1-0.1-0.2c0-0.4-0.1-0.8-0.1-1.2c0-0.3,0.1-0.5,0.4-0.6c0.3-0.1,0.6-0.1,0.9,0.1c0.1,0.1,0.1,0.3,0.1,0.4
		c0,0.3,0,0.6,0.1,0.9c0.1,0.2,0.2,0.3,0.3,0.4c0.2,0.1,0.5,0.1,0.6-0.2c0.2-0.4,0.2-0.7,0.1-1.1c-0.2-0.5-0.6-0.9-1.1-1.3
		c-0.6-0.5-1.1-1.1-1.3-1.9c-0.2-0.8-0.1-1.5,0.2-2.2c0.1-0.2,0.3-0.4,0.5-0.5h0c0.6-0.4,1.2-0.5,1.8-0.1
		C415.2,3859.5,415.6,3859.9,415.7,3860.5z"/>
	<path class="st0" d="M419,3864.2c0,1.1,0,2.1,0,3.2c0,0.3-0.2,0.5-0.7,0.5c-0.3,0-0.4-0.1-0.4-0.5c0-0.7-0.1-1.3-0.1-2
		c0-1.4,0-2.8,0-4.2c0-0.5-0.2-0.6-0.6-0.6c-0.6,0-0.6,0-0.7-0.6c0-0.5,0.1-0.6,0.6-0.6c0.8,0,1.6,0,2.3-0.1c0.2,0,0.4,0,0.6,0
		c0.3,0,0.4,0.2,0.4,0.5c0,0.2,0,0.3-0.1,0.5c0,0.2-0.2,0.3-0.4,0.3c-0.2,0-0.4,0-0.6,0c-0.2,0-0.3,0.1-0.3,0.3
		C419,3862,419,3863.1,419,3864.2C419,3864.2,419,3864.2,419,3864.2z"/>
	<path class="st0" d="M426,3859.5c0-0.1,0-0.1,0-0.2c0.4-0.2,0.9-0.2,1.3,0.1c0.1,0.1,0.1,0.2,0.1,0.3c-0.1,2,0,4.1,0,6.1
		c0,0.6,0.1,1.3-0.1,1.9c-0.3,0.3-0.6,0.1-0.9,0.2c-0.4-0.1-0.4-0.1-0.5-0.5c0-2.4,0-4.9,0-7.3C426,3859.9,426,3859.7,426,3859.5z"
		/>
	<path class="st0" d="M438,3863.7c0-1.2,0-2.5,0-3.7c0-0.7,0.3-0.8,0.9-0.6c0.3,0.1,0.3,0.4,0.3,0.6c0,0.9,0,1.8,0,2.7
		c0,1.6,0,3.2,0,4.8c0,0.3-0.1,0.4-0.4,0.4c-0.7,0-0.7,0-0.7-0.8C438,3865.9,438,3864.8,438,3863.7
		C438,3863.7,438,3863.7,438,3863.7z"/>
	<path class="st0" d="M347.8,3851.2c-0.3-0.2-0.4-0.4-0.5-0.8c-0.2,0.2-0.2,0.5-0.1,0.7c0.1,0.4,0.2,0.9,0.2,1.3
		c-0.1,0-0.1-0.1-0.1-0.2c0-0.7-0.3-1.4-0.2-2c0-0.1,0-0.2,0.1-0.2c0.1,0,0.1,0,0.2,0.1C347.3,3850.5,347.7,3850.8,347.8,3851.2z"/>
	<polygon class="st0" points="416.9,3840.2 416.9,3840.2 416.9,3840.2 	"/>
	<polygon class="st0" points="416.9,3840.2 416.9,3840.2 416.9,3840.2 	"/>
	<path class="st0" d="M434.2,3862.8c0,1,0,2.1,0,3.1c0,0.6,0.6,0.9,1.1,0.7c0.1-0.1,0.2-0.2,0.2-0.3c0.2-0.8,0.2-1.7,0.1-2.5
		c0-1.3,0-2.6,0-4c0-0.2,0-0.4,0.3-0.5c0.3-0.1,0.6-0.1,0.8,0c0.1,0.1,0.1,0.2,0.1,0.3c0,2,0.1,4.1,0,6.1c0,0.4-0.1,0.7-0.2,1.1
		c-0.2,0.9-0.9,1.2-1.7,1.3c-1.2,0.1-2.1-0.9-2.1-2.1c0-2.1,0-4.2,0-6.3c0-0.3,0.1-0.4,0.5-0.4c0.7,0.1,0.7,0.1,0.7,0.7
		C434.1,3861,434.1,3861.9,434.2,3862.8C434.1,3862.8,434.2,3862.8,434.2,3862.8z"/>
	<path class="st0" d="M431.8,3864.1c0-0.2-0.1-0.4-0.3-0.5c-0.3-0.2-0.3-0.4-0.1-0.7c0.5-0.9,0.6-1.8,0.1-2.7
		c-0.2-0.4-0.4-0.8-0.8-0.8c-0.7,0-1.4-0.1-2.1-0.1c-0.3,0-0.4,0.2-0.4,0.4c0,1.3,0,2.5,0,3.8h0c0,0.8,0,1.6,0,2.4c0,0.5,0,1,0,1.5
		c0,0.3,0,0.4,0.4,0.4c0.3,0,0.6,0,1,0.1c1.3,0.1,1.9-0.4,2.3-1.5C432.1,3865.6,432,3864.9,431.8,3864.1z M429.7,3860.7
		c0.2-0.1,0.5-0.1,0.7,0.1c0.4,0.4,0.4,0.8,0.2,1.3c-0.1,0.4-0.3,0.6-0.7,0.8c-0.2,0-0.2,0-0.3-0.1c-0.1-0.4-0.1-0.7-0.1-1.1
		c0-0.2,0-0.4,0-0.5C429.5,3860.9,429.4,3860.7,429.7,3860.7z M430.5,3866.4c-0.1,0.2-0.3,0.3-0.5,0.2c-0.2-0.1-0.5-0.2-0.5-0.5
		c0-0.3,0-0.5,0-0.8h0c0-0.2,0-0.5,0-0.7c0-0.2,0-0.5,0.3-0.6c0.2-0.1,0.7,0.1,0.8,0.3C430.9,3864.8,430.8,3865.9,430.5,3866.4z"/>
	<path class="st0" d="M411.1,3863.7c0,1.2,0,2.5,0,3.7c0,0.3-0.3,0.5-0.7,0.5c-0.2,0-0.4-0.2-0.4-0.5c0-1,0-2,0-3.1
		c0-1.4,0-2.8,0-4.2c0-0.1,0-0.2,0-0.3c-0.1-0.4,0.2-0.7,0.6-0.6c0.4,0.1,0.6,0.3,0.6,0.8C411.2,3861.3,411.2,3862.5,411.1,3863.7
		C411.1,3863.7,411.1,3863.7,411.1,3863.7z"/>
	<path class="st0" d="M352.3,3844.8c1.3,0.1,2.4,0.9,2.4,2.4c0,1.3-1.1,2.2-2.2,2.2c-1.3,0-2.5-1.2-2.4-2.4
		C350.1,3845.9,351.2,3844.7,352.3,3844.8z"/>
	<path class="st0" d="M425.1,3867.6c-0.1-0.8-0.2-1.6-0.2-2.4c0-0.6-0.1-1.1-0.5-1.5c-0.2-0.2-0.2-0.4,0-0.6
		c0.2-0.2,0.3-0.4,0.4-0.7c0.2-0.6,0.1-1.2,0-1.8c-0.1-0.8-0.6-1.2-1.4-1.3c-0.7-0.1-1.4,0-2,0c-0.4,0-0.4,0.1-0.4,0.4v6.8
		c0,0.3,0,0.7,0,1c0,0.2,0.1,0.3,0.3,0.3c0.3,0,0.5,0,0.8,0c0.1-1,0.1-2.1,0.1-3.1c0-0.5,0-0.5,0.5-0.5c0.6,0,1,0.4,1,1
		c0,0.8,0,1.6,0.1,2.4c0,0.1,0,0.2,0.1,0.2c0.3,0.1,0.7,0,1.1,0C425.1,3867.8,425.1,3867.8,425.1,3867.6z M423.7,3861.7
		c0,0.2,0,0.5-0.1,0.7c-0.3,0.4-0.7,0.6-1.2,0.4c-0.2-0.1-0.3-0.2-0.3-0.4c0-0.5,0-1,0.1-1.5c0-0.2,0.1-0.3,0.3-0.3
		c0.2-0.1,0.5-0.1,0.7-0.1c0.2,0,0.5,0.5,0.5,0.8C423.7,3861.5,423.7,3861.6,423.7,3861.7z"/>
	<path class="st0" d="M455.5,3853.8c-0.2,0-0.3,0-0.5,0L455.5,3853.8z"/>
	<path class="st0" d="M411.2,3835.5c0.1,0,0.2,0,0.3,0.1H405l0.2,0l1-0.1C407.8,3835.5,409.5,3835.5,411.2,3835.5z"/>
	<path class="st0" d="M418.3,3835.5c0.3,0,0.4,0.1,0.6,0.1h-3.3c0.1,0,0.3,0,0.4-0.1c0.3,0,0.6,0,0.9,0c0,0,0,0,0,0
		C417.3,3835.5,417.8,3835.4,418.3,3835.5z"/>
	<path class="st0" d="M429.7,3835.5c0.1,0,0.2,0,0.3,0.1h-6.5c0.1,0,0.3-0.1,0.5-0.1C425.8,3835.5,427.8,3835.5,429.7,3835.5z"/>
	<path class="st0" d="M435.7,3835.5c0.2,0,0.4,0,0.6,0.1h-4.6c0.1,0,0.2-0.1,0.4-0.1C433.3,3835.5,434.5,3835.5,435.7,3835.5z"/>
	<path class="st0" d="M447,3835.6h-1.5C446,3835.5,446.5,3835.5,447,3835.6z"/>
</g>
<g>
	<path class="st0" d="M29.5,25.8c-1.1-0.9-2.3-1.3-3.7-1.3c-3.1,0-6.1,0-9.2,0v17.3c1.6,0,3.3,0,4.9,0c0.3,0,0.3-0.1,0.3-0.3
		c0-1.6,0-3.1,0-4.7c0-0.2,0.1-0.3,0.3-0.3c1,0,2.1,0,3.1,0c1.1,0,2.1-0.2,3.1-0.6c2-0.9,3.1-2.5,3.3-4.7C32,29,31.2,27.2,29.5,25.8
		z M25.1,32.4c-1,0.1-2.1,0-3.1,0.1c-0.2,0-0.2-0.1-0.2-0.3v-1.6h0c0-0.5,0-1.1,0-1.6c0-0.1,0-0.3,0.2-0.2c1,0.1,2,0,3,0
		c1,0.1,1.6,0.8,1.6,1.7C26.7,31.5,26.2,32.3,25.1,32.4z"/>
	<path class="st0" d="M132,37.9c-0.1,0-0.1,0-0.1,0.1c-0.4,1.9-1.7,3.1-3.4,3.7c-2.5,0.9-5,0.7-7.1-1c-1.5-1.2-2.3-2.9-2.3-4.8
		c-0.1-1.8,0.5-3.5,1.8-4.8c1-1,2.2-1.6,3.6-1.8c1.4-0.2,2.7-0.2,4,0.3c1.8,0.7,3,1.9,3.3,3.9c0.1,0.7,0.1,0.7-0.6,0.7
		c-1.1,0-2.1,0-3.2,0c-0.3,0-0.4-0.1-0.5-0.3c-0.2-0.7-0.6-1.3-1.4-1.4c-0.8-0.1-1.4,0.2-1.8,0.8c-0.4,0.5-0.5,1.1-0.6,1.7
		c-0.1,0.9,0,1.7,0.3,2.5c0.4,1,1.1,1.5,2,1.5c0.7,0,1.1-0.3,1.4-0.9c0.1-0.3,0.2-0.7,0.2-1c0-0.2,0.1-0.3,0.3-0.3
		c1.4,0,2.8,0,4.2,0C132,37.1,132,37.5,132,37.9z"/>
	<path class="st0" d="M73.7,52.4c-0.2-0.7-0.7-1.2-1.3-1.6c-0.6-0.3-1.3-0.5-1.9-0.6c-1.1-0.2-2.1-0.7-3.1-1.2
		c-1.4-0.7-2.1-2-1.9-3.8c0.1-0.7,0.2-1.3,0.4-1.9c0.7,1.3,1.9,1.9,3.3,2c0.8,0.1,1.6,0.1,2.3,0.2c1.2,0.2,2,0.7,2.6,1.8
		c0,0.1,0.1,0.1,0.1,0.2c0,0.1,0.1,0.1,0.1,0.2c0.1,0,0.1-0.1,0.1-0.2c0.5-1.2,1.4-1.8,2.7-2c0.9-0.1,1.8-0.1,2.6-0.2
		c0.9-0.2,1.7-0.6,2.4-1.1c0.3-0.2,0.5-0.5,0.6-0.9c0.2,0.5,0.3,1,0.3,1.5c0.1,0.7,0.1,1.3-0.1,2c-0.2,1-0.9,1.8-1.8,2.3
		c-1,0.5-2,0.9-3.1,1.2c-0.7,0.2-1.3,0.3-1.9,0.6c-0.7,0.3-1.1,0.8-1.3,1.5c0,0,0,0,0,0.1C74.5,52.4,74.1,52.4,73.7,52.4z"/>
	<path class="st0" d="M132,48.9c-0.1-0.1-0.1,0-0.2,0.1c-0.2,0.1-0.3,0.2-0.5,0.1c-0.2,0-0.4-0.1-0.4-0.4c0-0.2,0.2-0.4,0.5-0.4
		c0.3,0,0.4,0.2,0.7,0.2C132,48.6,132,48.8,132,48.9z"/>
	<path class="st0" d="M88.9,21.1c-0.3,0.2-0.5,0.5-0.8,0.7c-0.1,0.1-0.3,0.1-0.4,0.1c0.1-0.3,0.4-0.5,0.5-0.8
		C88.4,21.1,88.6,21.1,88.9,21.1z"/>
	<path class="st0" d="M99.7,35.6c0-1.9,0-3.9,0-5.8c0-0.2,0.1-0.3,0.3-0.3c1.3,0,2.6,0,3.8,0c0.2,0,0.3,0.1,0.3,0.3
		c0,0.3,0,0.5,0,0.8c0,0.2,0.1,0.2,0.2,0.1c0.5-0.4,0.9-0.7,1.4-0.9c1.6-0.8,3.2-0.9,4.7,0c1.3,0.7,1.9,1.8,2.1,3.2
		c0.1,0.6,0.1,1.2,0.1,1.9c0,2.3,0,4.5,0,6.8c0,0.3-0.1,0.3-0.3,0.3c-1.4,0-2.8,0-4.2,0c-0.3,0-0.3-0.1-0.3-0.3c0-2.2,0-4.4,0-6.6
		c0-0.3,0-0.6-0.1-0.8c-0.2-0.6-0.6-1-1.2-1.1c-0.7-0.1-1.3,0.1-1.8,0.7c-0.3,0.4-0.5,0.8-0.5,1.3c0,2.2,0,4.4,0,6.5
		c0,0.3-0.1,0.4-0.4,0.4c-1.3,0-2.7,0-4,0c-0.3,0-0.4-0.1-0.4-0.4C99.7,39.5,99.7,37.6,99.7,35.6C99.7,35.6,99.7,35.6,99.7,35.6z"/>
	<path class="st0" d="M45.3,35.7c0-1.9,0-3.9,0-5.8c0-0.4,0-0.4,0.4-0.4c1.2,0,2.5,0,3.7,0c0.3,0,0.4,0.1,0.4,0.4c0,0.2,0,0.4,0,0.7
		c0,0.2,0.1,0.2,0.2,0.1c0.6-0.4,1.1-0.8,1.8-1.1c1.7-0.8,3.4-0.7,5,0.4c1,0.7,1.4,1.8,1.6,3c0.1,1.1,0.1,2.1,0.1,3.2
		c0,1.8,0,3.6,0,5.4c0,0.3,0,0.3-0.3,0.3c-1.4,0-2.8,0-4.2,0c-0.3,0-0.3-0.1-0.3-0.3c0-1.8,0-3.7,0-5.5c0-0.6,0-1.1-0.1-1.7
		c-0.1-0.8-0.4-1.1-1.1-1.3c-0.8-0.2-1.5,0.1-1.9,0.6c-0.3,0.4-0.4,0.9-0.4,1.4c0,2.1,0,4.3,0,6.4c0,0.4,0,0.4-0.4,0.4
		c-1.3,0-2.7,0-4,0c-0.2,0-0.3-0.1-0.3-0.3C45.3,39.6,45.3,37.6,45.3,35.7C45.3,35.7,45.3,35.7,45.3,35.7z"/>
	<path class="st0" d="M72,40.9c-0.1-1.4-0.1-2.9-0.1-4.3c0-1.3,0-2.5-0.2-3.8c-0.2-1.6-1.1-2.6-2.5-3.1c-0.9-0.3-1.8-0.5-2.8-0.5
		c-1.5-0.1-2.9,0-4.3,0.5c-1.7,0.6-2.6,2-2.5,3.7c0,0.2,0.1,0.3,0.3,0.3c1.2,0,2.4,0,3.6,0.1c0.2,0,0.3,0,0.3-0.2
		c0-0.4,0.2-0.9,0.6-1.1c0.7-0.4,1.5-0.4,2.2-0.1c0.4,0.2,0.5,0.6,0.5,1c0,0.3-0.3,0.5-0.5,0.7c-0.1,0.1-0.3,0.1-0.4,0.2
		c-0.5,0.2-1.1,0.3-1.7,0.4c-1.1,0.2-2.3,0.3-3.3,0.8c-1.6,0.7-2.2,2-2.1,3.5c0.1,1.6,1,2.7,2.5,3.2c2,0.6,3.9,0.3,5.5-1.2
		c0.2-0.2,0.2-0.1,0.2,0.1c0.1,0.3,0.1,0.5,0.3,0.7c0.1,0.2,0.2,0.3,0.5,0.3c1.3,0,2.6,0,3.9,0c0.1,0,0.2,0,0.3,0
		C72.2,41.5,72.1,41.2,72,40.9z M64.4,39.4c-0.4-0.1-0.9-0.6-0.9-1c0-0.4,0.2-0.8,0.7-1c1-0.4,2-0.7,3-1c0.2-0.1,0.2,0,0.2,0.1
		c0,0.2,0,0.4,0,0.5C67.4,39,65.7,39.6,64.4,39.4z"/>
	<path class="st0" d="M44.6,41.6c-0.1-0.3-0.2-0.5-0.2-0.8c-0.1-1.7-0.1-3.4-0.1-5.2c0-1,0-1.9-0.2-2.9c-0.2-1.4-1-2.5-2.3-3
		c-0.9-0.3-1.9-0.5-2.9-0.6c-1.4-0.1-2.8,0-4.2,0.5c-1.8,0.6-2.7,2-2.6,3.7c0,0.2,0.1,0.3,0.3,0.3c1.2,0,2.3,0,3.5,0
		c0.3,0,0.4-0.1,0.4-0.4c0-0.5,0.3-0.9,0.8-1.1c0.6-0.2,1.2-0.2,1.9,0c0.4,0.2,0.6,0.5,0.6,1c0,0.4-0.3,0.6-0.6,0.7
		c-0.5,0.2-1,0.3-1.5,0.4c-1.2,0.2-2.4,0.4-3.5,0.8c-0.7,0.3-1.3,0.6-1.8,1.2c-1.2,1.3-1.1,4.3,1.3,5.4c1.1,0.5,2.2,0.6,3.4,0.3
		c1-0.2,2-0.6,2.7-1.5c0.1,0.4,0.2,0.7,0.4,1c0.1,0.2,0.1,0.3,0.4,0.3c1.4,0,2.8,0,4.1,0C44.7,41.8,44.7,41.8,44.6,41.6z M37.4,39.4
		c-0.4,0-0.9,0-1.2-0.4c-0.6-0.6-0.4-1.3,0.3-1.6c0.9-0.3,1.8-0.6,2.6-0.9c0.6-0.2,0.6-0.2,0.6,0.4V37
		C39.8,38.7,38.6,39.4,37.4,39.4z"/>
	<path class="st0" d="M99,34.9c-0.2-2.7-1.7-4.3-4.1-5.4c-1.1-0.5-2.3-0.5-3.5-0.4c-2.5,0.2-4.3,1.4-5.4,3.6
		c-0.6,1.2-0.7,2.4-0.5,3.7c0.1,1.1,0.5,2.2,1.2,3.1c1.5,2,3.5,2.7,5.9,2.6c0.2,0,0.4,0,0.5,0c1.2-0.1,2.3-0.4,3.3-1.2
		C98.4,39.5,99.2,37.4,99,34.9z M94.1,37.4c-0.1,0.3-0.2,0.6-0.4,0.9c-0.8,1.2-2.3,1.1-3.1,0c-0.4-0.6-0.5-1.3-0.5-2
		c-0.1-0.9,0-1.8,0.4-2.7c0.3-0.6,0.6-1.1,1.3-1.2c0.8-0.2,1.7,0.2,2.1,1c0.3,0.6,0.5,1.6,0.5,2.5C94.3,36.3,94.3,36.8,94.1,37.4z"
		/>
	<path class="st0" d="M74.8,37.7c0.7,0,1.3,0,2,0c0.2,0,0.3,0,0.3,0.2c0.1,1.2,1,1.6,2,1.5c0.3,0,0.6-0.1,0.9-0.3
		c0.4-0.3,0.5-0.6,0.5-1c0-0.4-0.3-0.5-0.7-0.7c-0.7-0.2-1.4-0.3-2.1-0.4c-1-0.2-2-0.4-2.9-0.8c-1.2-0.5-1.8-1.5-1.9-2.8
		c-0.2-1.6,0.5-2.7,1.9-3.5c0.9-0.5,1.8-0.8,2.8-0.9c1.4-0.1,2.7-0.1,4.1,0.3c0.5,0.1,1,0.3,1.5,0.6c1.1,0.6,1.5,1.6,1.6,2.8
		c0,0.2-0.1,0.2-0.2,0.2c-1.3,0-2.6,0-3.9,0c-0.1,0-0.2,0-0.2-0.2c-0.2-0.8-0.8-1.2-1.6-1.1c-0.4,0-0.8,0.1-1.1,0.4
		c-0.4,0.4-0.3,0.8,0.2,1c0.5,0.3,1.1,0.3,1.7,0.4c1.3,0.2,2.5,0.5,3.7,1.1c2.8,1.4,2.5,4.9,0.4,6.4c-0.9,0.6-1.9,0.9-2.9,1.1
		c-1.7,0.3-3.3,0.1-4.9-0.4c-0.9-0.3-1.6-0.8-2.2-1.5c-0.5-0.6-0.8-1.4-0.8-2.2c0-0.2,0.1-0.3,0.3-0.3
		C73.5,37.7,74.2,37.7,74.8,37.7C74.8,37.7,74.8,37.7,74.8,37.7z"/>
	<path class="st0" d="M118.4,35.7c0,1.9,0,3.9,0,5.8c0,0.3-0.1,0.3-0.3,0.3c-1.3,0-2.6,0-4,0c-0.2,0-0.3,0-0.3-0.3
		c0-3.9,0-7.8,0-11.8c0-0.2,0.1-0.3,0.3-0.3c1.3,0,2.6,0,3.9,0c0.2,0,0.3,0.1,0.3,0.3C118.3,31.8,118.3,33.7,118.4,35.7
		C118.3,35.7,118.4,35.7,118.4,35.7z"/>
	<path class="st0" d="M79.2,25.2c-0.3-0.7-0.7-1.4-1.1-2.1c-0.5-0.9-0.5-0.9-1.5-0.9c-0.2,0-0.2,0.1-0.3,0.2
		c-0.2,0.4-0.4,0.8-0.6,1.1c-0.3,0.6-0.7,1.2-1,1.8c-0.4-0.5-0.5-1-1-1.3c0.1-0.1,0.2-0.1,0.4-0.2c0.4-0.3,0.4-0.9,0-1.3
		c-0.2-0.1-0.3-0.2-0.5-0.2c-0.7-0.1-1.4,0-2.1-0.1c-0.2,0-0.3,0.1-0.3,0.3c0,0.7,0,1.5,0,2.2c0,0.8,0,0.8,0.8,0.8
		c0.2,0,0.2-0.1,0.2-0.2c0-0.2,0-0.5,0-0.7c0-0.4,0.1-0.5,0.5-0.4c0.2,0.1,0.3,0.2,0.4,0.3c0.1,0.3,0.3,0.5,0.4,0.8
		c0.1,0.1,0.2,0.2,0.3,0.2c0.5,0,1,0,1.5,0c0.3,0,0.5-0.1,0.6-0.4c0.1-0.2,0.2-0.3,0.5-0.3c0.4,0,0.7,0,1.1,0c0.4,0,0.6,0.1,0.7,0.4
		c0,0.1,0.1,0.2,0.2,0.2c0.3,0,0.6,0,0.9,0C79.4,25.4,79.3,25.3,79.2,25.2z M73,23.5c-0.1,0.1-0.3,0.1-0.5,0.1
		c-0.1,0-0.3,0.1-0.4-0.1c-0.1-0.2,0-0.4,0-0.6c0,0,0,0,0,0c0.2-0.1,0.5-0.1,0.7,0c0.2,0,0.3,0.1,0.3,0.3
		C73.3,23.3,73.2,23.4,73,23.5z M77.5,24.3c-0.3,0-0.6,0-0.9,0c-0.2,0-0.2-0.1-0.1-0.2c0.2-0.3,0.4-0.7,0.6-1.1
		c0.2,0.4,0.3,0.7,0.5,1.1C77.6,24.2,77.7,24.3,77.5,24.3z"/>
	<path class="st0" d="M116.1,27.8c-0.7,0-1.4,0-2,0c-0.2,0-0.3-0.1-0.3-0.3c0-0.9,0-1.8,0-2.8c0-0.2,0-0.2,0.2-0.2
		c1.4,0,2.7,0,4.1,0c0.2,0,0.3,0.1,0.3,0.3c0,0.9,0,1.8,0,2.7c0,0.3-0.1,0.3-0.3,0.3C117.4,27.8,116.7,27.8,116.1,27.8
		C116.1,27.8,116.1,27.8,116.1,27.8z"/>
	<path class="st0" d="M94.2,24.2c0-0.6,0-1.1,0-1.6c0-0.2,0-0.3,0.3-0.3c0.8,0,0.8,0,0.8,0.8c0,0.8,0,1.5,0,2.3c0,0.2,0,0.2-0.2,0.3
		c-0.4,0-0.7,0-1-0.3c-0.5-0.5-1.1-1-1.6-1.4c-0.1-0.1-0.2-0.2-0.3-0.2c0,0.5,0,0.9,0,1.4c0,0.6,0,0.6-0.6,0.6c-0.1,0-0.2,0-0.3,0
		c-0.1,0-0.2-0.1-0.2-0.2c0-1,0-1.9,0-2.9c0-0.2,0.1-0.2,0.2-0.2c0.5,0,0.9,0,1.2,0.4C93,23.1,93.6,23.6,94.2,24.2z"/>
	<path class="st0" d="M69.8,22.6c-0.5-0.4-1.1-0.5-1.8-0.5c-0.6,0-1.1,0.1-1.6,0.5c-0.9,0.7-0.9,1.8,0,2.5c0.9,0.6,2.4,0.6,3.3,0
		C70.7,24.5,70.7,23.3,69.8,22.6z M68.8,24.7c-0.4,0.2-0.8,0.2-1.3,0c-0.4-0.2-0.6-0.4-0.6-0.9c0-0.4,0.2-0.7,0.6-0.9
		c0.2-0.1,0.4-0.1,0.6-0.1c0.3,0,0.6,0.1,0.8,0.3C69.6,23.5,69.5,24.4,68.8,24.7z"/>
	<path class="st0" d="M57,22.8c-0.5-0.5-1.2-0.7-1.9-0.7c-0.7,0-1.3,0.1-1.8,0.6c-0.7,0.7-0.7,1.7,0.1,2.3c0.4,0.3,0.8,0.5,1.3,0.5
		c0.9,0.1,1.7,0,2.3-0.6C57.6,24.3,57.6,23.4,57,22.8z M55.8,24.7c-0.5,0.2-0.9,0.2-1.4,0c-0.3-0.2-0.5-0.4-0.5-0.8
		c0-0.4,0.2-0.7,0.5-0.9c0.2-0.1,0.5-0.2,0.7-0.2c0.3,0,0.6,0.1,0.9,0.3C56.5,23.6,56.4,24.4,55.8,24.7z"/>
	<path class="st0" d="M89.8,22.7c-0.9-0.7-2.5-0.7-3.4,0c-0.8,0.7-0.8,1.8,0.1,2.4c0.5,0.4,1,0.5,1.6,0.5c0.6,0,1.2-0.1,1.7-0.5
		C90.6,24.5,90.6,23.3,89.8,22.7z M89.2,24.1C89.2,24.1,89.2,24.1,89.2,24.1c-0.2,0.5-0.7,0.8-1.2,0.8c-0.6,0-1-0.3-1.1-0.8
		c-0.1-0.6,0.3-1.1,1-1.2c0.1,0,0.1,0,0.1,0C88.9,22.8,89.4,23.4,89.2,24.1z"/>
	<path class="st0" d="M60.7,23.9c0.1-0.1,0.2-0.1,0.4-0.2c0.4-0.3,0.4-0.9,0-1.3c-0.2-0.1-0.3-0.2-0.5-0.2c-0.7-0.1-1.4,0-2.1-0.1
		c-0.2,0-0.3,0.1-0.3,0.3c0,0.7,0,1.5,0,2.2c0,0.8,0,0.8,0.8,0.8c0,0,0,0,0.1,0c0.1,0,0.2-0.1,0.2-0.2c0-0.2,0-0.5,0-0.7
		c0-0.4,0.2-0.6,0.6-0.4c0.1,0.1,0.2,0.2,0.3,0.3c0.1,0.3,0.3,0.5,0.4,0.8c0,0.1,0.1,0.2,0.2,0.2c0.4,0,0.7,0,1.2,0
		C61.4,24.9,61.3,24.3,60.7,23.9z M59.9,23.5c-0.1,0-0.3,0-0.4,0c-0.1,0-0.3,0.1-0.4-0.1c-0.1-0.2,0-0.4,0-0.6
		c0-0.1,0.1-0.1,0.1-0.1c0.2,0,0.4,0,0.6,0c0.2,0,0.3,0.1,0.3,0.4C60.3,23.4,60.1,23.5,59.9,23.5z"/>
	<path class="st0" d="M124.4,48.7c-0.4-0.7-0.7-1.4-1.1-2.1c-0.1-0.3-0.2-0.7-0.5-0.8c-0.3-0.1-0.6,0-1-0.1c-0.2,0-0.3,0.1-0.4,0.2
		c-0.5,0.9-1.1,1.9-1.6,2.8c0,0.1-0.1,0.1-0.1,0.3c0.2,0,0.5,0,0.7,0c0.3,0,0.4-0.1,0.5-0.3c0.1-0.3,0.3-0.3,0.6-0.3
		c0.3,0,0.7,0,1,0c0.3,0,0.5,0.1,0.6,0.4c0,0.1,0.1,0.2,0.3,0.2c0.3,0,0.6,0,1,0C124.5,48.9,124.4,48.8,124.4,48.7z M122.7,47.9
		c-0.3,0-0.6,0-0.9,0c-0.1,0-0.1-0.1-0.1-0.2c0.2-0.3,0.3-0.7,0.6-1.1c0.2,0.4,0.4,0.7,0.5,1.1C122.8,47.8,122.8,47.9,122.7,47.9z"
		/>
	<path class="st0" d="M114.8,48.1c0.5,0.2,0.9,0.4,1.4,0.4c0.2,0,0.3,0,0.5,0c0.1,0,0.2-0.1,0.2-0.2c0-0.1-0.1-0.2-0.2-0.2
		c-0.2-0.1-0.5-0.2-0.7-0.2c-0.3-0.1-0.5-0.2-0.7-0.3c-0.3-0.2-0.5-0.4-0.5-0.8c0-0.4,0.3-0.6,0.6-0.7c0.6-0.3,1.2-0.2,1.8-0.1
		c0.2,0,0.3,0.1,0.5,0.1c0.1,0,0.2,0.1,0.2,0.2c0,0.6,0,0.5-0.4,0.4c-0.4-0.1-0.7-0.2-1.1-0.2c-0.2,0-0.4,0-0.5,0.2
		c0,0.2,0.2,0.3,0.4,0.3c0.3,0.1,0.6,0.2,0.8,0.3c0.1,0,0.3,0.1,0.4,0.1c0.3,0.2,0.6,0.4,0.6,0.8c0,0.4-0.2,0.6-0.6,0.8
		c-0.5,0.2-1,0.2-1.5,0.2c-0.3,0-0.5-0.1-0.8-0.2c-0.2-0.1-0.4-0.2-0.3-0.4C114.8,48.4,114.8,48.2,114.8,48.1z"/>
	<path class="st0" d="M130.3,48C130.3,48.1,130.3,48.1,130.3,48c0.1,0.9,0.2,0.7-0.6,0.9c-0.7,0.2-1.5,0.2-2.2-0.1
		c-0.9-0.3-1.4-1.2-1.1-2c0.3-0.7,0.9-1,1.5-1.1c0.7-0.1,1.4-0.1,2,0.1c0.2,0.1,0.4,0.6,0.2,0.8c-0.1,0.1-0.1,0-0.2,0
		c-0.5-0.2-1.1-0.3-1.6-0.2c-0.7,0.1-1.1,0.6-0.9,1.3c0.1,0.4,0.5,0.6,0.9,0.7C129.1,48.5,129.7,48.3,130.3,48z"/>
	<path class="st0" d="M83.3,24.5c0,0.2,0,0.4,0,0.6c0,0.1-0.1,0.2-0.2,0.2c-0.9,0.3-1.8,0.4-2.7,0c-0.8-0.3-1.2-1.1-1-1.9
		c0.1-0.4,0.4-0.7,0.8-0.9c0.9-0.5,1.9-0.4,2.9-0.1c0.3,0.1,0.1,0.3,0.2,0.5c0,0.3,0,0.3-0.3,0.2c-0.5-0.2-1-0.3-1.6-0.2
		c-0.6,0.1-0.9,0.5-0.9,1c0,0.5,0.4,0.9,0.9,0.9c0.6,0.1,1.1,0,1.6-0.2C83.1,24.6,83.2,24.5,83.3,24.5z"/>
	<path class="st0" d="M52.4,24.5c0,0.2,0,0.4,0,0.6c0,0.1-0.1,0.2-0.2,0.2c-0.9,0.3-1.8,0.4-2.7,0c-0.8-0.3-1.2-1.1-1-1.9
		c0.1-0.4,0.4-0.7,0.8-0.9c0.9-0.5,1.9-0.4,2.9-0.1c0.2,0.1,0.1,0.3,0.1,0.4c0,0.4,0,0.4-0.3,0.2c-0.5-0.2-1-0.3-1.6-0.2
		c-0.6,0.1-0.9,0.5-0.9,1c0,0.5,0.4,0.9,1,0.9c0.5,0.1,1.1,0,1.6-0.2C52.1,24.6,52.2,24.5,52.4,24.5z"/>
	<path class="st0" d="M64.6,22.3c-0.8-0.2-1.5-0.1-2.3-0.1c-0.2,0-0.2,0.1-0.2,0.2c0,0.5,0,0.9,0,1.4v0.8c0,0.8,0,0.8,0.8,0.8
		c0.2,0,0.2,0,0.2-0.2c0-0.3,0-0.5,0-0.8c0-0.2,0.1-0.3,0.3-0.3c0.4,0,0.8,0,1.2-0.2c0.3-0.1,0.5-0.3,0.6-0.6
		C65.6,22.9,65.3,22.4,64.6,22.3z M64.1,23.5c-0.2,0.1-0.3,0.1-0.5,0.1c-0.1,0-0.3,0.1-0.4-0.1c-0.1-0.2,0-0.4,0-0.6
		c0,0,0-0.1,0.1-0.1c0.3,0,0.6-0.1,0.9,0.1C64.4,23.1,64.4,23.4,64.1,23.5z"/>
	<path class="st0" d="M85.1,23.9c0,0.5,0,0.9,0,1.4c0,0.2-0.1,0.2-0.2,0.2c-0.9,0-0.9,0-0.9-0.8c0-0.7,0-1.5,0-2.2
		c0-0.2,0.1-0.3,0.3-0.3c0.8,0,0.8,0,0.8,0.8C85.1,23.3,85.1,23.6,85.1,23.9z"/>
	<path class="st0" d="M119.1,49.1c-0.3,0-0.5-0.2-0.6-0.4c0-0.2,0.2-0.4,0.5-0.4c0.3,0,0.6,0.2,0.6,0.4
		C119.6,48.9,119.4,49.1,119.1,49.1z"/>
	<path class="st0" d="M125.3,48.3c0.3,0,0.5,0.2,0.5,0.4c0,0.2-0.3,0.4-0.6,0.4c-0.3,0-0.5-0.2-0.5-0.4
		C124.8,48.4,125,48.3,125.3,48.3z"/>
</g>
</svg>
