<?xml version="1.0" encoding="utf-8"?>
<!-- Generator: Adobe Illustrator 21.0.0, SVG Export Plug-In . SVG Version: 6.00 Build 0)  -->
<svg version="1.1" id="Capa_1" xmlns="http://www.w3.org/2000/svg" xmlns:xlink="http://www.w3.org/1999/xlink" x="0px" y="0px"
	 viewBox="0 0 253 179" style="enable-background:new 0 0 253 179;" xml:space="preserve">
<style type="text/css">
	.st0{fill:none;stroke:#17DE8B;stroke-width:0.5;stroke-miterlimit:10;}
	.st1{fill:#D9FFE6;}
	.st2{fill:#17DE8B;}
	.st3{fill:#1E212A;}
	.st4{fill:none;stroke:#A6E0CA;stroke-width:0.4227;stroke-miterlimit:10;}
	.st5{fill:none;stroke:#17DE8B;stroke-width:1.5;stroke-miterlimit:10;}
	.st6{fill:#4A3382;}
	.st7{fill:none;stroke:#FFFFFF;stroke-width:0.75;stroke-miterlimit:10;}
	.st8{enable-background:new    ;}
	.st9{fill:#FEFDFF;}
	.st10{fill:#FDFDFD;}
</style>
<g>
	<g>
		<g>
			<path class="st0" d="M202.1,147.8H65.5c-1.7,0-3.1-1.4-3.1-3.1v-76c0-1.7,1.4-3.1,3.1-3.1H202c1.7,0,3.1,1.4,3.1,3.1v76
				C205.2,146.4,203.8,147.8,202.1,147.8z"/>
			<path class="st1" d="M209.6,141.3H73c-1.7,0-3.1-1.4-3.1-3.1v-76c0-1.7,1.4-3.1,3.1-3.1h136.5c1.7,0,3.1,1.4,3.1,3.1v76
				C212.7,139.9,211.3,141.3,209.6,141.3z"/>
			<g>
				<circle class="st2" cx="80.7" cy="64.3" r="1.7"/>
				<circle class="st3" cx="86.5" cy="64.3" r="1.7"/>
				<g>
					<path class="st3" d="M92.2,63.1c0.7,0,1.2,0.6,1.2,1.2c0,0.7-0.6,1.2-1.2,1.2c-0.7,0-1.2-0.6-1.2-1.2S91.5,63.1,92.2,63.1
						 M92.2,62.6c-1,0-1.7,0.8-1.7,1.7c0,1,0.8,1.7,1.7,1.7s1.7-0.8,1.7-1.7C93.9,63.4,93.2,62.6,92.2,62.6L92.2,62.6z"/>
				</g>
			</g>
		</g>
		<g>
			<path class="st4" d="M198.3,126.5h-51.8c-0.8,0-1.4-0.6-1.4-1.4V68c0-0.8,0.6-1.4,1.4-1.4h51.8c0.8,0,1.4,0.6,1.4,1.4v57.2
				C199.7,125.9,199.1,126.5,198.3,126.5z"/>
			<path class="st4" d="M186.3,107.6h-27.8c-1.7,0-3-1.3-3-3V75.8c0-1.7,1.3-3,3-3h27.8c1.7,0,3,1.3,3,3v28.8
				C189.3,106.2,188,107.6,186.3,107.6z"/>
		</g>
		<g>
			<path class="st4" d="M103.7,96.8H79.1c-1.7,0-3-1.3-3-3V83c0-1.7,1.3-3,3-3h24.5c1.7,0,3,1.3,3,3v10.8
				C106.7,95.5,105.3,96.8,103.7,96.8z"/>
			<g>
				<line class="st4" x1="80.8" y1="85" x2="101.9" y2="85"/>
				<line class="st4" x1="80.8" y1="88.4" x2="87.8" y2="88.4"/>
				<line class="st4" x1="80.8" y1="91.8" x2="95.2" y2="91.8"/>
			</g>
		</g>
	</g>
	<ellipse class="st5" cx="223.6" cy="156.7" rx="2.6" ry="2.6"/>
	<ellipse class="st5" cx="30.7" cy="114.3" rx="1.9" ry="1.9"/>
	<ellipse class="st5" cx="236.7" cy="57.1" rx="1.9" ry="1.9"/>
	<ellipse class="st5" cx="88.2" cy="163.4" rx="1.9" ry="1.9"/>
	<rect x="177.9" y="173" class="st5" width="3.9" height="3.9"/>
	<g>
		<g>
			<path class="st6" d="M221,114.3h-48.4c-0.8,0-1.4-0.6-1.4-1.4v-11.2c0-0.8,0.6-1.4,1.4-1.4H221c0.8,0,1.4,0.6,1.4,1.4V113
				C222.3,113.7,221.7,114.3,221,114.3z"/>
			<g>
				<line class="st7" x1="176.5" y1="105.9" x2="214" y2="105.9"/>
				<line class="st7" x1="176.5" y1="109.3" x2="183.4" y2="109.3"/>
			</g>
		</g>
	</g>
	<g>
		<g>
			<path class="st2" d="M202.1,85.6h-38c-1.1,0-2.1-0.9-2.1-2.1V50.1c0-1.1,0.9-2.1,2.1-2.1h38c1.1,0,2.1,0.9,2.1,2.1v33.3
				C204.2,84.6,203.3,85.6,202.1,85.6z"/>
		</g>
		<g>
			<line class="st7" x1="175.6" y1="67.4" x2="184.9" y2="67.4"/>
			<line class="st7" x1="169.7" y1="71.8" x2="196.5" y2="71.8"/>
			<line class="st7" x1="169.7" y1="61.8" x2="192.3" y2="61.8"/>
			<line class="st7" x1="169.7" y1="76.8" x2="177.7" y2="76.8"/>
			<line class="st7" x1="179.8" y1="76.8" x2="185.5" y2="76.8"/>
			<line class="st7" x1="169.7" y1="67.4" x2="173.3" y2="67.4"/>
			<line class="st7" x1="169.7" y1="57.1" x2="173.3" y2="57.1"/>
		</g>
	</g>
	<g>
		<circle class="st6" cx="202.1" cy="46.9" r="7"/>
	</g>
	<g>
		<g>
			<path class="st6" d="M91.2,155.6h-38c-1.1,0-2.1-0.9-2.1-2.1v-33.3c0-1.1,0.9-2.1,2.1-2.1h38c1.1,0,2.1,0.9,2.1,2.1v33.3
				C93.2,154.7,92.3,155.6,91.2,155.6z"/>
		</g>
		<g>
			<line class="st7" x1="64.6" y1="137.5" x2="74" y2="137.5"/>
			<line class="st7" x1="58.7" y1="141.9" x2="85.6" y2="141.9"/>
			<line class="st7" x1="58.7" y1="131.8" x2="81.3" y2="131.8"/>
			<line class="st7" x1="58.7" y1="146.9" x2="66.8" y2="146.9"/>
			<line class="st7" x1="68.8" y1="146.9" x2="74.6" y2="146.9"/>
			<line class="st7" x1="58.7" y1="137.5" x2="62.3" y2="137.5"/>
			<line class="st7" x1="58.7" y1="127.1" x2="62.3" y2="127.1"/>
		</g>
	</g>
	<g>
		<circle class="st2" cx="91.1" cy="117" r="7"/>
	</g>
	<g>
		<circle class="st6" cx="100.9" cy="38.9" r="9"/>
	</g>
	<g>
		<circle class="st6" cx="146.7" cy="143.7" r="10.4"/>
	</g>
	<g class="st8">
		<path class="st9" d="M143.5,143.4c-0.3-0.3-0.5-0.7-0.5-1.1c0-0.4,0.2-0.8,0.5-1.1c0.3-0.3,0.7-0.5,1.1-0.5s0.8,0.2,1.1,0.5
			c0.3,0.3,0.5,0.7,0.5,1.1c0,0.4-0.2,0.8-0.5,1.1c-0.3,0.3-0.7,0.5-1.1,0.5C144.2,143.9,143.8,143.7,143.5,143.4z M145.1,147.1H144
			l4.4-6.3h1.1L145.1,147.1z M144,142.3c0,0.2,0.1,0.4,0.2,0.5c0.1,0.1,0.3,0.2,0.5,0.2c0.2,0,0.3-0.1,0.5-0.2
			c0.1-0.1,0.2-0.3,0.2-0.5s-0.1-0.4-0.2-0.5s-0.3-0.2-0.5-0.2c-0.2,0-0.3,0.1-0.5,0.2S144,142.1,144,142.3z M147.7,146.7
			c-0.3-0.3-0.5-0.7-0.5-1.1c0-0.4,0.2-0.8,0.5-1.1c0.3-0.3,0.7-0.5,1.1-0.5c0.4,0,0.8,0.2,1.1,0.5s0.5,0.7,0.5,1.1
			c0,0.4-0.2,0.8-0.5,1.1c-0.3,0.3-0.7,0.5-1.1,0.5C148.4,147.2,148.1,147,147.7,146.7z M148.2,145.6c0,0.2,0.1,0.4,0.2,0.5
			c0.1,0.1,0.3,0.2,0.5,0.2c0.2,0,0.3-0.1,0.5-0.2c0.1-0.1,0.2-0.3,0.2-0.5s-0.1-0.4-0.2-0.5s-0.3-0.2-0.5-0.2
			c-0.2,0-0.3,0.1-0.5,0.2C148.3,145.3,148.2,145.4,148.2,145.6z"/>
	</g>
	<g class="st8">
		<path class="st10" d="M201.2,45.8l-0.8,0.2c0-0.2-0.1-0.3-0.2-0.4c-0.1-0.1-0.3-0.2-0.6-0.2c-0.2,0-0.4,0.1-0.5,0.2
			c-0.1,0.1-0.2,0.2-0.2,0.4c0,0.3,0.2,0.4,0.5,0.5l0.6,0.1c0.4,0.1,0.7,0.2,0.9,0.5c0.2,0.2,0.3,0.5,0.3,0.8c0,0.4-0.1,0.7-0.4,1
			s-0.7,0.4-1.2,0.4c-0.3,0-0.5,0-0.8-0.1c-0.2-0.1-0.4-0.2-0.5-0.3c-0.1-0.1-0.2-0.3-0.3-0.4c-0.1-0.2-0.1-0.3-0.1-0.5l0.8-0.2
			c0,0.2,0.1,0.4,0.3,0.6c0.2,0.2,0.4,0.2,0.7,0.2c0.2,0,0.4-0.1,0.5-0.2c0.1-0.1,0.2-0.2,0.2-0.4c0-0.1,0-0.2-0.1-0.3
			s-0.2-0.2-0.4-0.2l-0.6-0.1c-0.4-0.1-0.6-0.2-0.9-0.4S198,46.4,198,46c0-0.4,0.2-0.7,0.5-1c0.3-0.3,0.7-0.4,1.1-0.4
			c0.3,0,0.5,0,0.7,0.1c0.2,0.1,0.4,0.2,0.5,0.3s0.2,0.2,0.3,0.4C201.1,45.5,201.1,45.7,201.2,45.8z"/>
		<path class="st10" d="M204.3,44.7l-2.2,4.6h-0.8l2.2-4.6H204.3z"/>
		<path class="st10" d="M204.9,49.1c-0.1-0.1-0.2-0.2-0.2-0.4c0-0.2,0.1-0.3,0.2-0.4c0.1-0.1,0.2-0.2,0.4-0.2c0.2,0,0.3,0.1,0.4,0.2
			c0.1,0.1,0.2,0.2,0.2,0.4c0,0.2-0.1,0.3-0.2,0.4c-0.1,0.1-0.2,0.2-0.4,0.2C205.1,49.2,205,49.2,204.9,49.1z"/>
	</g>
	<g>
		<line class="st5" x1="146.7" y1="160.6" x2="150.3" y2="164.2"/>
		<line class="st5" x1="150.3" y1="160.6" x2="146.7" y2="164.2"/>
	</g>
	<g>
		<line class="st5" x1="136.4" y1="35" x2="139.9" y2="38.5"/>
		<line class="st5" x1="139.9" y1="35" x2="136.4" y2="38.5"/>
	</g>
	<polygon class="st5" points="28.2,160.3 33.4,163.6 28,166.4 	"/>
	<polygon class="st5" points="236.7,20.9 230.7,21.8 234.5,26.6 	"/>
	<path class="st5" d="M226.2,123.7c2,0,2,1.5,4,1.5s2-1.5,4-1.5s2,1.5,4,1.5s2-1.5,4-1.5s2,1.5,4,1.5s2-1.5,4-1.5"/>
	<path class="st5" d="M1.9,81.4c2,0,2,1.5,4,1.5s2-1.5,4-1.5s2,1.5,4,1.5s2-1.5,4-1.5s2,1.5,4,1.5s2-1.5,4-1.5"/>
	<path class="st2" d="M46.9,50H40c-0.7,0-1.3,0.6-1.3,1.3v5.2c0,0.7,0.6,1.3,1.3,1.3h6.9c0.7,0,1.3-0.6,1.3-1.3v-5.2
		C48.2,50.6,47.7,50,46.9,50z M40,50.9h6.9c0.2,0,0.3,0.1,0.4,0.3l-3.9,2.7l-3.9-2.7C39.7,51,39.8,50.9,40,50.9L40,50.9z M46.9,56.9
		H40c-0.3,0-0.4-0.2-0.4-0.4v-4.4l3.6,2.6c0.1,0,0.2,0.1,0.3,0.1s0.2,0,0.3-0.1l3.6-2.6v4.4C47.4,56.8,47.2,56.9,46.9,56.9
		L46.9,56.9z"/>
	<path class="st2" d="M234.4,83.3h-6.7l0.7-1h5.3L234.4,83.3z M235.8,83.5l-1.4-1.9c-0.1-0.1-0.2-0.2-0.4-0.2h-5.7
		c-0.2,0-0.3,0.1-0.4,0.2l-1.4,1.9c0,0,0,0.1-0.1,0.1c0,0.1,0,0.1,0,0.2v6.7c0,0.2,0,0.4,0.1,0.5c0.1,0.2,0.2,0.3,0.3,0.5
		c0.1,0.1,0.3,0.2,0.5,0.3c0.2,0.1,0.4,0.1,0.5,0.1h6.7c0.2,0,0.4,0,0.5-0.1c0.2-0.1,0.3-0.2,0.5-0.3s0.2-0.3,0.3-0.5
		s0.1-0.4,0.1-0.5v-6.7C235.9,83.7,235.8,83.6,235.8,83.5L235.8,83.5L235.8,83.5z M227.3,84.2h7.6v6.2c0,0.1,0,0.1,0,0.2
		s-0.1,0.1-0.1,0.2c0,0-0.1,0.1-0.2,0.1c-0.1,0-0.1,0-0.2,0h-6.7c-0.1,0-0.1,0-0.2,0c-0.1,0-0.1-0.1-0.2-0.1c0,0-0.1-0.1-0.1-0.2
		s0-0.1,0-0.2L227.3,84.2z M232.5,85.7c0,0.2,0,0.4-0.1,0.5c-0.1,0.2-0.2,0.3-0.3,0.5s-0.3,0.2-0.5,0.3c-0.2,0.1-0.4,0.1-0.5,0.1
		s-0.4,0-0.5-0.1c-0.2-0.1-0.3-0.2-0.5-0.3s-0.2-0.3-0.3-0.5s-0.1-0.4-0.1-0.5c0-0.3-0.2-0.5-0.5-0.5s-0.5,0.2-0.5,0.5
		s0.1,0.6,0.2,0.9c0.1,0.3,0.3,0.6,0.5,0.8s0.5,0.4,0.8,0.5s0.6,0.2,0.9,0.2c0.3,0,0.6-0.1,0.9-0.2c0.3-0.1,0.6-0.3,0.8-0.5
		s0.4-0.5,0.5-0.8s0.2-0.6,0.2-0.9s-0.2-0.5-0.5-0.5S232.5,85.4,232.5,85.7L232.5,85.7z"/>
	<path class="st2" d="M180.7,32.8v-0.6c0-0.2,0-0.4-0.1-0.6c-0.1-0.2-0.2-0.4-0.4-0.5c-0.1-0.1-0.3-0.3-0.5-0.4
		c-0.2-0.1-0.4-0.1-0.6-0.1h-2.6c-0.2,0-0.4,0-0.6,0.1c-0.2,0.1-0.4,0.2-0.5,0.4c-0.1,0.1-0.3,0.3-0.4,0.5c-0.1,0.2-0.1,0.4-0.1,0.6
		v0.6c0,0.2,0.1,0.3,0.3,0.3s0.3-0.1,0.3-0.3v-0.6c0-0.1,0-0.3,0.1-0.4c0-0.1,0.1-0.2,0.2-0.3c0.1-0.1,0.2-0.2,0.3-0.2
		s0.2-0.1,0.4-0.1h2.6c0.1,0,0.3,0,0.4,0.1c0.1,0,0.2,0.1,0.3,0.2c0.1,0.1,0.2,0.2,0.2,0.3s0.1,0.2,0.1,0.4v0.6
		c0,0.2,0.1,0.3,0.3,0.3C180.5,33.1,180.7,33,180.7,32.8L180.7,32.8z M179.4,28.3c0-0.2,0-0.4-0.1-0.6c-0.1-0.2-0.2-0.4-0.4-0.5
		c-0.1-0.1-0.3-0.3-0.5-0.4c-0.2-0.1-0.4-0.1-0.6-0.1c-0.2,0-0.4,0-0.6,0.1c-0.2,0.1-0.4,0.2-0.5,0.4c-0.1,0.1-0.3,0.3-0.4,0.5
		c-0.1,0.2-0.1,0.4-0.1,0.6c0,0.2,0,0.4,0.1,0.6c0.1,0.2,0.2,0.4,0.4,0.5c0.1,0.1,0.3,0.3,0.5,0.4c0.2,0.1,0.4,0.1,0.6,0.1
		c0.2,0,0.4,0,0.6-0.1c0.2-0.1,0.4-0.2,0.5-0.4c0.1-0.1,0.3-0.3,0.4-0.5C179.3,28.7,179.4,28.5,179.4,28.3L179.4,28.3z M178.7,28.3
		c0,0.1,0,0.3-0.1,0.4c0,0.1-0.1,0.2-0.2,0.3c-0.1,0.1-0.2,0.2-0.3,0.2s-0.2,0.1-0.4,0.1c-0.1,0-0.3,0-0.4-0.1
		c-0.1,0-0.2-0.1-0.3-0.2c-0.1-0.1-0.2-0.2-0.2-0.3s-0.1-0.2-0.1-0.4c0-0.1,0-0.3,0.1-0.4c0-0.1,0.1-0.2,0.2-0.3
		c0.1-0.1,0.2-0.2,0.3-0.2s0.2-0.1,0.4-0.1c0.1,0,0.3,0,0.4,0.1c0.1,0,0.2,0.1,0.3,0.2c0.1,0.1,0.2,0.2,0.2,0.3
		C178.7,28,178.7,28.1,178.7,28.3z"/>
	<path class="st10" d="M90.6,119.4c0-0.1,0-0.1,0-0.2s-0.1-0.1-0.1-0.2s-0.1-0.1-0.2-0.1s-0.1,0-0.2,0s-0.1,0-0.2,0
		s-0.1,0.1-0.2,0.1c0,0-0.1,0.1-0.1,0.2s0,0.1,0,0.2s0,0.1,0,0.2s0.1,0.1,0.1,0.2c0,0,0.1,0.1,0.2,0.1s0.1,0,0.2,0s0.1,0,0.2,0
		s0.1-0.1,0.2-0.1s0.1-0.1,0.1-0.2S90.6,119.5,90.6,119.4z M93.3,119.4c0-0.1,0-0.1,0-0.2s-0.1-0.1-0.1-0.2s-0.2,0-0.2-0.1
		c-0.1,0-0.1,0-0.2,0s-0.1,0-0.2,0s-0.1,0.1-0.2,0.1c0,0-0.1,0.1-0.1,0.2s0,0.1,0,0.2s0,0.1,0,0.2s0.1,0.1,0.1,0.2
		c0,0,0.1,0.1,0.2,0.1s0.1,0,0.2,0s0.1,0,0.2,0s0.1-0.1,0.2-0.1s0.1-0.1,0.1-0.2C93.3,119.5,93.3,119.5,93.3,119.4z M89.7,116h3.6
		l-0.3,1.8v0.1c0,0,0,0-0.1,0.1c0,0,0,0-0.1,0h-0.1h-2.4h-0.1h-0.1c0,0,0,0-0.1-0.1v-0.1L89.7,116z M88.1,114.8h0.8l0.2,1l0,0l0.4,2
		c0,0.1,0.1,0.2,0.1,0.2c0,0.1,0.1,0.1,0.2,0.2c0.1,0,0.1,0.1,0.2,0.1s0.2,0,0.2,0h2.4c0.1,0,0.2,0,0.3,0c0.1,0,0.2-0.1,0.2-0.1
		c0.1-0.1,0.1-0.1,0.2-0.2c0-0.1,0.1-0.1,0.1-0.2l0.4-2c0-0.1-0.1-0.3-0.2-0.3l0,0h-3.9l-0.2-1c0-0.1-0.1-0.2-0.2-0.2h-1
		c-0.1,0-0.2,0.1-0.2,0.2C87.9,114.7,88,114.8,88.1,114.8L88.1,114.8z"/>
	<path class="st9" d="M98.4,38.5h5h0.1c0,0,0.1,0,0.1,0.1l0.1,0.1v0.1v2.5v0.1c0,0,0,0.1-0.1,0.1l-0.1,0.1h-0.1h-5h-0.1
		c0,0-0.1,0-0.1-0.1l-0.1-0.1v-0.1v-2.5v-0.1c0,0,0-0.1,0.1-0.1L98.4,38.5C98.3,38.5,98.3,38.5,98.4,38.5z M103,37.8v-1.1
		c0-0.3-0.1-0.6-0.2-0.8c-0.1-0.3-0.3-0.5-0.5-0.7s-0.4-0.4-0.7-0.5c-0.3-0.1-0.5-0.2-0.8-0.2s-0.6,0.1-0.8,0.2
		c-0.3,0.1-0.5,0.3-0.7,0.5s-0.4,0.4-0.5,0.7s-0.2,0.5-0.2,0.8v1.1h-0.4c-0.1,0-0.3,0-0.4,0.1s-0.2,0.1-0.3,0.2
		c-0.1,0.1-0.2,0.2-0.2,0.3c-0.1,0.1-0.1,0.3-0.1,0.4v2.5c0,0.1,0,0.3,0.1,0.4c0.1,0.1,0.1,0.2,0.2,0.3s0.2,0.2,0.3,0.2
		c0.1,0.1,0.3,0.1,0.4,0.1h5c0.1,0,0.3,0,0.4-0.1s0.2-0.1,0.3-0.2c0.1-0.1,0.2-0.2,0.2-0.3c0.1-0.1,0.1-0.3,0.1-0.4v-2.5
		c0-0.1,0-0.3-0.1-0.4c-0.1-0.1-0.1-0.2-0.2-0.3s-0.2-0.2-0.3-0.2c-0.1-0.1-0.3-0.1-0.4-0.1H103z M99.4,37.8v-1.1
		c0-0.2,0-0.4,0.1-0.5c0.1-0.2,0.2-0.3,0.3-0.5c0.1-0.1,0.3-0.2,0.5-0.3s0.4-0.1,0.5-0.1c0.2,0,0.4,0,0.5,0.1
		c0.2,0.1,0.3,0.2,0.5,0.3s0.2,0.3,0.3,0.5c0.1,0.2,0.1,0.4,0.1,0.5v1.1H99.4z"/>
	<path class="st5" d="M124.3,6.3c0,2-1.5,2-1.5,4s1.5,2,1.5,4s-1.5,2-1.5,4s1.5,2,1.5,4s-1.5,2-1.5,4s1.5,2,1.5,4"/>
</g>
</svg>
